<?xml version="1.0" encoding="UTF-8"?>
<svg version="1.1" xmlns="http://www.w3.org/2000/svg" width="2000" height="315">
<path d="M0 0 C11.59626903 -0.11601952 23.19239922 -0.20477937 34.78913116 -0.25906086 C40.17440846 -0.28511774 45.5592877 -0.32044473 50.94433594 -0.37719727 C56.14446406 -0.43165591 61.34421009 -0.46144993 66.54460144 -0.47438622 C68.52530428 -0.4836012 70.50598699 -0.50159614 72.48652649 -0.52865028 C75.26816451 -0.56512487 78.04823817 -0.56993769 80.83007812 -0.56762695 C81.64288239 -0.58560333 82.45568665 -0.60357971 83.29312134 -0.62210083 C89.33860897 -0.56801501 93.2684391 1.26816696 98 5 C104.30331406 11.70997949 102.34128393 22.75917947 102.14501953 31.30871582 C101.61285336 44.85431595 100.2056697 58.37881775 99 71.875 C98.01 83.13625 97.02 94.3975 96 106 C142.53 106.33 189.06 106.66 237 107 C237.33 100.07 237.66 93.14 238 86 C238.34197144 81.39643148 238.70265127 76.80664038 239.12109375 72.2109375 C239.27832664 70.42050522 239.27832664 70.42050522 239.43873596 68.59390259 C239.76771552 64.8539068 240.10218503 61.11443259 240.4375 57.375 C240.87622961 52.44553393 241.31198967 47.51581292 241.74609375 42.5859375 C241.85247162 41.3864447 241.95884949 40.1869519 242.06845093 38.95111084 C242.9366205 29.0398209 243.67460417 19.1209758 244.33140564 9.19345093 C244.40516922 8.13010529 244.4789328 7.06675964 244.55493164 5.97119141 C244.61717422 5.0322403 244.67941681 4.09328918 244.74354553 3.12588501 C245 1 245 1 246 0 C247.34072817 -0.09527037 248.68642503 -0.1218877 250.03053284 -0.12025452 C250.89856537 -0.12162918 251.7665979 -0.12300385 252.66093445 -0.12442017 C253.62046524 -0.12082489 254.57999603 -0.11722961 255.56860352 -0.11352539 C256.57336731 -0.11367142 257.5781311 -0.11381744 258.61334229 -0.1139679 C261.95188517 -0.1132683 265.29037305 -0.10547374 268.62890625 -0.09765625 C270.93676218 -0.09579224 273.24461851 -0.09436826 275.55247498 -0.09336853 C281.64017826 -0.08954204 287.72785786 -0.07971065 293.81555176 -0.06866455 C300.02221354 -0.05845323 306.22887913 -0.05387151 312.43554688 -0.04882812 C324.62370835 -0.0380885 336.81185221 -0.02101052 349 0 C350.57329636 3.14659272 349.7980266 6.40188079 349.50610352 9.81982422 C349.44089005 10.63711282 349.37567657 11.45440142 349.30848694 12.29645634 C349.08741318 15.04967061 348.85810507 17.8021386 348.62890625 20.5546875 C348.46969606 22.5175823 348.31101174 24.48051982 348.15281677 26.4434967 C347.81003819 30.68338393 347.46365003 34.92295557 347.11450195 39.162323 C346.55566767 45.94833287 346.0047383 52.73497021 345.45507812 59.52172852 C344.78466466 67.79323121 344.11243645 76.06458234 343.43778038 84.33574009 C341.84971485 103.80707723 340.28873207 123.28054406 338.73385525 142.7545557 C338.24474049 148.87942167 337.75413571 155.00416584 337.26217937 161.12880421 C335.50140672 183.05021182 333.76354937 204.9731594 332.06732941 226.89966393 C331.5208981 233.95428422 330.97089097 241.00862691 330.4209938 248.06297779 C329.89504933 254.81698218 329.37555511 261.57144338 328.86084938 268.32631302 C328.54228188 272.48776957 328.21778285 276.64874819 327.89167404 280.8096199 C327.74173679 282.73885172 327.59431701 284.66828111 327.44960403 286.59791183 C327.25120389 289.23942357 327.04390751 291.88009553 326.83447266 294.52075195 C326.77940552 295.28315658 326.72433838 296.0455612 326.66760254 296.83106899 C325.73171977 308.26828023 325.73171977 308.26828023 323 311 C319.83387337 311.09536242 316.68959372 311.12550636 313.52319336 311.11352539 C312.03067802 311.11374443 312.03067802 311.11374443 310.50801086 311.1139679 C307.20193338 311.11326831 303.89591146 311.10547379 300.58984375 311.09765625 C298.30440807 311.09579223 296.01897199 311.09436825 293.73353577 311.09336853 C287.70501613 311.08954207 281.67652041 311.0797107 275.64801025 311.06866455 C269.50167159 311.05845317 263.35532907 311.0538715 257.20898438 311.04882812 C245.13931238 311.03808854 233.06965818 311.0210106 221 311 C220.91117455 302.93827663 221.09009195 294.98590185 221.76953125 286.953125 C221.85015808 285.95149323 221.93078491 284.94986145 222.01385498 283.9178772 C222.27483821 280.69479965 222.54347213 277.47241514 222.8125 274.25 C222.99696625 271.99367708 223.18112674 269.73732915 223.36499023 267.48095703 C224.36564392 255.2725539 225.43070521 243.07189494 226.5625 230.875 C228.24743233 212.26748641 229.60265122 193.63131706 231 175 C184.47 174.67 137.94 174.34 90 174 C89.67 181.26 89.34 188.52 89 196 C88.59944678 201.27862813 88.17253256 206.5424032 87.6875 211.8125 C87.41941636 214.81618985 87.15512863 217.8202118 86.890625 220.82421875 C86.82040634 221.61707275 86.75018768 222.40992676 86.67784119 223.22680664 C85.80576562 233.11555863 85.00353977 243.01005287 84.19927979 252.9045105 C83.93932969 256.10249062 83.67847407 259.3003959 83.41748047 262.49829102 C82.71095094 271.16716492 82.00823746 279.83621016 81.3359375 288.5078125 C81.19877319 290.26907471 81.19877319 290.26907471 81.05883789 292.06591797 C80.90158003 294.09858102 80.74686062 296.13144314 80.59545898 298.16455078 C80.52915283 299.02290527 80.46284668 299.88125977 80.39453125 300.765625 C80.34143799 301.47493164 80.28834473 302.18423828 80.23364258 302.91503906 C79.96668264 305.29731475 79.47012703 307.64936485 79 310 C45.01 310 11.02 310 -24 310 C-24 285.88567366 -24 285.88567366 -23.30078125 278.33984375 C-23.22562286 277.44555161 -23.15046448 276.55125946 -23.07302856 275.62986755 C-22.82762871 272.73165023 -22.57006956 269.83465864 -22.3125 266.9375 C-22.13263996 264.83617752 -21.95371256 262.73477505 -21.77563477 260.63330078 C-21.39339203 256.13552977 -21.00650754 251.63819242 -20.61621094 247.14111328 C-19.63817037 235.84601365 -18.70110819 224.54745798 -17.76031494 213.24920654 C-17.43719271 209.37131208 -17.11294166 205.49351314 -16.78857422 201.61572266 C-15.62527817 187.68467077 -14.49291344 173.75214298 -13.4375 159.8125 C-12.37698907 145.80881276 -11.26922632 131.80961057 -10.125 117.8125 C-10.0429129 116.80752472 -9.96082581 115.80254944 -9.87625122 114.76712036 C-8.83468167 102.02957952 -7.77460768 89.29365169 -6.703125 76.55859375 C-6.48028894 73.90454245 -6.25746992 71.25048971 -6.03466797 68.59643555 C-5.6091688 63.52866944 -5.18074859 58.46116266 -4.75048828 53.39379883 C-3.92077083 43.55348661 -3.10055573 33.71476596 -2.44238281 23.86132812 C-2.39743746 23.19090107 -2.3524921 22.52047401 -2.30618477 21.82973099 C-2.09022123 18.59078544 -1.88039908 15.35158359 -1.67807007 12.11175537 C-1.56599716 10.38629486 -1.56599716 10.38629486 -1.45166016 8.62597656 C-1.38822418 7.60973206 -1.32478821 6.59348755 -1.25942993 5.54644775 C-1 3 -1 3 0 0 Z " fill="#00AD9B" transform="translate(24,0)"/>
<path d="M0 0 C1.39458939 -0.00424107 1.39458939 -0.00424107 2.81735229 -0.00856781 C7.72817245 -0.02339294 12.63896445 -0.03272978 17.54980469 -0.03710938 C22.55502477 -0.04260224 27.55997406 -0.06669632 32.56510925 -0.09508133 C36.47929605 -0.11389403 40.39341956 -0.11892287 44.30764771 -0.12044525 C46.15082292 -0.12342507 47.99399834 -0.13128983 49.83712769 -0.14463043 C76.61528174 -0.32480766 108.13577688 3.23408897 128.4375 22.515625 C143.73241264 38.83388622 145.07864042 57.9914074 144.5625 79.203125 C144.23702193 87.37258589 143.65969137 95.52742687 143.1015625 103.68359375 C142.94877631 105.99347305 142.79664074 108.30339547 142.64511108 110.61335754 C142.2474317 116.65196999 141.84180669 122.69002071 141.43414307 128.72796631 C140.78840651 138.31717809 140.15632551 147.90730732 139.52120209 157.49722672 C139.29068287 160.9716711 139.05891626 164.44603057 138.82696533 167.92037964 C137.86859319 182.31424786 136.96303534 196.70992746 136.1769104 211.11430359 C136.10870087 212.33511124 136.04049133 213.55591888 135.97021484 214.8137207 C135.9147348 215.84213577 135.85925476 216.87055084 135.80209351 217.93013 C135.5018992 222.03096933 135.0165737 226.11646171 134.5625 230.203125 C102.8825 230.203125 71.2025 230.203125 38.5625 230.203125 C39.15743348 218.30445547 39.75368743 206.40900109 40.4375 194.515625 C40.47851837 193.8012326 40.51953674 193.08684021 40.5617981 192.35079956 C41.3496998 178.65427183 42.16763456 164.95951727 43 151.265625 C43.06246918 150.23705383 43.12493835 149.20848267 43.18930054 148.14874268 C43.88915491 136.66628353 44.6204369 125.18678379 45.421875 113.7109375 C45.49169083 112.70798141 45.56150665 111.70502533 45.63343811 110.67167664 C45.96526718 105.91808138 46.30237492 101.1649514 46.64819336 96.41235352 C49.15389807 76.64880632 49.15389807 76.64880632 42.1875 58.953125 C33.02350376 51.03640235 19.89520383 51.62681062 8.53564453 51.79150391 C5.96215358 51.82777751 3.39012555 51.83252307 0.81640625 51.83203125 C-9.99980774 51.87929069 -20.60828438 52.65009691 -31.33554077 54.02548218 C-34.04065001 54.254099 -36.72421875 54.22930607 -39.4375 54.203125 C-39.41268806 55.43150841 -39.41268806 55.43150841 -39.38737488 56.68470764 C-39.25946889 68.48504872 -40.045544 80.18200073 -40.86328125 91.94921875 C-41.01351079 94.16688379 -41.16325453 96.38458178 -41.31254578 98.60231018 C-41.70653538 104.43826019 -42.10629943 110.27379946 -42.50756836 116.10925293 C-43.13803189 125.2928781 -43.75940661 134.47712547 -44.38174057 143.66130447 C-44.61288014 147.06830632 -44.84502174 150.475239 -45.07717896 153.88217163 C-45.85043896 165.26479326 -46.59950703 176.64843602 -47.30224609 188.03564453 C-47.37084304 189.14617848 -47.43943998 190.25671244 -47.51011562 191.40089893 C-47.83461757 196.66996093 -48.15522382 201.93922725 -48.47053528 207.20884705 C-48.5847401 209.085929 -48.698971 210.96300938 -48.81323242 212.84008789 C-48.86197447 213.67536325 -48.91071651 214.51063862 -48.96093559 215.37122536 C-49.83351993 229.59914493 -49.83351993 229.59914493 -51.4375 231.203125 C-54.35407629 231.30370743 -57.24700946 231.33927711 -60.1640625 231.33251953 C-61.07943787 231.33427185 -61.99481323 231.33602417 -62.93792725 231.33782959 C-65.97947049 231.34224961 -69.02095611 231.33930959 -72.0625 231.3359375 C-74.1661785 231.3366105 -76.26985692 231.33758048 -78.37353516 231.33883667 C-82.78874449 231.34031385 -87.20393363 231.33815845 -91.61914062 231.33349609 C-97.29242561 231.3277988 -102.96566329 231.3310777 -108.63894653 231.33706856 C-112.98478556 231.34067364 -117.33061328 231.33953583 -121.67645264 231.33694077 C-123.7689413 231.33627135 -125.86143097 231.33710043 -127.95391846 231.33942032 C-130.87295266 231.34194598 -133.79190912 231.33810748 -136.7109375 231.33251953 C-138.02164215 231.33555588 -138.02164215 231.33555588 -139.35882568 231.33865356 C-145.32323764 231.31738736 -145.32323764 231.31738736 -146.4375 230.203125 C-147.19174453 218.97715996 -145.94045271 207.68561256 -144.97265625 196.51171875 C-143.75901796 182.41450714 -142.93008663 168.29204829 -142.08032227 154.16918945 C-141.87398088 150.74873143 -141.66455209 147.32847056 -141.45507812 143.90820312 C-141.32272732 141.71615726 -141.19055933 139.52410034 -141.05859375 137.33203125 C-140.99610947 136.31839005 -140.93362518 135.30474884 -140.86924744 134.26039124 C-140.62955183 130.23139409 -140.40375096 126.23189794 -140.46118164 122.19506836 C-140.4375 119.203125 -140.4375 119.203125 -139.4375 116.203125 C-139.2693648 114.73354998 -139.144817 113.25874309 -139.04858398 111.78271484 C-138.98859726 110.89103607 -138.92861053 109.9993573 -138.86680603 109.08065796 C-138.80634598 108.11818146 -138.74588593 107.15570496 -138.68359375 106.1640625 C-138.61842056 105.16863434 -138.55324738 104.17320618 -138.48609924 103.14761353 C-138.34890979 101.03782402 -138.21370413 98.92790474 -138.08032227 96.81787109 C-137.87710213 93.61129409 -137.66659281 90.40525809 -137.45507812 87.19921875 C-137.32247771 85.14586163 -137.19030286 83.09247698 -137.05859375 81.0390625 C-136.99610947 80.08873138 -136.93362518 79.13840027 -136.86924744 78.15927124 C-136.55740885 73.16305734 -136.37983103 68.2071703 -136.45152283 63.20100403 C-136.42635215 59.61485405 -135.97209884 56.07465084 -135.5625 52.515625 C-134.41917291 42.01368718 -133.75525817 31.48768715 -133.13525391 20.94458008 C-133.05839355 19.69572021 -132.9815332 18.44686035 -132.90234375 17.16015625 C-132.836521 16.03585205 -132.77069824 14.91154785 -132.70288086 13.75317383 C-132.4375 11.203125 -132.4375 11.203125 -131.4375 10.203125 C-129.91974461 9.94915711 -128.39186534 9.7553202 -126.86230469 9.58642578 C-125.38787903 9.42073341 -125.38787903 9.42073341 -123.88366699 9.25169373 C-122.80315063 9.13511917 -121.72263428 9.01854462 -120.609375 8.8984375 C-118.92962585 8.71275963 -118.92962585 8.71275963 -117.21594238 8.52333069 C-113.54037281 8.11941586 -109.86403855 7.72311691 -106.1875 7.328125 C-104.94109741 7.19306549 -103.69469482 7.05800598 -102.41052246 6.91885376 C-86.85058504 5.23650537 -71.28882214 3.63817046 -55.6875 2.390625 C-54.98105347 2.33368469 -54.27460693 2.27674438 -53.54675293 2.21807861 C-35.69972308 0.79753203 -17.90287675 0.0376204 0 0 Z " fill="#00AC9A" transform="translate(1260.4375,81.796875)"/>
<path d="M0 0 C0.60199219 0.34643555 1.20398437 0.69287109 1.82421875 1.04980469 C25.53861876 14.86635011 42.17580678 36.45490485 49.90673828 62.81005859 C52.41787611 72.57970152 52.36342874 82.54072636 52.375 92.5625 C52.37708466 93.30683289 52.37916931 94.05116577 52.38131714 94.8180542 C52.3806305 96.98456202 52.3622517 99.15006979 52.3359375 101.31640625 C52.32095215 102.57912354 52.3059668 103.84184082 52.29052734 105.14282227 C52 109 52 109 50 118 C-16.66 118 -83.32 118 -152 118 C-146.91322078 134.53203246 -141.22670172 144.04429416 -126.31640625 152.3671875 C-120.72494599 155.12010904 -114.93612263 157.12813412 -109 159 C-107.87271484 159.36992065 -107.87271484 159.36992065 -106.72265625 159.74731445 C-72.38811537 170.65258644 -30.55524674 165.88877342 4.5078125 159.76171875 C10.02662301 158.79913552 15.57256918 158.05211971 21.125 157.3125 C22.07407227 157.18101562 23.02314453 157.04953125 24.00097656 156.9140625 C29.72166452 156.16022052 35.22991027 155.87610237 41 156 C39.39568802 167.55833859 37.70424147 179.09993961 35.875 190.625 C35.61928223 192.25103149 35.61928223 192.25103149 35.35839844 193.90991211 C35.19629883 194.92190674 35.03419922 195.93390137 34.8671875 196.9765625 C34.72394043 197.87455566 34.58069336 198.77254883 34.43310547 199.69775391 C34 202 34 202 33 205 C29.9990932 205.98995788 27.13746255 206.75673437 24.0625 207.4375 C23.13244141 207.64995361 22.20238281 207.86240723 21.24414062 208.08129883 C13.87125647 209.70856493 6.45821523 211.01884656 -1 212.1875 C-1.980896 212.34210693 -2.96179199 212.49671387 -3.97241211 212.65600586 C-7.31018716 213.15151782 -10.65140143 213.58369974 -14 214 C-14.66308167 214.08793823 -15.32616333 214.17587646 -16.00933838 214.26647949 C-33.20294555 216.48806771 -50.47499795 216.37495777 -67.77929688 216.37060547 C-71.15874817 216.37044369 -74.53765288 216.38423811 -77.91699219 216.41162109 C-127.04200653 216.80331733 -181.55865659 212.48477241 -219.6875 178.125 C-220.48269043 177.40993286 -220.48269043 177.40993286 -221.29394531 176.68041992 C-222.5709778 175.49706197 -223.7912624 174.25303688 -225 173 C-225 172.34 -225 171.68 -225 171 C-225.66 171 -226.32 171 -227 171 C-245.64725825 150.03443396 -249.27003286 121.83052411 -248 95 C-245.84306072 67.33034047 -229.72298353 39.98862429 -209.4453125 21.6953125 C-206.68444394 19.38258492 -203.87097249 17.17439605 -201 15 C-200.05898438 14.28199219 -199.11796875 13.56398437 -198.1484375 12.82421875 C-184.20122046 2.67915003 -168.55295685 -5.319352 -152.05957031 -10.36914062 C-150.69307297 -10.78770738 -149.33029129 -11.21861459 -147.97167969 -11.66210938 C-101.78523596 -26.72626749 -42.38906488 -24.88360294 0 0 Z M-136.25 48.3125 C-142.57398961 55.73247984 -144.87650748 62.44428368 -147 72 C-109.38 72 -71.76 72 -33 72 C-34.02990507 59.64113918 -36.23491838 50.03300988 -45 41 C-48.16924956 38.36076145 -51.47050628 36.12855622 -55 34 C-55.97839844 33.39671875 -55.97839844 33.39671875 -56.9765625 32.78125 C-82.31385902 19.45645661 -117.42563405 28.47719588 -136.25 48.3125 Z " fill="#00AD9B" transform="translate(1049,99)"/>
<path d="M0 0 C0.75071777 0.14953125 1.50143555 0.2990625 2.27490234 0.453125 C32.49956874 6.77156482 61.32573297 23.5229329 78.70703125 49.3125 C84.35864287 58.12118628 88.4825211 67.84887539 91 78 C91.33773438 79.15338867 91.67546875 80.30677734 92.0234375 81.49511719 C93.27115703 86.51077456 93.27006491 91.37477735 93.23046875 96.51953125 C93.23001053 97.49991867 93.22955231 98.48030609 93.2290802 99.49040222 C93.22607543 101.54854554 93.21824283 103.60668695 93.20581055 105.66479492 C93.18745503 108.82023119 93.18530183 111.97537506 93.18554688 115.13085938 C93.1806346 117.13541921 93.17480755 119.13997706 93.16796875 121.14453125 C93.16685593 122.08827103 93.1657431 123.0320108 93.16459656 124.00434875 C93.15821671 124.87923447 93.15183685 125.75412018 93.14526367 126.65551758 C93.14145187 127.42414627 93.13764008 128.19277496 93.13371277 128.98469543 C93 131 93 131 92 134 C25.67 134 -40.66 134 -109 134 C-106.53410183 147.56243992 -102.35260212 156.03385563 -91.15625 164.03125 C-83.48205009 169.02320528 -75.72394609 172.30765895 -67 175 C-66.25645264 175.24516357 -65.51290527 175.49032715 -64.74682617 175.74291992 C-19.11887019 190.33175742 35.90676683 177.80749233 82 171 C83.52075473 175.96489128 82.50197711 180.33396594 81.6015625 185.31640625 C81.44714691 186.20988266 81.29273132 187.10335907 81.13363647 188.02391052 C80.6391842 190.87165272 80.13208836 193.71698376 79.625 196.5625 C79.29087241 198.48098163 78.95753037 200.39960025 78.625 202.31835938 C78.01189901 205.83358052 77.39777473 209.34858799 76.77197266 212.86157227 C76.64682281 213.56596939 76.52167297 214.27036652 76.39273071 214.99610901 C75.99639422 217.01839834 75.51740757 219.00557086 75 221 C63.74284361 223.91586641 52.4962741 226.4082119 41 228.1875 C39.52877686 228.41904785 39.52877686 228.41904785 38.02783203 228.65527344 C34.69002638 229.15155739 31.34872354 229.58354508 28 230 C27.00388199 230.13240585 27.00388199 230.13240585 25.98764038 230.26748657 C8.84263601 232.48860422 -8.37180209 232.34137031 -25.62670898 232.31567383 C-28.99175399 232.31104739 -32.35643713 232.31795889 -35.72143555 232.33618164 C-84.36984534 232.59704259 -140.269554 228.94116343 -177.8828125 194.15234375 C-188.58801969 183.26937482 -196.02313712 171.3796444 -201 157 C-201.29777344 156.20722656 -201.59554688 155.41445312 -201.90234375 154.59765625 C-211.00308252 129.55930532 -206.52923545 99.89301741 -195.625 76.1875 C-179.04197559 41.45947793 -147.85138156 19.12883454 -112.375 6.4375 C-103.36004493 3.31137991 -94.38415194 0.73505399 -85 -1 C-84.2044873 -1.14953125 -83.40897461 -1.2990625 -82.58935547 -1.453125 C-55.42974088 -6.31596936 -26.97254377 -5.44605174 0 0 Z M-92.140625 62.08984375 C-99.67650033 70.0304235 -102.62365801 77.30646103 -105 88 C-67.38 88 -29.76 88 9 88 C8.01484801 75.19302418 6.09332625 66.23392791 -2.7734375 56.87890625 C-11.34924385 49.64212931 -20.92284238 45.58055367 -32 44 C-33.07507812 43.83628906 -34.15015625 43.67257813 -35.2578125 43.50390625 C-56.09435494 41.15919092 -77.07750856 47.38406401 -92.140625 62.08984375 Z " fill="#00AD9B" transform="translate(1907,83)"/>
<path d="M0 0 C1.67006607 0.00040787 1.67006607 0.00040787 3.37387085 0.00082397 C20.3027054 0.01983779 37.02125014 0.49878357 53.875 2.1875 C56.27728037 2.40824291 58.67962671 2.62826878 61.08203125 2.84765625 C73.0799498 3.98124942 85.02074235 5.38747419 96.9375 7.1875 C97.96504395 7.34138184 98.99258789 7.49526367 100.05126953 7.65380859 C115.30850394 10.06310841 115.30850394 10.06310841 120.875 12.1875 C121.94556506 15.39919518 121.8243116 16.87459509 121.38671875 20.17578125 C121.25821533 21.18261963 121.12971191 22.18945801 120.99731445 23.22680664 C120.85382568 24.30696045 120.71033691 25.38711426 120.5625 26.5 C119.05351404 38.37687228 117.88190304 50.25866047 116.875 62.1875 C95.27995947 59.4931736 95.27995947 59.4931736 85.625 57.75 C64.04532324 53.95866477 41.78336263 51.53260729 19.875 51.1875 C18.81877441 51.16703613 17.76254883 51.14657227 16.67431641 51.12548828 C-9.25989003 50.0411143 -9.25989003 50.0411143 -34.125 56.1875 C-36.19060395 58.17738202 -36.19060395 58.17738202 -37.125 60.1875 C-27.61887012 74.44669482 -5.06704084 79.39358717 10.29116821 85.54403687 C51.76349167 102.16212997 51.76349167 102.16212997 70.875 111.1875 C71.58205078 111.51911133 72.28910156 111.85072266 73.01757812 112.19238281 C92.49096178 121.39163075 112.84089185 132.84348569 121.16796875 153.984375 C125.19934223 166.54622385 125.39053099 179.86339472 119.55078125 191.921875 C118.09814161 194.43825863 116.55363179 196.81669164 114.875 199.1875 C114.44574219 199.80109375 114.01648438 200.4146875 113.57421875 201.046875 C96.11228361 223.50529306 63.2988758 229.84846265 36.875 233.1875 C19.71971718 234.99487471 2.5789336 235.48525164 -14.65942383 235.39331055 C-18.19034084 235.37498526 -21.72099321 235.37280274 -25.25195312 235.37304688 C-48.55836066 235.33911786 -71.75111075 234.39360378 -94.98486328 232.56787109 C-98.25627897 232.31200891 -101.52842203 232.06768189 -104.80078125 231.82421875 C-115.76502998 230.98921961 -126.69801458 229.98293733 -137.6171875 228.6796875 C-138.64522491 228.56166779 -139.67326233 228.44364807 -140.73245239 228.322052 C-141.67523041 228.20401215 -142.61800842 228.08597229 -143.58935547 227.96435547 C-144.41966278 227.86267059 -145.24997009 227.76098572 -146.10543823 227.65621948 C-148.125 227.1875 -148.125 227.1875 -150.125 225.1875 C-150.22038269 223.23429871 -150.22038269 223.23429871 -150.00073242 220.81713867 C-149.92372604 219.9124736 -149.84671967 219.00780853 -149.76737976 218.07572937 C-149.67269913 217.09554337 -149.57801849 216.11535736 -149.48046875 215.10546875 C-149.39122635 214.09913895 -149.30198395 213.09280914 -149.21003723 212.0559845 C-149.01896866 209.92285539 -148.82274939 207.79018243 -148.62182617 205.65795898 C-148.31483598 202.39979237 -148.02217112 199.14060003 -147.73242188 195.88085938 C-147.54510903 193.80981985 -147.35698435 191.73885356 -147.16796875 189.66796875 C-147.07936081 188.69385544 -146.99075287 187.71974213 -146.89945984 186.71611023 C-146.81299698 185.80198868 -146.72653412 184.88786713 -146.63745117 183.94604492 C-146.5625798 183.14599533 -146.48770844 182.34594574 -146.41056824 181.52165222 C-146.1073475 179.04321354 -145.64376121 176.62914016 -145.125 174.1875 C-136.34208965 174.81881265 -127.66002086 175.87163345 -118.9375 177.0625 C-107.56203705 178.5822881 -96.18015955 179.84533372 -84.75 180.875 C-83.4400708 180.99407715 -82.1301416 181.1131543 -80.78051758 181.23583984 C-76.89677135 181.57573201 -73.01220334 181.88981699 -69.125 182.1875 C-67.87565674 182.28321289 -66.62631348 182.37892578 -65.33911133 182.47753906 C-52.97342839 183.31444617 -40.601994 183.47567881 -28.21069336 183.53759766 C-25.76235552 183.55430986 -23.31406933 183.58179415 -20.8659668 183.61962891 C-17.28409277 183.67439398 -13.70332975 183.69624853 -10.12109375 183.7109375 C-8.49124794 183.74494156 -8.49124794 183.74494156 -6.82847595 183.77963257 C0.40075253 183.75954418 5.64755672 182.41494328 10.875 177.1875 C11.62842517 174.86234501 11.62842517 174.86234501 10.875 172.1875 C5.29418072 167.42865428 -2.09337146 164.92258047 -8.8125 162.25 C-10.54584595 161.55100586 -10.54584595 161.55100586 -12.31420898 160.83789062 C-21.59063862 157.11529099 -30.9422903 153.59522976 -40.30014038 150.08364868 C-101.57991111 127.08091993 -101.57991111 127.08091993 -124.125 109.1875 C-125.14335938 108.38183594 -126.16171875 107.57617188 -127.2109375 106.74609375 C-137.31836042 97.87161384 -144.20345849 85.24599807 -145.328125 71.75 C-145.61649427 55.98581337 -140.68415717 43.6832085 -130.125 32.1875 C-114.47044994 17.11274809 -92.77634755 10.88098808 -72.125 6.1875 C-71.11505981 5.94108765 -71.11505981 5.94108765 -70.0847168 5.68969727 C-63.75346058 4.1880303 -57.39647961 3.37163434 -50.9375 2.625 C-49.90302734 2.49931641 -48.86855469 2.37363281 -47.80273438 2.24414062 C-31.83331625 0.35783335 -16.06395627 -0.01470528 0 0 Z " fill="#00AD9B" transform="translate(667.125,77.8125)"/>
<path d="M0 0 C1.67248306 0.00040787 1.67248306 0.00040787 3.37875366 0.00082397 C18.90102756 0.01824297 34.28304696 0.26960859 49.73535156 1.87109375 C53.06871955 2.21384565 56.40456197 2.51418533 59.7421875 2.8125 C72.95839394 4.03825781 86.0755061 5.71120874 99.1875 7.75 C99.87403656 7.85591461 100.56057312 7.96182922 101.26791382 8.07095337 C107.92848323 9.10674762 114.35857516 10.24927855 120.8125 12.1875 C120.19059242 22.42153799 119.34804742 32.61081998 118.3125 42.8125 C118.18082623 44.14711931 118.04931541 45.48175471 117.91796875 46.81640625 C117.79035156 48.08613281 117.66273438 49.35585937 117.53125 50.6640625 C117.36012695 52.3668335 117.36012695 52.3668335 117.18554688 54.10400391 C116.85434408 56.8416291 116.39825886 59.49439192 115.8125 62.1875 C114.78930664 62.02668945 113.76611328 61.86587891 112.71191406 61.70019531 C36.57367383 45.46141293 36.57367383 45.46141293 -36.1875 57.1875 C-37.45593032 60.01125842 -37.45593032 60.01125842 -36.5625 62.15234375 C-25.96564362 77.83689539 5.63073906 83.95318109 22.74853516 90.76757812 C44.04134228 99.24589311 65.1348831 107.83940276 85.3125 118.75 C86.12557617 119.18497803 86.93865234 119.61995605 87.77636719 120.06811523 C103.28686248 128.61098036 116.9331181 141.22913733 122.1484375 158.62109375 C124.67368489 172.18315768 123.92609592 184.9808021 116.16796875 196.6640625 C114.4782889 198.94493959 112.70080948 201.06930936 110.8125 203.1875 C110.30203125 203.79078125 109.7915625 204.3940625 109.265625 205.015625 C92.59596464 223.33574678 63.17391848 229.61820702 39.6875 232.8125 C38.80054443 232.9357666 37.91358887 233.0590332 36.99975586 233.18603516 C19.85177357 235.38134126 2.5670929 235.34870847 -14.69116211 235.31787109 C-18.2205848 235.31254439 -21.74987819 235.31783244 -25.27929688 235.32421875 C-48.58408772 235.33335179 -71.76057981 234.39687645 -94.99243164 232.56787109 C-98.25287655 232.3122745 -101.51402773 232.06778982 -104.77539062 231.82421875 C-119.63478989 230.68795343 -134.40649113 229.08421151 -149.1875 227.1875 C-149.55446038 187.28838115 -149.55446038 187.28838115 -145.1875 174.1875 C-136.58452228 174.80018078 -128.0986124 175.8469925 -119.5625 177.0625 C-108.18824276 178.63010367 -96.81356222 179.88085848 -85.375 180.875 C-84.68645935 180.93548523 -83.9979187 180.99597046 -83.28851318 181.05828857 C-78.59047023 181.46738268 -73.89034785 181.83829328 -69.1875 182.1875 C-67.28713989 182.33215698 -67.28713989 182.33215698 -65.34838867 182.47973633 C-53.14101494 183.30843337 -40.93321968 183.44137037 -28.70043945 183.48266602 C-26.30064045 183.49430041 -23.9008695 183.51492741 -21.5012207 183.54418945 C-17.98892085 183.58681619 -14.47736982 183.60301268 -10.96484375 183.61328125 C-9.90015366 183.63078934 -8.83546356 183.64829742 -7.73851013 183.66633606 C-1.47796068 183.64812285 3.68823185 183.04593048 8.8125 179.1875 C11.03981507 176.4454934 11.03981507 176.4454934 10.81787109 173.71459961 C9.34862422 170.02150239 7.28225791 169.41884301 3.7265625 167.75390625 C3.10045074 167.45827286 2.47433899 167.16263947 1.82925415 166.85804749 C-4.56265675 163.89649942 -11.11765974 161.35582426 -17.71832275 158.90338135 C-20.64374434 157.81603614 -23.56233911 156.7108395 -26.48165894 155.60723877 C-28.02082998 155.02562481 -29.56032271 154.44486146 -31.10012817 153.8649292 C-39.08483201 150.85688803 -47.04775661 147.79354515 -55.00262451 144.70755005 C-57.23576236 143.84223495 -59.47060105 142.98143104 -61.70556641 142.12084961 C-75.27814321 136.87227588 -88.67810358 131.34812149 -101.4375 124.3125 C-102.83826782 123.54377563 -102.83826782 123.54377563 -104.26733398 122.75952148 C-112.43312366 118.19756036 -120.10661863 113.28084207 -126.74609375 106.62109375 C-129.03537297 104.2164379 -129.03537297 104.2164379 -131.31640625 102.62890625 C-137.71549395 97.69933765 -143.10492324 87.14816819 -144.8046875 79.359375 C-146.76345162 63.12961512 -144.27703361 49.40541056 -134.1875 36.1875 C-112.0759728 9.53905037 -70.43159444 4.29478292 -38.1875 1.1875 C-37.18887939 1.08961182 -36.19025879 0.99172363 -35.16137695 0.89086914 C-23.46053499 -0.10243975 -11.73453885 -0.01072459 0 0 Z " fill="#00AD9B" transform="translate(1568.1875,77.8125)"/>
<path d="M0 0 C33.66 0 67.32 0 102 0 C101.38616279 11.66290693 100.73991352 23.29107025 99.8359375 34.9296875 C99.72189821 36.41842068 99.60800653 37.90716518 99.49424744 39.3959198 C99.18823522 43.39038975 98.87894859 47.3845994 98.56869888 51.37874222 C98.37287887 53.90233572 98.17794805 56.42599654 97.98324585 58.94967651 C95.19112949 95.11839697 92.21696914 131.27194667 89.20623779 167.42303467 C88.51371121 175.74714086 87.83029643 184.07189078 87.16162109 192.39794922 C87.059261 193.67042149 87.059261 193.67042149 86.95483303 194.96860027 C86.63004409 199.00781987 86.30667617 203.04714365 85.98591614 207.08668518 C85.86981127 208.5349263 85.75365885 209.98316361 85.63745117 211.43139648 C85.53808762 212.68017075 85.43872406 213.92894501 85.33634949 215.21556091 C84.95703371 219.48343559 84.47316571 223.74150861 84 228 C50.34 228 16.68 228 -18 228 C-18 214.49870687 -18 214.49870687 -17.52856445 208.50561523 C-17.4779612 207.84626952 -17.42735794 207.18692381 -17.37522125 206.50759792 C-17.20904577 204.35755377 -17.03627336 202.20809924 -16.86328125 200.05859375 C-16.74220593 198.51240835 -16.62150331 196.96619373 -16.50114441 195.41995239 C-16.1779777 191.28507338 -15.84875533 187.15069772 -15.51815796 183.01640701 C-15.24066961 179.53676226 -14.96680473 176.05683564 -14.69280434 172.57691479 C-12.94732721 150.42220399 -11.12054353 128.27530452 -9.20315552 106.13476562 C-7.84670104 90.45783929 -6.58333675 74.77603743 -5.390625 59.0859375 C-5.32227448 58.18823324 -5.25392395 57.29052898 -5.1835022 56.36562157 C-4.50152995 47.40551637 -3.82382255 38.44511839 -3.15864944 29.48374939 C-2.91172094 26.16663053 -2.66157558 22.84975918 -2.41075897 19.53293228 C-2.29385969 17.97589744 -2.17850993 16.41874542 -2.06476593 14.8614769 C-1.90860356 12.72432482 -1.74737823 10.58761216 -1.58496094 8.45092773 C-1.45102936 6.64603127 -1.45102936 6.64603127 -1.31439209 4.80467224 C-1 2 -1 2 0 0 Z " fill="#00AC9A" transform="translate(402,83)"/>
<path d="M0 0 C11.61357881 -0.09276853 23.22706916 -0.16379998 34.84094334 -0.20724869 C40.2340207 -0.2281042 45.62684415 -0.25638496 51.01977539 -0.30175781 C56.22636847 -0.34528772 61.43271764 -0.36915242 66.63947868 -0.37950897 C68.62377702 -0.38688748 70.60806232 -0.40129605 72.59225655 -0.42292023 C75.37633003 -0.45204905 78.15940164 -0.45595203 80.94360352 -0.45410156 C81.76000305 -0.46848267 82.57640259 -0.48286377 83.4175415 -0.49768066 C89.07047257 -0.45714908 92.34340132 0.75846835 97 4 C104.60936013 13.89216816 100.7723389 30.01999709 99.5625 41.4375 C99.42593679 42.7857572 99.28986675 44.13406444 99.15429688 45.48242188 C98.61412304 50.72869554 98.03532426 55.8233787 97 61 C63.34 61 29.68 61 -5 61 C-5 53.23994479 -4.87225879 45.805319 -4.16015625 38.125 C-4.03053749 36.66646606 -4.03053749 36.66646606 -3.89830017 35.1784668 C-3.71671937 33.14820901 -3.53258244 31.1181783 -3.34594727 29.08837891 C-3.06066862 25.98004568 -2.78463035 22.87098847 -2.50976562 19.76171875 C-2.33126829 17.77859723 -2.1522507 15.79552246 -1.97265625 13.8125 C-1.89032242 12.88646973 -1.80798859 11.96043945 -1.72315979 11.00634766 C-1.60314857 9.71349854 -1.60314857 9.71349854 -1.48071289 8.39453125 C-1.41187393 7.64018799 -1.34303497 6.88584473 -1.27210999 6.10864258 C-1.00155921 4.01208269 -0.55511878 2.03800093 0 0 Z " fill="#00AC9A" transform="translate(409,0)"/>
</svg>
