<?xml version="1.0" encoding="UTF-8"?>
<svg version="1.1" xmlns="http://www.w3.org/2000/svg" width="2000" height="581">
<path d="M0 0 C1.01297653 0.00273422 1.01297653 0.00273422 2.04641724 0.00552368 C18.81017565 0.08143149 34.0262376 2.51460647 49.75 8.3125 C50.73564941 8.67553223 50.73564941 8.67553223 51.74121094 9.04589844 C76.74718626 18.5283986 99.18840183 37.49153729 110.4765625 61.94921875 C117.91924497 79.17587649 118.18534227 95.7035305 118.09819686 114.23277938 C118.08510442 117.73152475 118.08963518 121.23025616 118.09190369 124.72901917 C118.09346817 130.77421525 118.08414595 136.81931335 118.06719017 142.86448479 C118.04269184 151.60450994 118.03498389 160.34448825 118.0312262 169.08454401 C118.0246786 183.26854765 118.00476362 197.45249921 117.97631836 211.63647461 C117.94873381 225.40567771 117.92752181 239.1748666 117.91479492 252.9440918 C117.91400675 253.79443168 117.91321858 254.64477156 117.91240653 255.52087932 C117.90849109 259.78726409 117.90470005 264.05364897 117.90097082 268.32003391 C117.86992764 303.65090222 117.81465321 338.98167407 117.75 374.3125 C80.46 374.3125 43.17 374.3125 4.75 374.3125 C4.75902344 357.12671875 4.76804687 339.9409375 4.77734375 322.234375 C4.76750683 311.35153927 4.75590627 300.46875285 4.73632812 289.5859375 C4.72611024 283.86816488 4.71632823 278.15039177 4.70727539 272.43261719 C4.70554635 271.35774807 4.70554635 271.35774807 4.70378238 270.26116443 C4.68583451 258.70907426 4.69247038 247.15712333 4.70826416 235.60503563 C4.72393604 223.73975474 4.7130091 211.87471076 4.67765242 200.00947118 C4.65856119 193.34895563 4.65242135 186.68882566 4.67530632 180.02828217 C4.6964762 173.75390547 4.68472146 167.4804362 4.64815521 161.20613861 C4.6404873 158.90845555 4.64465483 156.61069636 4.66181374 154.31306458 C4.76885134 138.78577031 3.54779496 129.7230572 -7.125 117.875 C-11.10134851 114.17446758 -15.36250408 111.6351049 -20.25 109.3125 C-21.36568359 108.77496094 -21.36568359 108.77496094 -22.50390625 108.2265625 C-42.1087229 99.15720384 -66.40733616 97.20216242 -86.96508789 104.45703125 C-101.10996233 109.80478497 -113.51000403 116.98068478 -120.38269472 130.99183655 C-121.91261279 135.08546428 -121.80569543 139.09784923 -121.76898193 143.42382812 C-121.77648319 144.41479964 -121.78398444 145.40577116 -121.791713 146.42677212 C-121.81194116 149.73264676 -121.80389679 153.03783235 -121.79589844 156.34375 C-121.80463606 158.71929094 -121.81512249 161.09482599 -121.82722473 163.47035217 C-121.85508185 169.90980256 -121.85848946 176.34906088 -121.85750484 182.78856277 C-121.85841687 188.83931405 -121.88144365 194.88999782 -121.90247145 200.9407059 C-121.94351238 212.92123615 -121.96685516 224.90173239 -121.97900391 236.88232422 C-121.99083972 248.51679765 -122.01109606 260.15120675 -122.04248047 271.78564453 C-122.04539874 272.87325591 -122.04539874 272.87325591 -122.04837596 273.98283923 C-122.06537338 280.29045015 -122.08300659 286.59805926 -122.10070229 292.90566826 C-122.17600629 320.04127404 -122.20957132 347.17676796 -122.25 374.3125 C-159.54 374.3125 -196.83 374.3125 -235.25 374.3125 C-235.24097656 356.719375 -235.23195312 339.12625 -235.22265625 321 C-235.2324911 309.87107099 -235.24408738 298.74219029 -235.26367188 287.61328125 C-235.27389033 281.76774169 -235.28367236 275.92220165 -235.29272461 270.07666016 C-235.2938773 269.34403108 -235.29503 268.61140199 -235.29621762 267.85657203 C-235.31418355 256.03346773 -235.30751795 244.21049933 -235.29173584 232.38739741 C-235.27608437 220.25093481 -235.28694604 208.11470408 -235.32234758 195.97828197 C-235.34335386 188.49113842 -235.34375457 181.00457878 -235.31768017 173.51744872 C-235.29989286 167.77331569 -235.31901934 162.02976 -235.35184479 156.2857151 C-235.35953712 153.93152481 -235.35528918 151.57726047 -235.33818626 149.22311974 C-235.31660626 146.00624865 -235.33811457 142.79240244 -235.37025452 139.57568359 C-235.3455061 138.18071419 -235.3455061 138.18071419 -235.32025772 136.75756359 C-235.44574957 130.49504739 -237.12548409 127.38219948 -241.51393026 122.92484474 C-242.08683327 122.39277098 -242.65973629 121.86069721 -243.25 121.3125 C-244.04664063 120.55839844 -244.84328125 119.80429687 -245.6640625 119.02734375 C-265.22798957 103.30015857 -284.74945987 100.36942748 -309.25 102.3125 C-315.24917219 103.14846786 -320.71355918 104.89446336 -326.25 107.3125 C-326.93336426 107.60721191 -327.61672852 107.90192383 -328.32080078 108.20556641 C-341.83340707 114.18869832 -353.40778099 122.17702013 -363.25 133.3125 C-363.89093496 134.02641792 -363.89093496 134.02641792 -364.5448181 134.75475842 C-368.588462 139.73638307 -368.96457839 143.7547168 -368.88923645 150.03782654 C-368.90176996 151.48012488 -368.90176996 151.48012488 -368.91455668 152.95156056 C-368.93645212 156.16396097 -368.92288959 159.37521441 -368.90942383 162.58764648 C-368.91787805 164.89407722 -368.92852262 167.20050081 -368.94119263 169.50691223 C-368.96935219 175.76259603 -368.96686483 182.01793709 -368.95889878 188.27366519 C-368.95577517 194.81335945 -368.98080389 201.35294428 -369.00285339 207.89259338 C-369.03688891 218.86712786 -369.05191715 229.84157764 -369.05444336 240.81616211 C-369.05709252 252.11796114 -369.07028108 263.41966769 -369.09741211 274.72143555 C-369.09908963 275.42565527 -369.10076714 276.129875 -369.10249549 276.85543472 C-369.11717969 282.98152671 -369.13266026 289.10761665 -369.14821911 295.23370647 C-369.21413457 321.593331 -369.22776569 347.95271865 -369.25 374.3125 C-406.21 374.3125 -443.17 374.3125 -481.25 374.3125 C-481.25 257.8225 -481.25 141.3325 -481.25 21.3125 C-444.29 21.3125 -407.33 21.3125 -369.25 21.3125 C-368.92 35.1725 -368.59 49.0325 -368.25 63.3125 C-361.32 55.8875 -361.32 55.8875 -354.25 48.3125 C-330.63534686 23.46791701 -298.83086842 6.39643311 -264.09887695 5.2043457 C-208.49028081 4.1861777 -163.37752247 25.45072174 -123.25 63.3125 C-122.47527344 64.03824219 -121.70054687 64.76398438 -120.90234375 65.51171875 C-119.25 67.3125 -119.25 67.3125 -119.25 69.3125 C-118.59 69.3125 -117.93 69.3125 -117.25 69.3125 C-116.86134766 68.24708984 -116.86134766 68.24708984 -116.46484375 67.16015625 C-111.99811282 56.68990914 -104.0455179 48.38250797 -96.25 40.3125 C-95.45851563 39.45785156 -94.66703125 38.60320312 -93.8515625 37.72265625 C-79.16989684 22.28495797 -61.19730311 12.37783173 -41.08886719 5.90576172 C-39.5350673 5.4044694 -37.98917592 4.87876247 -36.4453125 4.34765625 C-24.65952282 0.46414195 -12.31330642 -0.05304477 0 0 Z " fill="#0081A2" transform="translate(481.25,196.6875)"/>
<path d="M0 0 C37.29 0 74.58 0 113 0 C113.33 79.86 113.66 159.72 114 242 C122.91 236.555 122.91 236.555 132 231 C135.8087001 228.96561456 139.54042089 227.01364838 143.4375 225.1875 C144.88116943 224.50578735 144.88116943 224.50578735 146.35400391 223.81030273 C155.33730785 219.67105332 164.45051795 216.53865674 174 214 C174.70785645 213.80857422 175.41571289 213.61714844 176.14501953 213.41992188 C181.06567207 212.11200127 186.01168125 211.01555196 191 210 C191.69448242 209.84901855 192.38896484 209.69803711 193.10449219 209.54248047 C225.49038424 202.68507482 262.97946732 205.71846214 294 217 C294.76892578 217.27682617 295.53785156 217.55365234 296.33007812 217.83886719 C344.6482197 235.53256511 385.51019747 270.33527269 407.96484375 316.9921875 C427.95333985 360.26669271 431.03529659 410.65557667 414.57202148 455.64868164 C406.14604198 477.45633405 394.63383388 496.41707516 379.52880859 514.19628906 C378.45800473 515.45963926 377.39939593 516.73338041 376.35009766 518.01464844 C375.81819824 518.65692383 375.28629883 519.29919922 374.73828125 519.9609375 C374.26044189 520.54407715 373.78260254 521.1272168 373.2902832 521.72802734 C372 523 372 523 370 523 C369.67 523.99 369.34 524.98 369 526 C366.57056063 528.58038087 363.73062324 530.7470368 361 533 C360.47567383 533.44053711 359.95134766 533.88107422 359.41113281 534.33496094 C350.10740374 542.13484308 340.52016677 548.94187517 330 555 C329.23510254 555.44730469 328.47020508 555.89460937 327.68212891 556.35546875 C308.50082042 567.44266103 286.88848469 575.27842661 265 579 C263.47427368 579.26055176 263.47427368 579.26055176 261.91772461 579.52636719 C250.9592889 581.19704656 240.12844208 581.39672727 229.0625 581.375 C227.64209412 581.37518127 227.64209412 581.37518127 226.19299316 581.37536621 C211.41694779 581.34854037 197.41980354 580.45754228 183 577 C181.6576698 576.70779206 180.31522987 576.41608748 178.97265625 576.125 C158.30151019 571.18333862 129.44146604 561.44146604 114 546 C113.67 554.25 113.34 562.5 113 571 C75.71 571 38.42 571 0 571 C0 382.57 0 194.14 0 0 Z M129.40625 339.64453125 C126.74998755 342.64102485 124.34950822 345.76310472 122 349 C121.59772186 349.55004196 121.19544373 350.10008392 120.78097534 350.66679382 C112.05363621 363.15182134 111.62798757 375.44894622 111.8815918 390.3293457 C111.93748658 394.06160405 111.90228844 397.78531763 111.85742188 401.51757812 C111.84801861 420.82681902 115.79584564 433.60923903 129 448 C129.66386719 448.75539063 130.32773438 449.51078125 131.01171875 450.2890625 C143.62908893 463.86264743 163.82053311 474.51174974 182.375 475.91015625 C208.07513782 476.78977406 231.03464367 472.53935244 251 455 C251.81525146 454.33677734 251.81525146 454.33677734 252.64697266 453.66015625 C267.31755554 441.58836233 276.8356391 422.77729325 279 404 C279.81034004 392.67258618 279.15235178 381.96470186 276 371 C275.74476563 370.071875 275.48953125 369.14375 275.2265625 368.1875 C271.62388797 356.81759138 262.41807442 340.71063232 251.73828125 334.734375 C250.87783203 334.37085938 250.87783203 334.37085938 250 334 C250 333.34 250 332.68 250 332 C213.76164521 303.42053154 161.82965939 306.5863262 129.40625 339.64453125 Z " fill="#0081A2" transform="translate(1139,0)"/>
<path d="M0 0 C0.02505615 -0.7520874 0.0501123 -1.5041748 0.07592773 -2.27905273 C0.19150514 -5.66539196 0.31440345 -9.05142613 0.4375 -12.4375 C0.49647461 -14.21350586 0.49647461 -14.21350586 0.55664062 -16.02539062 C0.59853516 -17.15009766 0.64042969 -18.27480469 0.68359375 -19.43359375 C0.72025146 -20.47572021 0.75690918 -21.51784668 0.79467773 -22.59155273 C1 -25 1 -25 2 -26 C38.96 -26 75.92 -26 114 -26 C114 90.49 114 206.98 114 327 C76.71 327 39.42 327 1 327 C0.67 318.09 0.34 309.18 0 300 C-4.95 303.465 -4.95 303.465 -10 307 C-12.55096708 308.55429844 -15.07768648 310.05800187 -17.6875 311.5 C-18.36538574 311.87672852 -19.04327148 312.25345703 -19.74169922 312.64160156 C-31.08733624 318.86552394 -42.69385051 323.94319337 -55 328 C-55.825 328.27457031 -56.65 328.54914063 -57.5 328.83203125 C-62.6893667 330.47123999 -67.96358259 331.77891785 -73.25 333.0625 C-73.90460205 333.22500244 -74.5592041 333.38750488 -75.23364258 333.55493164 C-88.27133542 336.63616939 -100.99113303 337.34718635 -114.32910156 337.31567383 C-117.10001574 337.31252836 -119.86984292 337.33600959 -122.640625 337.36132812 C-138.74637761 337.41941711 -154.54911865 335.74954547 -170.0625 331.25 C-170.97330322 330.99105957 -171.88410645 330.73211914 -172.82250977 330.46533203 C-202.7278869 321.77248242 -228.59877191 307.46810413 -252 287 C-253.04677871 286.14152123 -254.09495355 285.28474195 -255.14453125 284.4296875 C-257.54416595 282.38786427 -259.54899488 280.40650251 -261.5625 278 C-263.43550894 275.77215244 -265.32056292 273.68362061 -267.39453125 271.63671875 C-276.85067406 262.06715894 -284.04161274 250.73067773 -290.75390625 239.14599609 C-291.53579219 237.7994488 -292.32620686 236.45777985 -293.12890625 235.12353516 C-303.13054841 218.49257576 -308.70534123 199.03630495 -312 180 C-312.11569336 179.34112793 -312.23138672 178.68225586 -312.35058594 178.00341797 C-319.9673084 132.2691809 -307.77886866 83.60841542 -281.1875 45.875 C-268.75330547 28.73859545 -254.12474431 13.4629298 -237 1 C-236.43651855 0.58685547 -235.87303711 0.17371094 -235.29248047 -0.25195312 C-217.55937612 -13.08773041 -197.79188795 -22.34182786 -177 -29 C-175.74703125 -29.40734375 -174.4940625 -29.8146875 -173.203125 -30.234375 C-169.49588298 -31.3247403 -165.78135792 -32.21794068 -162 -33 C-161.14680176 -33.18046875 -160.29360352 -33.3609375 -159.41455078 -33.546875 C-103.31812219 -44.93349791 -47.05360718 -31.90991751 0 0 Z M-157 96 C-164.45051967 104.36333168 -169.97765072 112.96110492 -173.75 123.5 C-174.05292969 124.30308594 -174.35585938 125.10617187 -174.66796875 125.93359375 C-181.41259848 144.42886728 -179.02333784 166.37005232 -171 184 C-160.42627772 205.42352086 -142.89960643 220.27458225 -120.32421875 227.95703125 C-118.67873047 228.47330078 -118.67873047 228.47330078 -117 229 C-115.87207031 229.35449219 -114.74414062 229.70898438 -113.58203125 230.07421875 C-91.15895173 235.86949666 -67.88223355 231.07885789 -47.8125 220.375 C-31.28841716 210.47560641 -19.55520196 195.63532893 -12 178 C-11.34644531 176.48986328 -11.34644531 176.48986328 -10.6796875 174.94921875 C-4.6496329 158.01868084 -5.87299212 136.41076191 -13 120 C-13.27875977 119.35144043 -13.55751953 118.70288086 -13.84472656 118.03466797 C-18.267578 108.12366036 -24.27490355 100.5403895 -32 93 C-32.80308594 92.18789063 -33.60617187 91.37578125 -34.43359375 90.5390625 C-43.7209048 81.60250375 -54.76431005 75.88010973 -67 72 C-68.0725 71.608125 -69.145 71.21625 -70.25 70.8125 C-101.42942404 61.60039744 -134.98447794 73.67699859 -157 96 Z " fill="#0081A2" transform="translate(961,244)"/>
<path d="M0 0 C1.38795493 0.45987862 2.77734776 0.91543479 4.16796875 1.3671875 C25.23938959 8.31472644 45.19965129 19.466365 62 34 C63.15276911 34.97109379 64.30649125 35.94105687 65.4609375 36.91015625 C75.36632876 45.26163273 83.95252436 53.7984021 92 64 C92.74507812 64.93972656 93.49015625 65.87945312 94.2578125 66.84765625 C124.37336951 105.82998875 131 147.10673942 131 196 C38.27 196.33 -54.46 196.66 -150 197 C-145.04251407 220.13493432 -138.13448686 241.19534165 -122 259 C-121.2884375 259.92232422 -121.2884375 259.92232422 -120.5625 260.86328125 C-108.31787644 276.71569567 -87.57942712 285.61590063 -68.32421875 288.5625 C-46.25735697 290.7994786 -26.23616335 282.78847373 -9.11572266 269.24584961 C-1.63724552 263.13708483 5.41878518 255.81166737 9.95160961 247.18998623 C11.60489404 244.29585144 12.8452723 242.34339144 16.13001442 241.36657906 C18.84558991 241.13633394 21.48170079 241.13418081 24.20629883 241.20532227 C25.23115387 241.20430008 26.25600891 241.20327789 27.31192017 241.20222473 C30.69468446 241.20709623 34.07473941 241.26152073 37.45703125 241.31640625 C39.80399603 241.3294639 42.1509799 241.33942728 44.49797058 241.34642029 C50.67162874 241.37313204 56.84413183 241.44188403 63.01733398 241.51934814 C69.31803766 241.5909885 75.61892821 241.62293366 81.91992188 241.65820312 C94.28045508 241.73324973 106.64013145 241.85270363 119 242 C118.53846263 243.41983936 118.07382045 244.83866965 117.60791016 246.25708008 C117.34950348 247.04730057 117.0910968 247.83752106 116.82485962 248.65168762 C115.60146679 252.13459362 114.04507586 255.4000479 112.375 258.6875 C112.02945068 259.37102539 111.68390137 260.05455078 111.32788086 260.75878906 C102.97531353 276.95112887 92.0268807 291.36449092 79.44482422 304.4921875 C78.12261114 305.87204353 76.81261077 307.26357539 75.50390625 308.65625 C43.87657608 341.4780442 -4.81785244 363.09271301 -50.31434631 364.29154968 C-54.83487509 364.36827252 -59.35389539 364.38427512 -63.875 364.375 C-64.82543182 364.37478851 -65.77586365 364.37457703 -66.75509644 364.37435913 C-81.54160233 364.34153722 -95.58107698 363.5300401 -110 360 C-110.78938965 359.81808105 -111.5787793 359.63616211 -112.39208984 359.44873047 C-160.14542536 348.29066356 -204.01447522 317.75413425 -230.625 276.5625 C-231.76031085 274.71462871 -232.88492813 272.86015423 -234 271 C-234.63550781 269.96746094 -235.27101563 268.93492187 -235.92578125 267.87109375 C-244.68716443 253.18939728 -250.70382419 237.51527938 -255 221 C-255.29648438 219.89398438 -255.59296875 218.78796875 -255.8984375 217.6484375 C-263.33745049 187.96603914 -262.02115498 155.16293373 -253 126 C-252.67644531 124.86433594 -252.35289063 123.72867188 -252.01953125 122.55859375 C-246.77639659 105.31492704 -238.42216508 88.68492449 -228 74 C-227.29488281 72.99195313 -226.58976562 71.98390625 -225.86328125 70.9453125 C-220.1626795 63.06476788 -213.73554157 55.99099826 -207 49 C-206.47986328 48.45794922 -205.95972656 47.91589844 -205.42382812 47.35742188 C-198.92872838 40.61905997 -198.92872838 40.61905997 -196 38 C-195.34 38 -194.68 38 -194 38 C-194 37.34 -194 36.68 -194 36 C-192.55395508 34.70654297 -192.55395508 34.70654297 -190.51953125 33.2421875 C-189.77429199 32.70295654 -189.02905273 32.16372559 -188.26123047 31.6081543 C-187.45314941 31.03621338 -186.64506836 30.46427246 -185.8125 29.875 C-184.9889502 29.28823486 -184.16540039 28.70146973 -183.31689453 28.09692383 C-130.86801947 -8.97055542 -61.24761186 -22.35705176 0 0 Z M-113 83 C-113.74636719 83.60328125 -114.49273438 84.2065625 -115.26171875 84.828125 C-129.71052788 96.83097517 -138.50459586 113.67892229 -145 131 C-89.23 131 -33.46 131 24 131 C18.16575566 116.83112089 11.77990095 102.28754172 1 91 C0.34 91 -0.32 91 -1 91 C-1.268125 90.360625 -1.53625 89.72125 -1.8125 89.0625 C-2.88667752 86.66868314 -2.88667752 86.66868314 -6 86 C-6 85.34 -6 84.68 -6 84 C-36.60391365 56.0623364 -81.79010396 55.56506583 -113 83 Z " fill="#0081A2" transform="translate(1869,217)"/>
</svg>
