<?xml version="1.0" encoding="UTF-8"?>
<svg version="1.1" xmlns="http://www.w3.org/2000/svg" width="2000" height="646">
<path d="M0 0 C89.10820122 -0.00812131 89.10820122 -0.00812131 123.42112732 -0.0111084 C125.00943949 -0.01124675 125.00943949 -0.01124675 126.62983877 -0.01138789 C143.92957676 -0.01289428 161.22931475 -0.01438676 178.52905273 -0.01586914 C179.69348662 -0.01596894 180.85792051 -0.01606874 182.05764027 -0.01617156 C272.65614703 -0.02393183 363.25465384 -0.03158971 554.17548319 -0.042239 C556.25029079 -0.04234323 558.32509839 -0.04244766 560.39990598 -0.04255217 C619.18865553 -0.04551292 677.97740509 -0.04827977 736.76615465 -0.05078693 C738.9419199 -0.05087972 741.11768514 -0.05097252 743.29345038 -0.05106533 C744.01206745 -0.05109598 744.73068451 -0.05112663 745.47107785 -0.05115821 C772.49247903 -0.05231126 799.51388021 -0.05350863 826.53528138 -0.05473244 C829.47123643 -0.05486537 832.40719147 -0.05499779 835.34314652 -0.05512976 C904.66317203 -0.05824591 973.98319737 -0.06215982 1043.30322266 -0.06866455 C1044.39806651 -0.0687672 1044.39806651 -0.0687672 1045.51502843 -0.06887193 C1069.7880582 -0.07114901 1094.06108797 -0.0735034 1118.33411773 -0.07586844 C1140.26552539 -0.07800509 1162.19693305 -0.08011399 1184.12834072 -0.08213139 C1184.84877213 -0.08219767 1185.56920354 -0.08226395 1186.3114662 -0.08233224 C1231.41401191 -0.08647453 1276.51655757 -0.08941533 1321.61910343 -0.09113979 C1322.31546114 -0.09116658 1323.01181885 -0.09119336 1323.72927831 -0.09122096 C1354.30834044 -0.09239615 1384.88740256 -0.09332053 1415.4664647 -0.0939579 C1427.7676732 -0.09421546 1440.06888171 -0.09451019 1452.37009021 -0.09482527 C1454.40976185 -0.09487721 1456.44943349 -0.09492794 1458.48910513 -0.09497854 C1489.70824405 -0.09576164 1520.92738265 -0.09737658 1552.14652133 -0.10139394 C1552.82036739 -0.10148064 1553.49421346 -0.10156734 1554.1884791 -0.10165666 C1565.02904604 -0.10305653 1575.86961298 -0.10452544 1586.71017992 -0.10600626 C1631.08897593 -0.11206835 1675.46777106 -0.11512453 1719.84656752 -0.11362399 C1725.87640659 -0.11342089 1731.90624567 -0.11325351 1737.93608475 -0.11310768 C1739.70922627 -0.11306286 1739.70922627 -0.11306286 1741.51818884 -0.11301713 C1760.28989697 -0.11263542 1779.06160302 -0.1156302 1797.83331059 -0.12000986 C1816.2596058 -0.12424034 1834.68589827 -0.12495085 1853.11219373 -0.12183181 C1863.93590631 -0.12010807 1874.75961028 -0.12116974 1885.58332187 -0.126217 C1892.75209378 -0.12929095 1899.92085948 -0.12880565 1907.08963119 -0.12530107 C1911.16604515 -0.12341168 1915.24244223 -0.12314825 1919.31885495 -0.12723524 C1923.00792848 -0.13090552 1926.69697098 -0.13008262 1930.38604321 -0.12547626 C1932.35149647 -0.12423199 1934.31695092 -0.12794797 1936.2824008 -0.13180115 C1937.42956458 -0.12944826 1938.57672836 -0.12709536 1939.75865468 -0.12467116 C1940.75453307 -0.12473517 1941.75041145 -0.12479918 1942.77646797 -0.12486512 C1945 0 1945 0 1946 1 C1946 69.97 1946 138.94 1946 210 C1303.82 210 661.64 210 0 210 C0 140.7 0 71.4 0 0 Z " fill="#000000" transform="translate(0,436)"/>
<path d="M0 0 C39.6 0 79.2 0 120 0 C123.37502604 9.00006945 123.37502604 9.00006945 124.4987793 13.61694336 C124.75332886 14.65227203 125.00787842 15.68760071 125.2701416 16.75430298 C125.53548706 17.85503143 125.80083252 18.95575989 126.07421875 20.08984375 C126.35898071 21.25405853 126.64374268 22.41827332 126.93713379 23.61776733 C127.85857243 27.389895 128.77307493 31.16366662 129.6875 34.9375 C130.3242804 37.55191978 130.96257819 40.16596842 131.60083008 42.7800293 C134.18436139 53.36843189 136.75060915 63.96103049 139.3125 74.5546875 C139.47545059 75.22842911 139.63840118 75.90217072 139.80628967 76.59632874 C140.56711688 79.74309913 141.32648499 82.8902096 142.08374023 86.0378418 C143.93705127 93.71343582 145.84563676 101.37314491 147.78515625 109.02734375 C148.28038292 110.98721621 148.77558136 112.9470958 149.27075195 114.90698242 C150.22196902 118.67067973 151.18114676 122.4322165 152.14526367 126.19262695 C156.28596492 142.4739779 159.74445075 158.86181289 161.6875 175.5625 C161.9185031 177.48071914 162.15149082 179.39870061 162.38671875 181.31640625 C162.48170654 182.12537354 162.57669434 182.93434082 162.67456055 183.76782227 C162.98498603 185.89701973 163.43870205 187.92429585 164 190 C164.09498779 189.37359619 164.18997559 188.74719238 164.2878418 188.10180664 C166.75378679 171.96706268 169.66469354 155.97635449 173 140 C173.24008789 138.83436523 173.48017578 137.66873047 173.72753906 136.46777344 C176.67947568 122.15453707 179.84817714 108.01240215 184 94 C184.55303919 92.10314301 185.10505856 90.20598849 185.65625 88.30859375 C186.84890603 84.20716567 188.04589994 80.10704087 189.24609375 76.0078125 C193.08349953 62.88392664 196.80596237 49.72736765 200.5 36.5625 C200.93735474 35.00595703 200.93735474 35.00595703 201.38354492 33.41796875 C202.85792937 28.15166589 204.30532848 22.87989425 205.70703125 17.59375 C206.11308594 16.07092407 206.11308594 16.07092407 206.52734375 14.51733398 C207.03981064 12.58873111 207.54658675 10.65860451 208.046875 8.72680664 C208.38912109 7.44084595 208.38912109 7.44084595 208.73828125 6.12890625 C208.93462158 5.37681885 209.13096191 4.62473145 209.33325195 3.84985352 C210 2 210 2 212 0 C214.12018013 -0.24609566 214.12018013 -0.24609566 216.7961731 -0.24050903 C217.80862091 -0.24325836 218.82106873 -0.24600769 219.86419678 -0.24884033 C221.53654388 -0.2380545 221.53654388 -0.2380545 223.24267578 -0.22705078 C224.4133963 -0.22734283 225.58411682 -0.22763489 226.79031372 -0.22793579 C230.00503797 -0.22677919 233.21958929 -0.21673198 236.43427896 -0.20278788 C239.79218708 -0.19030592 243.15009839 -0.18911203 246.50802612 -0.18673706 C252.86870017 -0.18051481 259.22930566 -0.16409398 265.58994949 -0.14403808 C272.83047724 -0.1217022 280.07100821 -0.11069148 287.31156182 -0.10064721 C302.20774611 -0.07972836 317.10386621 -0.04453797 332 0 C332.31977067 1.57127454 332.63798629 3.1428656 332.95556641 4.71458435 C333.13294342 5.58972907 333.31032043 6.46487379 333.49307251 7.36653805 C334.25838502 11.34229675 334.82541624 15.33730277 335.375 19.34765625 C335.50006424 20.24266846 335.62512848 21.13768066 335.75398254 22.05981445 C336.17233284 25.06029943 336.58622747 28.06138056 337 31.0625 C337.3041048 33.25254721 337.60839133 35.44256918 337.9128418 37.63256836 C338.94754722 45.08760168 339.97461177 52.54368026 341 60 C341.09263374 60.67347473 341.18526749 61.34694946 341.28070831 62.04083252 C343.87309691 80.88986229 346.45343726 99.7405369 349.02999878 118.59173584 C350.56854423 129.84792243 352.10962837 141.10375919 353.65234375 152.359375 C353.8708653 153.95378107 354.08938642 155.5481872 354.3079071 157.14259338 C354.63295522 159.51422721 354.95800664 161.88586058 355.28306484 164.25749302 C360.73854317 204.06098089 360.73854317 204.06098089 362.5390625 217.30078125 C362.65235397 218.13365158 362.76564545 218.96652191 362.88237 219.82463074 C363.3209549 223.04942137 363.75950259 226.27421682 364.19729614 229.49911499 C365.95041097 242.40770403 367.73495783 255.31185569 369.52630615 268.21518326 C370.33740663 274.05987012 371.14698946 279.90476749 371.95669937 285.74964714 C372.76325732 291.5700668 373.57247074 297.39010924 374.38369083 303.20988083 C374.89958488 306.91563533 375.41292982 310.6217402 375.92571068 314.32792664 C376.16376829 316.04477914 376.40282296 317.7614938 376.64306068 319.4780426 C378.66966775 333.96506683 380.32231877 348.46009602 382 363 C344.05 363 306.1 363 267 363 C265.83980728 352.55826555 264.68477329 342.13283451 263.703125 331.67578125 C263.53207748 329.87266731 263.53207748 329.87266731 263.35757446 328.03312683 C263.05088042 324.79791968 262.74543417 321.5625974 262.44033051 318.32723999 C262.11560696 314.88988502 261.78839293 311.45276715 261.46142578 308.015625 C260.23051931 295.06691966 259.00844019 282.11744568 257.80603027 269.1660614 C257.35302011 264.28820331 256.8963634 259.4106882 256.43885803 254.53324986 C256.13070943 251.24522167 255.82519571 247.95700085 255.52355957 244.66836548 C254.10536867 229.21051378 252.42901872 213.81871536 250.3420105 198.43823242 C249.11033069 189.29151917 248.27419596 180.22669402 248 171 C247.83918945 171.86052979 247.67837891 172.72105957 247.51269531 173.60766602 C246.89840977 176.87954711 246.27894787 180.15036781 245.65625 183.4206543 C245.39058195 184.82131882 245.12683036 186.22234855 244.86523438 187.6237793 C243.00965364 197.55470468 240.69952241 207.257715 238 217 C237.33921977 219.47440061 236.6817137 221.94967769 236.02734375 224.42578125 C235.69057617 225.69615234 235.35380859 226.96652344 235.00683594 228.27539062 C234.6503691 229.62108805 234.29392444 230.96679135 233.9375 232.3125 C233.75046509 233.01834229 233.56343018 233.72418457 233.37072754 234.45141602 C230.9464336 243.60288518 228.53700849 252.75812844 226.14453125 261.91796875 C225.90359238 262.83999588 225.6626535 263.76202301 225.41441345 264.71199036 C224.23913995 269.21025239 223.06541202 273.70890807 221.89428711 278.20825195 C219.76499803 286.37229283 217.59366361 294.52040358 215.31640625 302.64453125 C213.63829716 308.63413242 212.07403045 314.62209844 210.6875 320.6875 C207.32513461 334.84071245 203.63500745 348.91434615 200 363 C176.24 363 152.48 363 128 363 C126.04414086 357.13242257 124.2240425 351.3792848 122.6875 345.41015625 C122.37254326 344.20241547 122.37254326 344.20241547 122.05122375 342.97027588 C121.36466278 340.33507506 120.68233685 337.69879742 120 335.0625 C119.51488356 333.19742741 119.02944472 331.33243866 118.54370117 329.4675293 C117.53362759 325.58869057 116.52494443 321.70949397 115.51708984 317.83007812 C114.05669246 312.21285947 112.58672654 306.59818353 111.11328125 300.984375 C110.88005661 300.09565704 110.64683197 299.20693909 110.40653992 298.29129028 C109.94012561 296.51411384 109.47369002 294.73694298 109.00723267 292.95977783 C103.44132072 271.75087829 103.44132072 271.75087829 100.8125 261.4921875 C100.64316452 260.831548 100.47382904 260.17090851 100.29936218 259.49024963 C99.48175978 256.29976498 98.66434621 253.10923195 97.84692383 249.91870117 C95.66667368 241.45758683 93.35791789 233.03811518 91 224.625 C87.97740849 213.81826176 85.20231694 202.96814591 82.5625 192.0625 C82.30206909 190.98986908 82.30206909 190.98986908 82.03637695 189.89556885 C78.97883611 177.27061312 78.97883611 177.27061312 78 171 C77.07408096 173.77775713 76.84034032 175.62609476 76.75390625 178.5078125 C76.70665405 179.84984741 76.70665405 179.84984741 76.65844727 181.21899414 C76.62678467 182.17797607 76.59512207 183.13695801 76.5625 184.125 C76.25045744 192.15312204 75.59567234 199.9805757 74.55517578 207.9465332 C73.83742298 214.01522711 73.50139962 220.10601797 73.1171875 226.203125 C72.19619344 240.13171425 70.8957451 254.00500457 69.45620728 267.88919067 C68.77846815 274.42771057 68.11585169 280.96775654 67.453125 287.5078125 C67.32412308 288.7783699 67.19512115 290.04892731 67.06221008 291.35798645 C65.94426969 302.42548311 64.92811837 313.49956288 64.02563477 324.58666992 C62.95519424 337.43286571 61.42604567 350.16558894 60 363 C21.39 363 -17.22 363 -57 363 C-55.87515624 351.75156235 -55.87515624 351.75156235 -55.18115234 347.3269043 C-55.0265152 346.33173294 -54.87187805 345.33656158 -54.71255493 344.31123352 C-54.54702118 343.26364365 -54.38148743 342.21605377 -54.2109375 341.13671875 C-54.03549408 340.01166428 -53.86005066 338.8866098 -53.67929077 337.72746277 C-53.30838291 335.34969639 -52.93638499 332.97209982 -52.56335449 330.59466553 C-51.83364247 325.93850198 -51.11212531 321.28108616 -50.39064026 316.62364197 C-49.84619303 313.10987763 -49.30059866 309.59629326 -48.75463867 306.08276367 C-44.61642427 279.45515051 -44.61642427 279.45515051 -40.51470947 252.82189941 C-37.46014609 232.8968702 -34.35476647 212.97975426 -31.25 193.0625 C-31.05418209 191.80627586 -31.05418209 191.80627586 -30.85440826 190.52467346 C-28.05967886 172.59649054 -25.26219294 154.66874123 -22.45703125 136.7421875 C-22.25719635 135.46468628 -22.05736145 134.18718506 -21.85147095 132.87097168 C-20.86129037 126.54110254 -19.87028907 120.21136386 -18.87792969 113.88183594 C-16.55955575 99.07808041 -14.27178289 84.26993912 -12.0074749 69.45781517 C-11.11537931 63.62610361 -10.22024708 57.79485709 -9.32525349 51.96358967 C-8.44816017 46.24591952 -7.57649877 40.5274539 -6.70873356 34.80836105 C-6.16749556 31.24960253 -5.62128761 27.69161957 -5.07376289 24.13382339 C-4.81859614 22.46874354 -4.56553846 20.80333894 -4.31471062 19.13759995 C-3.96924404 16.84515922 -3.61637436 14.55397386 -3.26171875 12.26293945 C-3.06537842 10.97482864 -2.86903809 9.68671783 -2.66674805 8.35957336 C-2 5 -2 5 0 0 Z " fill="#000000" transform="translate(73,22)"/>
<path d="M0 0 C2.56464688 0.00314859 5.12812243 -0.02035557 7.69262695 -0.0456543 C22.86415116 -0.10460194 37.76670932 1.61512817 52.33520508 6.00317383 C53.19662109 6.25736084 54.05803711 6.51154785 54.94555664 6.7734375 C87.61359645 16.70644815 114.1641301 34.05819284 138.89770508 57.31567383 C139.58735352 57.9627832 140.27700195 58.60989258 140.98754883 59.27661133 C142.3361784 60.57764221 143.62667927 61.93872921 144.89770508 63.31567383 C144.89770508 63.97567383 144.89770508 64.63567383 144.89770508 65.31567383 C145.55770508 65.31567383 146.21770508 65.31567383 146.89770508 65.31567383 C148.6564427 67.29730701 150.28496494 69.28172252 151.89770508 71.37817383 C152.38319824 72.00361084 152.86869141 72.62904785 153.36889648 73.2734375 C160.63106982 82.74865393 167.44558347 92.68067118 172.89770508 103.31567383 C173.50098633 104.46036133 174.10426758 105.60504883 174.72583008 106.78442383 C188.01048697 132.3303556 196.94839466 160.84885786 197.10083008 189.81176758 C197.10653015 190.68479019 197.11223022 191.55781281 197.11810303 192.45729065 C197.12748041 194.29508278 197.13405778 196.13289117 197.13793945 197.97070312 C197.14757309 200.71556762 197.1786371 203.45965835 197.21020508 206.2043457 C197.48451937 252.10850752 180.1770515 298.7894974 149.89770508 333.31567383 C149.15907227 334.16387695 148.42043945 335.01208008 147.65942383 335.88598633 C145.43815494 338.39498435 143.1816807 340.8637 140.89770508 343.31567383 C140.21321289 344.05430664 139.5287207 344.79293945 138.82348633 345.55395508 C129.42990135 355.32953427 118.50885464 363.37268031 106.89770508 370.31567383 C108.18503212 374.4845648 109.75939765 378.19404688 111.83911133 382.02661133 C112.41902832 383.09967529 112.99894531 384.17273926 113.59643555 385.27832031 C114.21147949 386.40439697 114.82652344 387.53047363 115.46020508 388.69067383 C116.39823975 390.42329468 116.39823975 390.42329468 117.35522461 392.19091797 C121.27460235 399.41005482 125.24198633 406.60179943 129.40771484 413.68237305 C131.01780299 416.46967573 131.89770508 418.03351151 131.89770508 421.31567383 C105.16770508 421.31567383 78.43770508 421.31567383 50.89770508 421.31567383 C42.89770508 405.31567383 42.89770508 405.31567383 40.89770508 399.31567383 C40.34870041 399.47669586 39.79969574 399.6377179 39.23405457 399.80361938 C36.60642949 400.37951229 34.20641642 400.4719745 31.51611328 400.50854492 C29.89579948 400.53263931 29.89579948 400.53263931 28.24275208 400.55722046 C23.22483204 400.60237109 18.20704229 400.6428819 13.18896484 400.66577148 C10.57396425 400.6821383 7.95900462 400.70916331 5.34423828 400.74780273 C-43.50134015 401.46442473 -91.46940052 384.69981292 -126.97338867 350.38989258 C-128.01679325 349.36559677 -129.05975188 348.34084651 -130.10229492 347.31567383 C-131.23888268 346.21788195 -132.37560402 345.12022834 -133.51245117 344.02270508 C-156.13281339 321.9896333 -171.65982097 294.91294521 -182.10229492 265.31567383 C-182.51479492 264.15165039 -182.92729492 262.98762695 -183.35229492 261.78833008 C-190.50211888 240.0874972 -193.23001864 216.10093818 -192.10229492 193.31567383 C-192.06120605 192.46102539 -192.02011719 191.60637695 -191.9777832 190.72583008 C-189.84531989 150.99251995 -177.09188754 112.33801584 -153.10229492 80.31567383 C-152.60294434 79.64568359 -152.10359375 78.97569336 -151.58911133 78.28540039 C-120.6773894 37.37892126 -75.46708907 9.51578004 -24.80541992 1.22192383 C-16.54184057 0.08526073 -8.33190182 -0.02128099 0 0 Z M-45.10229492 128.31567383 C-45.78291992 128.82227539 -46.46354492 129.32887695 -47.16479492 129.85083008 C-63.95094993 143.08346437 -74.18806279 165.98190898 -76.72338867 186.81567383 C-79.24383497 212.98367063 -74.30214472 239.31413892 -57.66479492 260.19067383 C-56.16391207 261.91656127 -54.64361077 263.62579742 -53.10229492 265.31567383 C-52.40491211 266.10586914 -51.7075293 266.89606445 -50.98901367 267.71020508 C-38.9961553 280.58005492 -23.0339038 286.9566611 -6.10229492 290.31567383 C-8.10414524 283.928323 -10.50593428 277.82639849 -13.22729492 271.71411133 C-13.80954834 270.39305893 -13.80954834 270.39305893 -14.40356445 269.0453186 C-15.63269139 266.25874773 -16.8673293 263.47466127 -18.10229492 260.69067383 C-19.33596589 257.89898647 -20.56851403 255.10680518 -21.80102539 252.31460571 C-22.56472179 250.5856489 -23.329318 248.85708917 -24.0949707 247.1289978 C-24.44543457 246.33772491 -24.79589844 245.54645203 -25.15698242 244.73120117 C-25.46104004 244.0455307 -25.76509766 243.35986023 -26.07836914 242.65341187 C-27.43815766 239.54886132 -28.7671898 236.43091912 -30.10229492 233.31567383 C-7.66229492 233.31567383 14.77770508 233.31567383 37.89770508 233.31567383 C38.88770508 236.28567383 39.87770508 239.25567383 40.89770508 242.31567383 C41.63788002 243.94808789 42.42041168 245.56311403 43.27270508 247.13989258 C43.70067383 247.94104492 44.12864258 248.74219727 44.56958008 249.56762695 C45.00786133 250.37135742 45.44614258 251.17508789 45.89770508 252.00317383 C46.77318425 253.63182259 47.64819534 255.26072307 48.52270508 256.88989258 C48.93133789 257.64705566 49.3399707 258.40421875 49.76098633 259.18432617 C51.1933952 261.87009281 52.55596628 264.58364648 53.89770508 267.31567383 C56.95236187 267.64082265 56.95236187 267.64082265 58.87817383 265.62036133 C76.99299735 245.67802463 83.73724653 220.49145125 82.81616211 193.9675293 C81.33333005 169.29168299 70.48087644 146.85430962 52.69067383 129.69848633 C23.85395707 105.09653217 -15.72825108 104.30432549 -45.10229492 128.31567383 Z " fill="#000000" transform="translate(865.102294921875,-0.315673828125)"/>
<path d="M0 0 C16.55753823 14.60726397 16.55753823 14.60726397 20 21.4921875 C20.33 11.9221875 20.66 2.3521875 21 -7.5078125 C59.61 -7.5078125 98.22 -7.5078125 138 -7.5078125 C138.04033135 57.69901642 138.04033135 57.69901642 138.04882812 84.86523438 C138.05078614 91.08390302 138.05280666 97.30257164 138.05493164 103.52124023 C138.05519539 104.30069958 138.05545914 105.08015893 138.05573088 105.88323826 C138.06008575 118.48364151 138.06797262 131.08404023 138.0771528 143.68444078 C138.08648887 156.60613713 138.09205551 169.52783108 138.09408849 182.44953066 C138.09546382 190.42938792 138.09981492 198.40923235 138.10791647 206.38908566 C138.11380401 212.49762794 138.11445908 218.60615907 138.11310768 224.71470451 C138.11338422 227.22826212 138.11539202 229.74182018 138.11920547 232.25537491 C138.12413562 235.67071079 138.12300081 239.0859905 138.12025452 242.50132751 C138.12462378 244.01442809 138.12462378 244.01442809 138.12908131 245.55809635 C138.12709026 246.46577025 138.12509921 247.37344415 138.12304783 248.30862331 C138.12342755 249.09806188 138.12380727 249.88750045 138.1241985 250.70086139 C138 252.4921875 138 252.4921875 137 253.4921875 C135.56018786 253.5899269 134.11561097 253.61850463 132.67248535 253.61917114 C131.27163445 253.62340088 131.27163445 253.62340088 129.84248352 253.62771606 C128.29333504 253.62467972 128.29333504 253.62467972 126.71289062 253.62158203 C125.63170456 253.62333435 124.55051849 253.62508667 123.43656921 253.62689209 C119.84311341 253.63131308 116.24970635 253.62837174 112.65625 253.625 C110.17142731 253.62567297 107.68660469 253.62664293 105.20178223 253.62789917 C99.31686625 253.62956608 93.43196813 253.62605327 87.54705477 253.6207484 C82.84630402 253.61699358 78.14557419 253.61832117 73.44482422 253.62255859 C66.9792571 253.62833787 60.51371029 253.62927203 54.04814148 253.62600327 C51.57606502 253.62533375 49.1039877 253.62616327 46.63191223 253.62848282 C43.18362102 253.63100789 39.73539565 253.6271708 36.28710938 253.62158203 C35.25434372 253.62360626 34.22157806 253.62563049 33.15751648 253.62771606 C32.22361588 253.62489624 31.28971527 253.62207642 30.32751465 253.61917114 C29.51118309 253.61879412 28.69485153 253.61841709 27.85378265 253.61802864 C26 253.4921875 26 253.4921875 25 252.4921875 C24.84019563 250.04609752 24.74070553 247.62487692 24.68359375 245.17578125 C24.66281265 244.44472672 24.64203156 243.71367218 24.62062073 242.96046448 C24.55504976 240.61697094 24.49620568 238.27336211 24.4375 235.9296875 C24.39432192 234.34438895 24.35070787 232.75910221 24.30664062 231.17382812 C24.1993608 227.28006713 24.0981151 223.38618978 24 219.4921875 C23.1037793 220.59191895 23.1037793 220.59191895 22.18945312 221.71386719 C20.99739258 223.17421387 20.99739258 223.17421387 19.78125 224.6640625 C18.99814453 225.6240918 18.21503906 226.58412109 17.40820312 227.57324219 C2.27716953 245.91333117 -18.53779644 261.37879487 -42.8359375 264.24609375 C-65.88813934 266.03904278 -85.46536232 260.21073822 -104 246.4921875 C-104.90298828 245.83089844 -104.90298828 245.83089844 -105.82421875 245.15625 C-109.42329794 242.34122218 -112.34970107 238.97594672 -115.2890625 235.50390625 C-116.31788942 234.2942125 -117.36910133 233.10236123 -118.4609375 231.94921875 C-145.92043547 202.44163668 -152.10678132 154.44473677 -150.890625 116.03808594 C-148.70159095 72.76735039 -138.10623528 31.6309171 -105 1.4921875 C-101.79526416 -1.0814619 -98.49654164 -3.35025657 -95 -5.5078125 C-93.70642578 -6.30832031 -93.70642578 -6.30832031 -92.38671875 -7.125 C-64.77131768 -23.19068919 -24.47373477 -20.45851266 0 0 Z M-34.3125 98.8671875 C-41.34094498 107.55512643 -42.17986936 117.02258973 -42.1875 127.8046875 C-42.19974609 128.70380859 -42.21199219 129.60292969 -42.22460938 130.52929688 C-42.25234883 143.3171844 -38.88914386 151.42567017 -30.1875 160.8046875 C-22.21640591 168.34044877 -13.7646366 169.57329886 -3 169.4921875 C6.957139 168.96576958 13.99529771 166.69588391 20.96484375 159.44921875 C30.25700604 148.34970143 33.14503416 134.68495658 32 120.4921875 C30.37191005 112.50134602 27.41932861 105.32991091 23 98.4921875 C22.443125 97.6053125 21.88625 96.7184375 21.3125 95.8046875 C14.00497935 88.49716685 5.34769558 85.45369493 -4.8125 85.1796875 C-17.51853074 85.42196351 -25.69293243 89.57792922 -34.3125 98.8671875 Z " fill="#000000" transform="translate(1510,145.5078125)"/>
<path d="M0 0 C1.23750708 0.00138269 1.23750708 0.00138269 2.50001431 0.00279331 C3.44377422 0.00141865 4.38753414 0.00004398 5.35989285 -0.00137234 C6.40358028 0.00222294 7.44726772 0.00581821 8.52258205 0.00952244 C9.61512798 0.00937641 10.70767391 0.00923038 11.83332729 0.00907993 C15.46405899 0.00977961 19.09474012 0.01757454 22.72546291 0.02539158 C25.2351011 0.02725557 27.74473964 0.02867956 30.25437832 0.0296793 C36.1971526 0.03311435 42.1399105 0.0410051 48.08267635 0.05102879 C55.50982591 0.0632853 62.93697771 0.06866991 70.36413479 0.0742197 C83.6187014 0.08495972 96.87325287 0.101847 110.12780666 0.12304783 C110.13019502 0.87088378 110.13258337 1.61871973 110.1350441 2.38921738 C110.1941736 20.58360366 110.26971051 38.77785405 110.36352158 56.97209549 C110.408492 65.77069177 110.44790377 74.56924746 110.47424221 83.36792088 C110.49721221 91.0366219 110.53059902 98.70519462 110.57650822 106.3737939 C110.60045398 110.4344796 110.61917386 114.49503811 110.62542057 118.55579281 C110.63146536 122.37831008 110.65144298 126.20050186 110.68208218 130.02289867 C110.69087217 131.4253129 110.69458298 132.82776965 110.69281483 134.2302103 C110.6911617 136.14652783 110.70963047 138.06283109 110.72907925 139.97905064 C110.73368821 141.05109588 110.73829718 142.12314112 110.74304581 143.22767258 C111.18218421 146.5322459 112.28886902 148.37748179 114.12780666 151.12304783 C114.41655666 152.00992283 114.70530666 152.89679783 115.00280666 153.81054783 C115.9461533 156.33801788 115.9461533 156.33801788 118.56530666 157.37304783 C119.83374416 157.74429783 119.83374416 157.74429783 121.12780666 158.12304783 C122.11780666 158.45304783 123.10780666 158.78304783 124.12780666 159.12304783 C133.89829309 159.98862866 133.89829309 159.98862866 143.25280666 157.74804783 C149.54995447 151.9984781 151.86763103 144.58135555 152.26647186 136.21394634 C152.27292441 135.1944433 152.27937696 134.17494026 152.28602505 133.12454319 C152.29581387 131.94672779 152.30560268 130.76891239 152.31568813 129.55540562 C152.3214436 128.27722462 152.32719906 126.99904362 152.33312893 125.68212986 C152.34271728 124.3118012 152.35272791 122.94147543 152.36312771 121.57115269 C152.39007919 117.86296717 152.41114134 114.15476906 152.43112969 110.44654036 C152.45304969 106.56678492 152.48040886 102.68706789 152.50718594 98.80734348 C152.55703171 91.46583433 152.60200053 84.12430377 152.6452083 76.78275287 C152.70389971 66.85836422 152.77014283 56.93402614 152.83595848 47.00968266 C152.93940617 31.38083849 153.0327797 15.75195071 153.12780666 0.12304783 C189.42780666 0.12304783 225.72780666 0.12304783 263.12780666 0.12304783 C263.24871577 38.86769806 263.24871577 38.86769806 263.27429104 55.27539158 C263.29199709 66.54317479 263.31265314 77.81089005 263.35412502 89.07861423 C263.38433244 97.28985347 263.40345271 105.50103684 263.41007215 113.7123301 C263.41393226 118.04710875 263.42278964 122.38172781 263.44499683 126.71645451 C263.64950333 168.29606052 263.07150084 212.82075922 231.92077541 244.35742283 C230.04238781 246.03204057 228.12596746 247.59430942 226.12780666 249.12304783 C225.5180801 249.61804783 224.90835354 250.11304783 224.28015041 250.62304783 C190.69303356 277.10652395 142.64642431 279.19724037 101.80358791 274.87695408 C75.95600572 271.71003508 49.5642682 262.9952736 30.12780666 245.12304783 C29.49874416 244.58550877 28.86968166 244.0479697 28.22155666 243.49414158 C4.8212159 222.27428711 -1.20043542 185.09618166 -2.77668428 155.2756536 C-3.04137543 149.30998159 -3.01088738 143.33952296 -3.00158787 137.36938572 C-3.0029477 135.87112988 -3.00473086 134.37287437 -3.00689793 132.87461948 C-3.01139723 128.86322251 -3.00971572 124.85185168 -3.00651884 120.84045434 C-3.00396303 116.62625614 -3.00634101 112.41205997 -3.00790501 108.19786167 C-3.00971438 101.14175106 -3.00734978 94.08565098 -3.00256443 87.02954197 C-2.99709244 78.8665245 -2.99891054 70.7035319 -3.00439084 62.54051501 C-3.00891952 55.51348121 -3.00957468 48.48645492 -3.00695217 41.45942014 C-3.0053921 37.26944726 -3.00518891 33.07948611 -3.00848866 28.88951397 C-3.01136485 24.9651576 -3.00939643 21.04083367 -3.0035944 17.11648083 C-3.0022668 15.67364907 -3.00266092 14.2308146 -3.00485706 12.78798389 C-3.00756772 10.8273716 -3.0035745 8.86675338 -2.99917698 6.90614414 C-2.99879995 5.80694676 -2.99842293 4.70774939 -2.99803448 3.575243 C-2.82408613 0.18560993 -2.82408613 0.18560993 0 0 Z " fill="#000000" transform="translate(1080.8721933364868,133.87695217132568)"/>
<path d="M0 0 C13.26459209 -0.04626195 26.52916512 -0.08183788 39.79382133 -0.10362434 C45.95258297 -0.1140787 52.11128957 -0.12826797 58.27001953 -0.15087891 C64.20924549 -0.17254846 70.14841839 -0.18455617 76.08768082 -0.18975449 C78.35798097 -0.19346086 80.62827809 -0.20069805 82.89855576 -0.21146011 C86.06899124 -0.22589677 89.23920511 -0.22798123 92.40966797 -0.22705078 C93.35625275 -0.23424133 94.30283752 -0.24143188 95.27810669 -0.24884033 C96.13909973 -0.246091 97.00009277 -0.24334167 97.88717651 -0.24050903 C98.637516 -0.24235262 99.38785549 -0.24419621 100.16093254 -0.24609566 C102 0 102 0 104 2 C104.89417208 4.38134894 105.70309526 6.74144546 106.46875 9.1640625 C106.70497574 9.89517242 106.94120148 10.62628235 107.18458557 11.37954712 C107.96242839 13.79280354 108.73127371 16.20882562 109.5 18.625 C110.04181733 20.31230908 110.58405846 21.99948213 111.12670898 23.68652344 C114.70340738 34.82984208 118.19700699 45.9985846 121.65960693 57.17779541 C126.52340219 72.86779398 131.74695018 88.43674739 137 104 C140.51695289 103.30180665 143.13524523 102.17419131 146 100 C148.79195681 95.27527084 150.43716037 90.17397241 152.1875 85 C152.72753563 83.48582959 153.27130963 81.97298786 153.81860352 80.46142578 C154.96844126 77.28078443 156.10408229 74.09555165 157.23242188 70.90722656 C159.83955529 63.60179876 162.69276736 56.3920443 165.53286743 49.17480469 C166.96523151 45.53337308 168.38835294 41.88836232 169.80859375 38.2421875 C170.07466431 37.55921097 170.34073486 36.87623444 170.61486816 36.17256165 C173.00822985 30.01154084 175.33441737 23.82606111 177.64355469 17.63305664 C183.76654155 1.23345845 183.76654155 1.23345845 185 0 C186.36608326 -0.09535213 187.73705455 -0.1218867 189.10646057 -0.12025452 C189.99132141 -0.12162918 190.87618225 -0.12300385 191.78785706 -0.12442017 C193.25520546 -0.11902725 193.25520546 -0.11902725 194.75219727 -0.11352539 C195.7764682 -0.11367142 196.80073914 -0.11381744 197.85604858 -0.1139679 C201.25952229 -0.11326828 204.66294204 -0.10547363 208.06640625 -0.09765625 C210.41910268 -0.09579224 212.7717995 -0.09436826 215.12449646 -0.09336853 C221.33056705 -0.08954199 227.5366144 -0.07971055 233.74267578 -0.06866455 C240.06998378 -0.05845334 246.39729552 -0.05387154 252.72460938 -0.04882812 C265.14974982 -0.0380884 277.57487298 -0.02101036 290 0 C289.37763285 4.42503044 288.24706593 7.67197388 286.1574707 11.6340332 C284.83239812 14.34259225 283.78383663 17.09257602 282.73046875 19.91796875 C280.0510696 26.95889443 277.08872385 33.85240747 274.0625 40.75 C272.91200597 43.38582485 271.76427484 46.02284728 270.6171875 48.66015625 C270.3225914 49.33714066 270.0279953 50.01412506 269.72447205 50.71162415 C266.33265685 58.51728415 263.00666792 66.35073176 259.6875 74.1875 C259.38978699 74.8902002 259.09207397 75.59290039 258.78533936 76.31689453 C255.09332959 85.03341804 251.4164713 93.75626938 247.74902344 102.4831543 C244.34946321 110.56296804 240.88887276 118.61647561 237.4296875 126.67089844 C234.43043899 133.6548043 231.43314154 140.63954624 228.4375 147.625 C228.10883942 148.3913678 227.78017883 149.1577356 227.44155884 149.94732666 C223.49954339 159.14143037 219.57413202 168.34173137 215.70581055 177.56713867 C211.85918959 186.73504021 207.92400888 195.86502761 204 205 C197.6116718 219.87471786 191.24383714 234.75732109 184.94726562 249.67114258 C181.66177983 257.44906392 178.34525031 265.21319731 175.0090332 272.96948242 C172.57696484 278.63016759 170.19651862 284.3085584 167.875 290.015625 C167 292 167 292 166 293 C164.43112365 293.09591199 162.85792208 293.12187996 161.28611755 293.12025452 C160.26663025 293.12162918 159.24714294 293.12300385 158.19676208 293.12442017 C157.068918 293.12082489 155.94107391 293.11722961 154.77905273 293.11352539 C153.59872467 293.11367142 152.41839661 293.11381744 151.20230103 293.1139679 C147.95657892 293.11338895 144.71089945 293.10835986 141.46518588 293.10139394 C138.07656968 293.09515962 134.68795272 293.09455654 131.29933167 293.09336853 C124.87844196 293.09025544 118.45756919 293.08204236 112.03668696 293.07201904 C104.72846175 293.0608572 97.42023576 293.05534727 90.11200416 293.05032361 C75.07465998 293.03985973 60.03733168 293.02226073 45 293 C45.67162443 289.3713804 46.56267906 286.55378171 48.30078125 283.2890625 C48.77717041 282.38583252 49.25355957 281.48260254 49.74438477 280.55200195 C50.26186279 279.58609131 50.77934082 278.62018066 51.3125 277.625 C52.41171017 275.54831037 53.51066128 273.47148359 54.609375 271.39453125 C55.17333984 270.33314941 55.73730469 269.27176758 56.31835938 268.17822266 C58.42810234 264.19090646 60.50256198 260.18586743 62.57666016 256.17993164 C67.340813 246.98588379 72.2105922 237.86043313 77.26000977 228.81958008 C78.52118006 226.55404106 79.76105286 224.27775295 81 222 C81.48227051 221.14744629 81.96454102 220.29489258 82.46142578 219.41650391 C85.22262078 214.4071414 85.22262078 214.4071414 86.015625 208.84765625 C84.74971591 205.29824193 83.32938411 201.85589871 81.75 198.4375 C79.57405853 193.60421897 77.47999849 188.78078266 75.625 183.8125 C73.54355148 178.27746229 71.24882412 172.8531698 68.90234375 167.42578125 C64.17353013 156.43940442 59.5454059 145.41251894 54.9375 134.375 C53.42616459 130.75765225 51.91434114 127.1405086 50.40234375 123.5234375 C49.85173027 122.2061541 49.85173027 122.2061541 49.28999329 120.86225891 C46.76488552 114.82342322 44.23363253 108.78720053 41.6953125 102.75390625 C41.22574379 101.6368782 41.22574379 101.6368782 40.74668884 100.49728394 C38.50483562 95.17357948 36.22645801 89.8661002 33.9375 84.5625 C28.02958349 70.83493189 22.32904725 57.01991661 16.58996582 43.22120667 C14.21712757 37.51769998 11.83455292 31.81837814 9.4375 26.125 C9.13513428 25.40481689 8.83276855 24.68463379 8.52124023 23.94262695 C7.1065725 20.58264202 5.66829596 17.23548579 4.19140625 13.90234375 C3.90531494 13.25185059 3.61922363 12.60135742 3.32446289 11.93115234 C2.56640452 10.21300642 1.79925859 8.49887755 1.03125 6.78515625 C0 4 0 4 0 0 Z " fill="#000000" transform="translate(1657,135)"/>
<path d="M0 0 C0 35.31 0 70.62 0 107 C-2.31 105.02 -4.62 103.04 -7 101 C-12.32361974 96.97439627 -17.57687345 93.85240339 -24 92 C-25.00289062 91.70996094 -26.00578125 91.41992188 -27.0390625 91.12109375 C-37.15167611 88.4804464 -45.08778471 88.18260078 -54.41015625 93.29296875 C-61.08874621 97.69499562 -68.70343088 103.34242508 -71.46875 111.140625 C-74.04342403 124.99842936 -72.09411483 135.00153538 -65 147 C-65 147.66 -65 148.32 -65 149 C-64.41734375 149.2784375 -63.8346875 149.556875 -63.234375 149.84375 C-61.11752193 150.93918445 -59.22090381 152.16434618 -57.25 153.5 C-48.94383815 158.67608247 -39.43684582 159.3022044 -29.94921875 157.3828125 C-19.41075968 154.29371814 -11.47744202 147.6255593 -3.55859375 140.25 C-2 139 -2 139 0 139 C0 173.32 0 207.64 0 243 C-29.17289958 259.20716643 -63.84727725 266.47738579 -96.76171875 258.03515625 C-114.81582459 252.43215789 -131.36756551 243.09146486 -145 230 C-145.81210937 229.25105469 -146.62421875 228.50210938 -147.4609375 227.73046875 C-170.85795051 205.47747372 -186.84225036 169.07715356 -188.125 136.8605957 C-189.07817504 93.71453164 -177.75821833 54.84249894 -148.4921875 22.203125 C-143.12348972 16.64929972 -137.54681216 12.08340707 -131 8 C-130.34386719 7.5860498 -129.68773437 7.17209961 -129.01171875 6.74560547 C-88.54913425 -18.54350984 -43.6453544 -17.45814176 0 0 Z " fill="#000000" transform="translate(650,133)"/>
<path d="M0 0 C8.45559528 4.21342866 8.45559528 4.21342866 11.24267578 8.68066406 C11.57267578 6.04066406 11.90267578 3.40066406 12.24267578 0.68066406 C18.18267578 0.68066406 24.12267578 0.68066406 30.24267578 0.68066406 C30.31069523 9.63481458 30.36563161 18.58879097 30.3981123 27.54314232 C30.41370844 31.70187422 30.43483475 35.86041882 30.46899414 40.01904297 C30.50180528 44.03909752 30.5195742 48.05897293 30.52730751 52.07915115 C30.53281227 53.60601238 30.54356079 55.13286481 30.55986595 56.6596489 C30.7610308 76.29320939 30.7610308 76.29320939 25.05517578 84.05566406 C21.66895683 87.21613508 18.49364899 88.93528273 14.24267578 90.68066406 C13.27587891 91.13119141 13.27587891 91.13119141 12.28955078 91.59082031 C2.26278602 95.70485547 -10.16071507 94.84465423 -20.12451172 91.01660156 C-25.28031603 88.4004516 -29.37520803 85.09936739 -32.25732422 80.05566406 C-32.78865522 77.53184179 -32.79149956 75.25235863 -32.75732422 72.68066406 C-29.6933397 72.54535562 -26.63535296 72.44642337 -23.56982422 72.36816406 C-22.70550781 72.32626953 -21.84119141 72.284375 -20.95068359 72.24121094 C-16.32399806 72.15257712 -14.42958534 72.13923993 -10.70654297 75.13769531 C-10.06330078 75.976875 -9.42005859 76.81605469 -8.75732422 77.68066406 C-7.62030825 79.04598955 -7.62030825 79.04598955 -4.59716797 78.77832031 C-3.30939453 78.76671875 -2.02162109 78.75511719 -0.69482422 78.74316406 C0.59552734 78.73414063 1.88587891 78.72511719 3.21533203 78.71582031 C4.21435547 78.70421875 5.21337891 78.69261719 6.24267578 78.68066406 C6.88205078 77.56691406 7.52142578 76.45316406 8.18017578 75.30566406 C8.53982422 74.67917969 8.89947266 74.05269531 9.27001953 73.40722656 C11.33710428 69.7379436 11.34684001 67.30541518 11.30517578 63.05566406 C11.29615234 61.86714844 11.28712891 60.67863281 11.27783203 59.45410156 C11.26623047 58.53886719 11.25462891 57.62363281 11.24267578 56.68066406 C10.62392578 57.42316406 10.00517578 58.16566406 9.36767578 58.93066406 C2.94475325 65.22799873 -5.04404578 66.12489224 -13.67919922 66.11425781 C-19.50707108 65.29332662 -23.5561647 62.32432413 -27.88232422 58.49316406 C-28.70990234 57.77773438 -29.53748047 57.06230469 -30.39013672 56.32519531 C-36.777359 49.18963511 -37.36826042 42.6824083 -37.19482422 33.30566406 C-37.20545898 31.69691406 -37.20545898 31.69691406 -37.21630859 30.05566406 C-37.13783676 20.13199499 -35.7858141 11.71428259 -28.69091797 4.44238281 C-20.02493887 -3.45328704 -10.89588207 -5.02116944 0 0 Z " fill="#FAFAFA" transform="translate(1872.75732421875,533.3193359375)"/>
<path d="M0 0 C8.58 0 17.16 0 26 0 C27.32 3.63 28.64 7.26 30 11 C30.94517834 13.38026588 31.90208905 15.75593435 32.875 18.125 C35.09817918 23.59443315 37.12972114 29.10917983 39.0625 34.6875 C41.11213949 40.59719448 43.33923403 46.38017921 45.79296875 52.13671875 C49.71806425 61.44770581 53.11840366 70.97775696 56.58935547 80.46508789 C56.87311035 81.23973389 57.15686523 82.01437988 57.44921875 82.8125 C57.85019775 83.90884766 57.85019775 83.90884766 58.25927734 85.02734375 C58.87144523 86.65763925 59.5329117 88.26933012 60.20703125 89.875 C61 92 61 92 61 95 C57.39610336 95.11601004 53.79268533 95.18718408 50.1875 95.25 C49.16333984 95.28351563 48.13917969 95.31703125 47.08398438 95.3515625 C46.10107422 95.36445312 45.11816406 95.37734375 44.10546875 95.390625 C43.19949951 95.41157227 42.29353027 95.43251953 41.36010742 95.45410156 C39 95 39 95 37.26538086 93.17333984 C35.61696649 90.34212535 34.50589155 87.44852735 33.375 84.375 C31.83838693 80.12204865 31.83838693 80.12204865 30 76 C11.685 75.505 11.685 75.505 -7 75 C-7.33 77.31 -7.66 79.62 -8 82 C-8.61318695 84.14104442 -9.27823313 86.26807759 -10 88.375 C-10.5259375 89.93347656 -10.5259375 89.93347656 -11.0625 91.5234375 C-12 94 -12 94 -13 95 C-14.4887186 95.08669432 -15.981445 95.10703494 -17.47265625 95.09765625 C-18.37177734 95.09443359 -19.27089844 95.09121094 -20.19726562 95.08789062 C-21.61555664 95.07532227 -21.61555664 95.07532227 -23.0625 95.0625 C-24.01189453 95.05798828 -24.96128906 95.05347656 -25.93945312 95.04882812 C-28.29303065 95.0370011 -30.64648477 95.02052025 -33 95 C-31.7965911 88.7120261 -29.9900344 82.97753234 -27.5625 77.0625 C-25.35321362 71.54381592 -23.24534798 66.08622606 -21.703125 60.3359375 C-20.87424418 57.58221121 -19.85519111 54.9132961 -18.83398438 52.22607422 C-17.3630228 48.29977808 -16.00141471 44.33521074 -14.625 40.375 C-14.00419929 38.59625187 -13.38310442 36.81760637 -12.76171875 35.0390625 C-12.46056152 34.17700195 -12.1594043 33.31494141 -11.84912109 32.42675781 C-8.04707883 21.56065657 -4.06272278 10.77093947 0 0 Z " fill="#F9F9F9" transform="translate(865,502)"/>
<path d="M0 0 C5.94 0 11.88 0 18 0 C18 33 18 66 18 100 C12.06 100 6.12 100 0 100 C-0.33 98.02 -0.66 96.04 -1 94 C-1.45890625 94.40992188 -1.9178125 94.81984375 -2.390625 95.2421875 C-3.00421875 95.78101563 -3.6178125 96.31984375 -4.25 96.875 C-4.85328125 97.40867187 -5.4565625 97.94234375 -6.078125 98.4921875 C-10.90094069 102.27594127 -14.89989224 102.36534716 -20.875 102.375 C-21.66519531 102.39949219 -22.45539063 102.42398438 -23.26953125 102.44921875 C-29.97048715 102.48266778 -33.33510123 100.32795755 -38.37890625 95.921875 C-39.45978516 94.84679687 -39.45978516 94.84679687 -40.5625 93.75 C-41.28566406 93.04359375 -42.00882813 92.3371875 -42.75390625 91.609375 C-49.07486584 84.26606891 -50.84644996 79.01288897 -50.625 69.25 C-50.60808105 68.18322021 -50.59116211 67.11644043 -50.57373047 66.01733398 C-50.20971754 54.94541507 -48.14842127 47.6007856 -39.9375 39.875 C-31.81765833 33.0438235 -24.46308758 33.05325389 -14.16601562 33.70556641 C-9.65698604 34.31849356 -6.70734941 36.45429523 -4 40 C-3.01 41.65 -2.02 43.3 -1 45 C-0.67 30.15 -0.34 15.3 0 0 Z " fill="#F9F9F9" transform="translate(1399,497)"/>
<path d="M0 0 C6.46666117 5.28751949 10.40920598 11.78621168 13.03515625 19.6640625 C13.89431112 29.57955472 13.01042799 38.20489758 7.046875 46.39453125 C0.87145731 53.61518371 -6.36032252 59.83989385 -16.15893555 60.90185547 C-26.195209 61.45576281 -35.58327944 61.92519122 -43.96484375 55.6640625 C-44.90457031 55.04724609 -44.90457031 55.04724609 -45.86328125 54.41796875 C-52.10140282 49.82790987 -57.73258436 41.36958326 -58.96484375 33.6640625 C-59.03032867 32.08194677 -59.05062756 30.49736169 -59.02734375 28.9140625 C-59.01832031 28.11484375 -59.00929688 27.315625 -59 26.4921875 C-58.98839844 25.88890625 -58.97679687 25.285625 -58.96484375 24.6640625 C-58.30484375 24.6640625 -57.64484375 24.6640625 -56.96484375 24.6640625 C-57.11953125 23.0553125 -57.11953125 23.0553125 -57.27734375 21.4140625 C-57.24061629 14.52154221 -54.53045696 7.78184029 -50.16796875 2.48046875 C-36.29788941 -10.41870503 -15.15503466 -10.85175321 0 0 Z " fill="#F9F9F9" transform="translate(1239.96484375,538.3359375)"/>
<path d="M0 0 C1.06951904 0.00845947 1.06951904 0.00845947 2.16064453 0.01708984 C7.74365739 0.14550804 12.26048172 0.83178266 17.25 3.3125 C18.09175781 3.72628906 18.93351562 4.14007812 19.80078125 4.56640625 C27.06457179 8.51575607 31.97530183 13.68445887 35.25 21.3125 C35.69919422 25.17557029 35.62030042 29.05094917 35.625 32.9375 C35.64949219 33.98035156 35.67398437 35.02320313 35.69921875 36.09765625 C35.73058349 44.47204098 33.98552529 51.06771938 29.4375 58.125 C22.0195367 65.5429633 13.86626281 68.67195226 3.38476562 68.77148438 C2.49466797 68.76439453 1.60457031 68.75730469 0.6875 68.75 C-0.20646484 68.76998047 -1.10042969 68.78996094 -2.02148438 68.81054688 C-11.66151721 68.80349491 -17.68427959 64.96675678 -24.6328125 58.53515625 C-33.41030063 49.32041318 -34.30546721 41.26782625 -34.08984375 29.0390625 C-33.68831874 20.56538541 -29.84399553 14.52151551 -23.7109375 8.84375 C-20.3099814 6.18802333 -16.6456338 4.15019298 -12.75 2.3125 C-11.61691406 1.75949219 -11.61691406 1.75949219 -10.4609375 1.1953125 C-6.96168181 0.05578543 -3.6417357 -0.02994145 0 0 Z " fill="#F9F9F9" transform="translate(1583.75,530.6875)"/>
<path d="M0 0 C8.97575436 7.04527061 15.90612756 18.54101447 17.53808594 29.84619141 C17.70581628 33.12288808 17.70878213 36.35295471 17.63671875 39.6328125 C17.64767578 40.71820313 17.65863281 41.80359375 17.66992188 42.921875 C17.56479299 54.66827591 14.1884213 64.3337914 7.07421875 73.6328125 C6.66945313 74.22449219 6.2646875 74.81617187 5.84765625 75.42578125 C-1.01566741 84.62600346 -12.79694744 90.76384804 -23.92578125 92.6328125 C-24.69792969 92.79523438 -25.47007813 92.95765625 -26.265625 93.125 C-40.51236056 95.44809498 -55.07524343 89.86243213 -66.55078125 81.78515625 C-75.99807999 74.01347637 -82.33843232 62.55165027 -84.92578125 50.6328125 C-85.17016898 47.26100233 -85.15689964 43.8876207 -85.17578125 40.5078125 C-85.19640625 39.60804687 -85.21703125 38.70828125 -85.23828125 37.78125 C-85.31553824 24.33853357 -79.9230014 13.3296509 -70.8984375 3.51171875 C-64.49630174 -2.58615709 -57.30976333 -6.667491 -48.92578125 -9.3671875 C-48.23226563 -9.59277344 -47.53875 -9.81835938 -46.82421875 -10.05078125 C-29.75380893 -14.68600489 -13.98782701 -9.93050599 0 0 Z M-64.16796875 16.33984375 C-70.8336642 25.03487315 -72.87824728 34.82307893 -71.92578125 45.6328125 C-69.82283597 57.27853466 -63.52869386 66.80609738 -53.92578125 73.6328125 C-43.89737658 79.76891399 -32.90048809 80.91990355 -21.484375 78.41796875 C-10.86087491 75.15793285 -2.51098308 67.86166485 2.8203125 58.23046875 C7.1640018 49.23186007 8.81322525 40.04632793 6.16015625 30.26171875 C2.00570849 18.66946936 -4.87464279 9.19258411 -15.92578125 3.3203125 C-34.30373428 -5.02678897 -51.53888674 1.55638892 -64.16796875 16.33984375 Z " fill="#000000" transform="translate(1982.92578125,15.3671875)"/>
<path d="M0 0 C1.13872559 0.00064453 2.27745117 0.00128906 3.45068359 0.00195312 C13.44251195 0.17623737 22.26761458 2.11489933 31.625 5.5 C32.63578436 9.52805112 32.60111983 12.99696957 32.25 17.125 C32.15976563 18.25164063 32.06953125 19.37828125 31.9765625 20.5390625 C31.625 23.5 31.625 23.5 30.625 26.5 C28.50415128 25.51532024 26.72429343 24.58458329 24.9375 23.0625 C22.00302011 21.07974332 19.01549985 20.18875909 15.6484375 19.1484375 C13.625 18.5 13.625 18.5 11.625 17.5 C9.60603136 17.4037238 7.5837571 17.37018175 5.5625 17.375 C4.47839844 17.37242187 3.39429688 17.36984375 2.27734375 17.3671875 C-0.29743398 17.19881436 -0.29743398 17.19881436 -1.375 18.5 C-2.74461911 18.79684878 -4.1210738 19.06242355 -5.5 19.3125 C-12.38051427 20.83908003 -16.55179592 22.92787101 -20.625 28.8125 C-21.56181487 30.36300376 -22.48031417 31.92481071 -23.375 33.5 C-23.99375 34.53125 -24.6125 35.5625 -25.25 36.625 C-28.58499119 45.11048054 -27.2380074 57.96577219 -24.375 66.5 C-21.43447663 71.97707707 -17.07377035 76.8598917 -11.375 79.5 C-8.46497552 80.22452046 -5.60358664 80.73588738 -2.6328125 81.140625 C-0.375 81.5 -0.375 81.5 0.625 82.5 C6.59211281 83.03482445 10.55871545 81.61129804 15.8125 79.125 C16.51052734 78.80789063 17.20855469 78.49078125 17.92773438 78.1640625 C20.63246808 76.92878926 23.30146552 75.67247848 25.92578125 74.2734375 C27.625 73.5 27.625 73.5 30.625 73.5 C30.625 80.1 30.625 86.7 30.625 93.5 C27.63020833 94.4765625 24.63541667 95.453125 21.640625 96.4296875 C18.75452586 97.35791497 18.75452586 97.35791497 16.76269531 98.54589844 C8.10895877 102.40825595 -7.44345705 100.63733287 -16.375 97.875 C-21.32790012 95.80707382 -25.35619876 93.02455351 -29.375 89.5 C-30.138125 88.86707031 -30.90125 88.23414063 -31.6875 87.58203125 C-40.62840166 79.97932375 -46.61096324 71.36564346 -48.375 59.5 C-49.62192565 43.19644719 -47.56202237 28.90650586 -37.375 15.5 C-27.25957564 4.57019826 -14.60855534 -0.07694338 0 0 Z " fill="#F8F8F8" transform="translate(1134.375,499.5)"/>
<path d="M0 0 C1.24523438 0.02707031 2.49046875 0.05414062 3.7734375 0.08203125 C4.71445313 0.11683594 5.65546875 0.15164063 6.625 0.1875 C7.12 1.1775 7.12 1.1775 7.625 2.1875 C8.87137472 2.84063458 10.14762809 3.43762542 11.4375 4 C15.23101887 5.85943501 17.45953727 7.43958374 19.625 11.1875 C21.7156442 17.78145743 21.89410557 24.2679869 21.8203125 31.12890625 C21.8174826 32.13718979 21.81465271 33.14547333 21.81173706 34.18431091 C21.80063177 37.37299983 21.77554545 40.56139741 21.75 43.75 C21.73995772 45.92512612 21.73083406 48.10025669 21.72265625 50.27539062 C21.70072411 55.57953762 21.66626168 60.88346959 21.625 66.1875 C15.685 66.1875 9.745 66.1875 3.625 66.1875 C3.57601563 63.77695312 3.52703125 61.36640625 3.4765625 58.8828125 C3.42236215 56.51621954 3.36513009 54.14971764 3.30761719 51.78320312 C3.26962489 50.15404201 3.2347235 48.52480548 3.203125 46.89550781 C3.85191132 32.38504442 3.85191132 32.38504442 -0.8293457 19.47558594 C-4.43611633 16.4698488 -9.47630269 16.7962744 -13.96484375 16.8359375 C-16.6687002 17.03414606 -16.6687002 17.03414606 -19.375 19.4375 C-24.1436056 25.99433271 -24.50393922 32.21599668 -24.69140625 40.2109375 C-24.71218735 40.95711334 -24.73296844 41.70328918 -24.75437927 42.47207642 C-24.8193123 44.83546508 -24.87849571 47.19895664 -24.9375 49.5625 C-24.98073884 51.17318735 -25.02435477 52.78386463 -25.06835938 54.39453125 C-25.17563896 58.32541734 -25.27512858 62.2563909 -25.375 66.1875 C-31.645 66.1875 -37.915 66.1875 -44.375 66.1875 C-44.375 45.0675 -44.375 23.9475 -44.375 2.1875 C-38.105 2.1875 -31.835 2.1875 -25.375 2.1875 C-25.045 4.8275 -24.715 7.4675 -24.375 10.1875 C-23.65054687 9.71699219 -22.92609375 9.24648438 -22.1796875 8.76171875 C-21.21289062 8.13910156 -20.24609375 7.51648438 -19.25 6.875 C-18.29867188 6.26011719 -17.34734375 5.64523437 -16.3671875 5.01171875 C-10.5890969 1.48904471 -6.87815695 -0.19466482 0 0 Z " fill="#F6F6F6" transform="translate(1312.375,530.8125)"/>
<path d="M0 0 C5.75744014 2.28435747 9.37584931 5.36534043 12.1015625 10.91210938 C14.53416 16.54801262 14.5101015 21.75588814 14.390625 27.81640625 C14.38496521 28.91347397 14.37930542 30.01054169 14.37347412 31.14085388 C14.35123774 34.61519606 14.30106382 38.08847407 14.25 41.5625 C14.2299186 43.93032356 14.21167072 46.29816342 14.1953125 48.66601562 C14.15141448 54.44441505 14.08247449 60.22202764 14 66 C8.06 66 2.12 66 -4 66 C-4.04898437 63.421875 -4.09796875 60.84375 -4.1484375 58.1875 C-4.20256953 55.66872752 -4.25982878 53.15004399 -4.31738281 50.63134766 C-4.35547915 48.89150724 -4.39036447 47.15159324 -4.421875 45.41162109 C-4.46794901 42.89914795 -4.5258695 40.387173 -4.5859375 37.875 C-4.59748871 37.10696045 -4.60903992 36.3389209 -4.62094116 35.54760742 C-4.79044344 29.23349735 -5.41949944 23.37075084 -9 18 C-14.18469685 16.27176772 -19.71777246 16.2929193 -24.9375 18 C-28.49230466 20.32150508 -28.76377767 21.70305328 -29.63568115 25.72583008 C-30.24245901 29.51349016 -30.35804978 33.26339811 -30.4140625 37.09375 C-30.43342865 37.92588013 -30.4527948 38.75801025 -30.4727478 39.61535645 C-30.53198326 42.24347042 -30.5787021 44.87162956 -30.625 47.5 C-30.6632315 49.29428873 -30.70228615 51.08856013 -30.7421875 52.8828125 C-30.83917012 57.25511224 -30.91918074 61.6272529 -31 66 C-37.27 66 -43.54 66 -50 66 C-50 44.88 -50 23.76 -50 2 C-43.73 2 -37.46 2 -31 2 C-31 4.64 -31 7.28 -31 10 C-30.37351562 9.6390625 -29.74703125 9.278125 -29.1015625 8.90625 C-28.28429688 8.4421875 -27.46703125 7.978125 -26.625 7.5 C-25.81289062 7.0359375 -25.00078125 6.571875 -24.1640625 6.09375 C-22 5 -22 5 -20 5 C-19.71125 4.360625 -19.4225 3.72125 -19.125 3.0625 C-16.1625311 -2.36869299 -5.43484454 -0.83971276 0 0 Z " fill="#F6F6F6" transform="translate(1687,531)"/>
<path d="M0 0 C5.75744014 2.28435747 9.37584931 5.36534043 12.1015625 10.91210938 C14.53416 16.54801262 14.5101015 21.75588814 14.390625 27.81640625 C14.38496521 28.91347397 14.37930542 30.01054169 14.37347412 31.14085388 C14.35123774 34.61519606 14.30106382 38.08847407 14.25 41.5625 C14.2299186 43.93032356 14.21167072 46.29816342 14.1953125 48.66601562 C14.15141448 54.44441505 14.08247449 60.22202764 14 66 C8.06 66 2.12 66 -4 66 C-4.02578125 63.37289062 -4.0515625 60.74578125 -4.078125 58.0390625 C-4.11665747 55.46392602 -4.16178126 52.88898226 -4.20751953 50.31396484 C-4.23555549 48.53932058 -4.2568555 46.76455547 -4.27099609 44.98974609 C-3.93148532 30.84457604 -3.93148532 30.84457604 -9 18 C-14.13876936 16.28707688 -19.70850651 16.33259618 -24.9375 17.8125 C-28.3775455 20.26967536 -28.47118659 20.57945237 -29.15234375 24.5 C-30.43914755 32.67471358 -30.46400582 40.93067889 -30.625 49.1875 C-30.66327103 50.82358641 -30.70232771 52.45965465 -30.7421875 54.09570312 C-30.8386248 58.06369638 -30.91896759 62.03154421 -31 66 C-36.94 66 -42.88 66 -49 66 C-49 45.21 -49 24.42 -49 3 C-43.06 3 -37.12 3 -31 3 C-30.67 5.31 -30.34 7.62 -30 10 C-29.44570312 9.6390625 -28.89140625 9.278125 -28.3203125 8.90625 C-27.59585937 8.4421875 -26.87140625 7.978125 -26.125 7.5 C-25.40570312 7.0359375 -24.68640625 6.571875 -23.9453125 6.09375 C-22 5 -22 5 -20 5 C-19.71125 4.360625 -19.4225 3.72125 -19.125 3.0625 C-16.1625311 -2.36869299 -5.43484454 -0.83971276 0 0 Z " fill="#F9F9F9" transform="translate(1804,531)"/>
<path d="M0 0 C6.27 0 12.54 0 19 0 C19 6.6 19 13.2 19 20 C21.97 20 24.94 20 28 20 C28 24.95 28 29.9 28 35 C25.03 35 22.06 35 19 35 C19 51.17 19 67.34 19 84 C12.73 84 6.46 84 0 84 C0 67.83 0 51.66 0 35 C-2.97 35 -5.94 35 -9 35 C-9 30.05 -9 25.1 -9 20 C-6.03 20 -3.06 20 0 20 C0 13.4 0 6.8 0 0 Z " fill="#F2F2F2" transform="translate(1475,513)"/>
<path d="M0 0 C1.61551758 -0.0309375 1.61551758 -0.0309375 3.26367188 -0.0625 C10.90799726 -0.09999516 15.58163888 0.87581565 22.0625 5 C25.30930188 8.24680188 27.17991765 11.55592673 27.41015625 16.234375 C27.00237784 21.36641549 25.29153292 25.07935392 22.3125 29.25 C20.17578125 29.94140625 20.17578125 29.94140625 18.3125 30.25 C18.828125 31.36375 19.34375 32.4775 19.875 33.625 C22.08230872 38.58945246 24.08172172 43.6295754 26.0625 48.6875 C26.38033447 49.49300293 26.69816895 50.29850586 27.02563477 51.12841797 C27.46927368 52.26947998 27.46927368 52.26947998 27.921875 53.43359375 C28.18967773 54.11993896 28.45748047 54.80628418 28.73339844 55.51342773 C29.3125 57.25 29.3125 57.25 29.3125 59.25 C24.6925 59.25 20.0725 59.25 15.3125 59.25 C14.85359375 57.92484375 14.3946875 56.5996875 13.921875 55.234375 C13.30268019 53.48937143 12.6828554 51.74459131 12.0625 50 C11.76214844 49.12730469 11.46179687 48.25460938 11.15234375 47.35546875 C8.92892095 41.00408277 8.92892095 41.00408277 4.3125 36.25 C2.9925 35.92 1.6725 35.59 0.3125 35.25 C0.3125 43.17 0.3125 51.09 0.3125 59.25 C-4.3075 59.25 -8.9275 59.25 -13.6875 59.25 C-13.6875 40.11 -13.6875 20.97 -13.6875 1.25 C-9.63292117 -0.77728941 -4.45640409 0.02095898 0 0 Z M0.3125 12.25 C0.3125 16.54 0.3125 20.83 0.3125 25.25 C6.00087328 25.66047305 6.00087328 25.66047305 11.3125 24.25 C13.10521391 20.76202512 13.10521391 20.76202512 14.3125 17.25 C12.99068983 14.54857106 12.99068983 14.54857106 10.3125 12.25 C6.86904305 11.79123222 3.80866765 12.01998897 0.3125 12.25 Z " fill="#000000" transform="translate(1944.6875,25.75)"/>
<path d="M0 0 C-0.55789568 7.01524148 -1.18447923 14.00982196 -2 21 C-4.33294775 21.04241723 -6.66702567 21.04092937 -9 21 C-9.33 20.67 -9.66 20.34 -10 20 C-15.28224774 19.32576846 -15.28224774 19.32576846 -20.05078125 21.26953125 C-22.48980551 23.34497426 -24.55797903 25.11595807 -26 28 C-26.15706331 30.84208026 -26.2584957 33.66337307 -26.31640625 36.5078125 C-26.33718735 37.34843231 -26.35796844 38.18905212 -26.37937927 39.05514526 C-26.44485439 41.74501235 -26.5037502 44.43497843 -26.5625 47.125 C-26.60568716 48.94662489 -26.64930152 50.76823971 -26.69335938 52.58984375 C-26.80133907 57.05979577 -26.90042729 61.52982108 -27 66 C-32.94 66 -38.88 66 -45 66 C-45 45.21 -45 24.42 -45 3 C-39.39 3 -33.78 3 -28 3 C-28 7.62 -28 12.24 -28 17 C-27.34 17 -26.68 17 -26 17 C-25.9071875 16.01 -25.9071875 16.01 -25.8125 15 C-24.28697723 9.36730055 -21.57900537 4.50992294 -16.4375 1.5 C-11.18248351 -0.79970011 -5.61672079 -0.33700325 0 0 Z " fill="#F9F9F9" transform="translate(1019,531)"/>
<path d="M0 0 C6.6 0 13.2 0 20 0 C20 20.79 20 41.58 20 63 C13.4 63 6.8 63 0 63 C0 42.21 0 21.42 0 0 Z " fill="#FCFCFC" transform="translate(938,534)"/>
<path d="M0 0 C6.27 0 12.54 0 19 0 C19 21.12 19 42.24 19 64 C12.73 64 6.46 64 0 64 C0 42.88 0 21.76 0 0 Z " fill="#F0F0F0" transform="translate(1432,533)"/>
<path d="M0 0 C5.94 0 11.88 0 18 0 C18 20.79 18 41.58 18 63 C12.06 63 6.12 63 0 63 C0 42.21 0 21.42 0 0 Z " fill="#FBFBFB" transform="translate(1719,534)"/>
<path d="M0 0 C5.94 0 11.88 0 18 0 C18 20.79 18 41.58 18 63 C12.06 63 6.12 63 0 63 C0 42.21 0 21.42 0 0 Z " fill="#FCFCFC" transform="translate(1516,534)"/>
<path d="M0 0 C4.19669368 2.45906081 7.39780428 4.84693704 9.98828125 9.05078125 C10.509297 12.08930701 10.45756819 15.0390307 10.36328125 18.11328125 C10.36199219 18.91572266 10.36070313 19.71816406 10.359375 20.54492188 C10.2983248 24.63189344 10.11072389 27.4629915 7.98828125 31.05078125 C3.13729915 34.98992461 -2.37884511 35.69948088 -8.4609375 35.421875 C-12.32767987 34.85933208 -14.24506213 33.81743787 -17.01171875 31.05078125 C-21.54028496 24.46377586 -22.32449568 16.82723083 -21.01171875 9.05078125 C-18.92159493 4.73759288 -15.77050335 2.19050581 -11.51171875 0.11328125 C-7.18155178 -1.20123372 -4.2238078 -1.99298116 0 0 Z " fill="#050505" transform="translate(1875.01171875,547.94921875)"/>
<path d="M0 0 C2.829003 1.34790539 3.88649014 2.55277805 6 5 C6.53367187 5.58007812 7.06734375 6.16015625 7.6171875 6.7578125 C10.56392903 11.53586232 9.6142208 17.61687621 9 23 C7.46297859 28.10369931 5.5144848 31.80250039 1.3125 35.125 C-4.61455588 36.6906374 -9.7381214 37.04716602 -15.375 34.4375 C-20.51540551 29.66426631 -22.23580966 26.0467868 -22.5 19.125 C-22.25004919 12.24704335 -20.71876265 6.68560701 -15.7578125 1.78515625 C-10.87372552 -1.37635614 -5.60525651 -0.82492454 0 0 Z " fill="#040404" transform="translate(1390,547)"/>
<path d="M0 0 C4.54270638 2.2627387 7.94061045 4.93876809 11 9 C12.16134722 14.1722964 12.16407446 18.82893558 11 24 C7.86099281 28.82253455 4.38962818 31.20980548 -1 33 C-5.89706806 33.90873428 -9.63532822 33.63298351 -13.8125 30.8125 C-17.55970701 27.74344183 -20.45014934 24.64955198 -22 20 C-22.54281067 14.24620694 -21.61010998 11.48824484 -18 7 C-12.4994387 0.77568063 -8.28934082 -1.79705157 0 0 Z " fill="#050505" transform="translate(1590,548)"/>
<path d="M0 0 C4.63820867 3.47085333 10.35988699 8.0865818 11.34375 14.1015625 C11.66754707 19.33088518 11.28258097 22.38029037 7.8125 26.4375 C3.63535916 30.5646152 0.56161367 33.10699791 -5.4375 33.4375 C-9.91757961 33.2879147 -12.58423267 31.98879642 -16 29 C-16.33 28.01 -16.66 27.02 -17 26 C-18.96672915 24.8499169 -18.96672915 24.8499169 -21 24 C-22.69470335 22.30529665 -22.33208662 20.25978877 -22.4375 17.9375 C-22.38829372 11.62269423 -20.32180012 8.4153006 -16 4 C-15.278125 3.175 -14.55625 2.35 -13.8125 1.5 C-9.1923812 -0.96406336 -5.06676101 -1.3763239 0 0 Z " fill="#060606" transform="translate(1223,548)"/>
<path d="M0 0 C0.66 0 1.32 0 2 0 C2.00257813 0.76441406 2.00515625 1.52882813 2.0078125 2.31640625 C2.35709028 11.99140089 5.14628555 19.30271428 9 28 C9.80156483 29.91254831 10.59472149 31.82866904 11.375 33.75 C11.85066406 34.88695312 11.85066406 34.88695312 12.3359375 36.046875 C13 38 13 38 13 41 C4.42 41 -4.16 41 -13 41 C-10.76573088 30.94578896 -10.76573088 30.94578896 -9.1875 27.3125 C-6.91191123 21.88872827 -4.98147161 16.36157006 -3.05078125 10.80859375 C-2 8 -2 8 -1 7 C-0.63239269 4.67182036 -0.29758419 2.3381615 0 0 Z " fill="#0F0F0F" transform="translate(877,520)"/>
<path d="M0 0 C2.53515625 0.5 2.53515625 0.5 5.72265625 1.75 C8.76385631 6.36423457 8.40113499 11.16586207 7.53515625 16.5 C5.72265625 19.75 5.72265625 19.75 2.53515625 21.5 C-2.68352704 22.3528283 -6.92093276 22.41374324 -11.52734375 19.6875 C-13.80307206 17.11812933 -15.31717712 15.20551836 -16.02734375 11.8125 C-15.29744681 7.51421804 -13.69658912 5.23517532 -10.734375 2.0859375 C-7.20416177 -0.38095849 -4.2031266 -0.3700139 0 0 Z " fill="#F2F2F2" transform="translate(950.46484375,496.5)"/>
<path d="M0 0 C3.45658479 2.04573386 4.7785359 3.66780385 7 7 C7.60963498 10.52233544 7.65961169 12.8751655 5.8203125 16.01171875 C3.24708591 19.04664868 1.19120689 20.73321044 -2.73828125 21.61328125 C-7.29011475 21.828862 -10.19803165 21.45602122 -14.1875 19.1875 C-16.87136407 14.46760113 -16.94525774 10.29820935 -16 5 C-12.42083316 -1.29439685 -6.55567337 -1.0843971 0 0 Z " fill="#F7F7F7" transform="translate(1732,497)"/>
<path d="M0 0 C3.1875 1.25 3.1875 1.25 5 4 C5.62780612 8.0864471 5.80075311 11.93548768 5 16 C2.98010675 18.48730657 1.73953936 19.7601494 -1.3125 20.75 C-10.12618725 21.56987788 -10.12618725 21.56987788 -13.875 19.125 C-16.68136685 16.31863315 -17.22010717 14.62354502 -17.4375 10.75 C-17.36981956 7.25881745 -16.93743242 5.14647035 -14.6875 2.4375 C-10.37311458 -1.2502723 -5.34724999 -0.89391717 0 0 Z " fill="#F5F5F5" transform="translate(1448,497)"/>
<path d="M0 0 C1.39025391 -0.01546875 1.39025391 -0.01546875 2.80859375 -0.03125 C6.43254594 0.66783865 8.063223 1.79133616 10.5625 4.5 C11.2265625 7.59375 11.2265625 7.59375 11.1875 11 C11.20039062 12.1240625 11.21328125 13.248125 11.2265625 14.40625 C10.5625 17.5 10.5625 17.5 8.37109375 19.87890625 C5.26526541 21.67156099 3.55368301 22.01163803 0 21.9375 C-1.39412109 21.93556641 -1.39412109 21.93556641 -2.81640625 21.93359375 C-5.96620657 21.41253885 -7.30983317 20.89792474 -9.4375 18.5 C-9.96875 15.28515625 -9.96875 15.28515625 -9.9375 11.5625 C-9.9478125 10.33660156 -9.958125 9.11070312 -9.96875 7.84765625 C-9.4375 4.5 -9.4375 4.5 -7.74609375 2.08984375 C-4.94852517 0.16326099 -3.37541185 -0.03745256 0 0 Z " fill="#F3F3F3" transform="translate(1523.4375,496.5)"/>
<path d="M0 0 C0 0.33 0 0.66 0 1 C-0.67546875 1.02578125 -1.3509375 1.0515625 -2.046875 1.078125 C-7.53481663 1.41456297 -7.53481663 1.41456297 -12.5625 3.4375 C-14.78771504 7.40418767 -14.82881859 11.51504715 -15 16 C-15.33 16 -15.66 16 -16 16 C-16.7613769 6.33897316 -16.7613769 6.33897316 -14.1875 1.8125 C-9.5207072 -0.84116649 -5.2480002 -0.41359021 0 0 Z " fill="#B2B2B2" transform="translate(1732,497)"/>
<path d="M0 0 C1.77503906 0.03480469 1.77503906 0.03480469 3.5859375 0.0703125 C5.36871094 0.09738281 5.36871094 0.09738281 7.1875 0.125 C8.10273437 0.14820313 9.01796875 0.17140625 9.9609375 0.1953125 C9.9609375 0.5253125 9.9609375 0.8553125 9.9609375 1.1953125 C9.17589844 1.18628906 8.39085937 1.17726563 7.58203125 1.16796875 C1.79025205 1.33141773 -2.10424946 1.47808618 -6.2890625 5.7578125 C-7.23619911 6.87859082 -8.16504725 8.01662291 -9.0390625 9.1953125 C-9.3690625 8.5353125 -9.6990625 7.8753125 -10.0390625 7.1953125 C-3.0390625 0.1953125 -3.0390625 0.1953125 0 0 Z " fill="#484848" transform="translate(1380.0390625,546.8046875)"/>
<path d="M0 0 C1.37478516 0.01740234 1.37478516 0.01740234 2.77734375 0.03515625 C3.69644531 0.04417969 4.61554688 0.05320312 5.5625 0.0625 C6.27277344 0.07410156 6.98304687 0.08570313 7.71484375 0.09765625 C7.71484375 0.42765625 7.71484375 0.75765625 7.71484375 1.09765625 C7.14636719 1.08863281 6.57789063 1.07960938 5.9921875 1.0703125 C0.95091148 1.26388403 -1.74945911 2.00297227 -5.34765625 5.66015625 C-6.34801039 6.78753949 -7.33506175 7.92760418 -8.28515625 9.09765625 C-8.28515625 6.09765625 -8.28515625 6.09765625 -5.84765625 3.47265625 C-5.00203125 2.68890625 -4.15640625 1.90515625 -3.28515625 1.09765625 C-2.28515625 0.09765625 -2.28515625 0.09765625 0 0 Z " fill="#484848" transform="translate(1298.28515625,546.90234375)"/>
</svg>
