<?xml version="1.0" encoding="UTF-8"?>
<svg version="1.1" xmlns="http://www.w3.org/2000/svg" width="2000" height="772">
<path d="M0 0 C0.76316528 0.00359528 1.52633057 0.00719055 2.31262207 0.01089478 C3.51253029 0.01067574 3.51253029 0.01067574 4.73667908 0.01045227 C7.39344958 0.01115161 10.05015086 0.01894498 12.70690918 0.02676392 C14.54393984 0.02862802 16.38097099 0.03005196 18.21800232 0.03105164 C23.06284955 0.03487742 27.90766701 0.04470821 32.75250244 0.05575562 C37.69237871 0.06596845 42.63225978 0.07054898 47.57214355 0.07559204 C57.27202646 0.08633042 66.97188722 0.10340756 76.67175293 0.12442017 C80.40030918 26.00166239 84.0720457 51.88526957 87.603302 77.79022217 C90.08198626 95.96322158 92.64855972 114.12262155 95.27526855 132.27481079 C96.63285073 141.68065757 97.94307913 151.08938508 99.15612793 160.51504517 C100.70765091 172.56914579 102.43068728 184.59644758 104.17175293 196.62442017 C106.04482376 209.56433695 107.87039006 222.50569525 109.53820801 235.4737854 C110.96956521 246.54011337 112.57323544 257.58122684 114.17175293 268.62442017 C116.46150987 284.44297003 118.64816804 300.2694472 120.67175293 316.12442017 C137.37381134 299.75387297 149.06519873 276.25547675 159.43200684 255.58486938 C160.4750233 253.51485758 161.53829539 251.45898977 162.62097168 249.40957642 C194.88636811 187.36073713 214.46011001 104.06578191 203.76550293 34.41348267 C202.64558011 27.10440889 201.71591227 19.78110104 200.85925293 12.43692017 C200.72349854 11.31406616 200.58774414 10.19121216 200.44787598 9.03433228 C200.32968506 8.00831909 200.21149414 6.98230591 200.08972168 5.92520142 C199.98426025 5.01939331 199.87879883 4.11358521 199.7701416 3.18032837 C199.73767334 2.50187866 199.70520508 1.82342896 199.67175293 1.12442017 C201.4146747 -0.6185016 203.67798788 0.00461713 206 0 C206.76316528 0.00359528 207.52633057 0.00719055 208.31262207 0.01089478 C209.51253029 0.01067574 209.51253029 0.01067574 210.73667908 0.01045227 C213.39344958 0.01115161 216.05015086 0.01894498 218.70690918 0.02676392 C220.54393984 0.02862802 222.38097099 0.03005196 224.21800232 0.03105164 C229.06284955 0.03487742 233.90766701 0.04470821 238.75250244 0.05575562 C243.69237871 0.06596845 248.63225978 0.07054898 253.57214355 0.07559204 C263.27202646 0.08633042 272.97188722 0.10340756 282.67175293 0.12442017 C283.98436666 4.63340197 285.09236392 9.03243097 285.85534668 13.66738892 C286.05893799 14.89473755 286.2625293 16.12208618 286.47229004 17.3866272 C286.68248779 18.68197388 286.89268555 19.97732056 287.10925293 21.31192017 C287.33374306 22.67767581 287.55843589 24.04339816 287.7833252 25.40908813 C288.94845978 32.51427051 290.06863019 39.62485402 291.10925293 46.74942017 C293.13704079 60.63162628 295.5359563 74.45694532 297.86022949 88.29190063 C299.19810273 96.25609361 300.52973757 104.22132812 301.85925293 112.18692017 C301.987565 112.95536255 302.11587708 113.72380493 302.24807739 114.51553345 C303.70290616 123.23317182 305.13877367 131.95270094 306.49108887 140.68692017 C307.91839798 149.8315138 309.47962145 158.95450872 311.01113892 168.08209229 C312.61452604 177.64885901 314.17062688 187.21872146 315.60925293 196.81192017 C317.58178208 209.94537401 319.8477073 223.02766035 322.12268066 236.11148071 C323.53152176 244.24216283 324.88424466 252.3744039 326.08581543 260.53848267 C327.95862245 273.25972006 330.06553619 285.94249348 332.15575027 298.62949753 C332.59990446 301.32674584 333.04300801 304.02416637 333.48613644 306.72158337 C336.68429701 326.18799332 339.90453 345.65071202 343.1661377 365.1065979 C343.33299072 366.10247925 343.49984375 367.0983606 343.67175293 368.12442017 C343.95200317 369.52639648 343.95200317 369.52639648 344.23791504 370.95669556 C344.60792994 373.65840818 344.71598464 376.10666153 344.6988678 378.82240295 C344.69299573 380.03249606 344.69299573 380.03249606 344.68700504 381.26703548 C344.68197185 381.87997243 344.67693865 382.49290937 344.67175293 383.12442017 C332.31984861 383.17068512 319.96796479 383.20625958 307.61599159 383.22804451 C301.88096693 383.23849821 296.14600138 383.25268628 290.41101074 383.27529907 C284.88026724 383.29697097 279.34958074 383.30897683 273.81879807 383.31417465 C271.70479815 383.3178806 269.59080148 383.32511699 267.47682571 383.33588028 C264.52431658 383.35032009 261.57204538 383.35240127 258.61950684 383.35147095 C257.73837723 383.3586615 256.85724762 383.36585205 255.94941711 383.3732605 C249.89985725 383.35252449 249.89985725 383.35252449 247.67175293 381.12442017 C247.23278809 379.12612915 247.23278809 379.12612915 246.96081543 376.62051392 C246.85253418 375.66886353 246.74425293 374.71721313 246.63269043 373.73672485 C246.46640137 372.16519653 246.46640137 372.16519653 246.29675293 370.56192017 C246.03946468 368.28451713 245.78162328 366.00717653 245.52331543 363.72988892 C245.38699707 362.50447388 245.25067871 361.27905884 245.11022949 360.01651001 C244.33456104 353.13137277 243.50379734 346.25293615 242.67175293 339.37442017 C242.58638275 338.66574799 242.50101257 337.95707581 242.41305542 337.22692871 C241.30061319 328.00558618 240.09402022 318.80458744 238.73937988 309.61538696 C237.84344942 303.48309403 237.07837151 297.34228778 236.35925293 291.18692017 C234.91338013 278.81723252 233.29427258 266.47195265 231.67175293 254.12442017 C229.76966277 239.64507813 227.90545116 225.16538924 226.21472168 210.65957642 C225.98208558 203.90349918 225.98208558 203.90349918 223.67175293 198.12442017 C223.34304199 199.92459595 223.34304199 199.92459595 223.00769043 201.76113892 C218.7932384 224.16475697 212.23664608 245.99318772 203.67175293 267.12442017 C203.37317383 267.86369751 203.07459473 268.60297485 202.76696777 269.36465454 C192.74560761 293.98546048 180.29376528 317.58033778 164.67175293 339.12442017 C163.55220215 340.73510376 163.55220215 340.73510376 162.41003418 342.37832642 C156.99033144 350.15672355 151.17755481 357.42676913 144.97692871 364.59268188 C142.94592492 366.97624302 141.00243796 369.42896358 139.04675293 371.87442017 C134.90156981 376.97046966 130.38891415 381.5622022 125.67175293 386.12442017 C122.92911787 388.84883174 120.20987485 391.59438939 117.50769043 394.35879517 C110.55990236 401.4378248 103.48913395 407.9995709 95.67175293 414.12442017 C94.53058765 415.05315055 93.39137343 415.98428173 92.25378418 416.91738892 C66.99737512 437.55685345 39.02996318 454.00032684 9.67175293 468.12442017 C8.81710449 468.54852173 7.96245605 468.97262329 7.08190918 469.40957642 C-1.2629343 473.40841513 -10.0365718 476.25457906 -18.78137207 479.23599243 C-21.3746261 480.14059859 -23.94362432 481.09903879 -26.51574707 482.06192017 C-33.35564595 484.55673251 -40.32423443 486.58827078 -47.32824707 488.56192017 C-48.02322296 488.75795837 -48.71819885 488.95399658 -49.43423462 489.15597534 C-58.97427023 491.82695156 -68.51950189 494.18689171 -78.26574707 495.99942017 C-79.69563965 496.26710205 -79.69563965 496.26710205 -81.15441895 496.54019165 C-84.53861054 497.12951357 -87.92830693 497.63333174 -91.32824707 498.12442017 C-92.13777832 498.24830109 -92.94730957 498.37218201 -93.78137207 498.49981689 C-111.3373894 501.13792652 -128.7097473 501.62679604 -146.4185791 501.57046509 C-149.43123252 501.56130636 -152.44310828 501.56815404 -155.45568848 501.5909729 C-208.23547886 501.98815519 -258.82596351 490.87862122 -307.32824707 470.12442017 C-307.97358398 469.85291138 -308.6189209 469.58140259 -309.28381348 469.30166626 C-335.24651166 458.34420963 -360.4238314 443.93561106 -382.57434082 426.49746704 C-384.2695029 425.17040809 -385.98150386 423.86986062 -387.70324707 422.57754517 C-397.87306275 414.92292661 -407.92382645 406.88398081 -416.75793457 397.69473267 C-418.53427474 395.9183925 -420.41239296 394.31138962 -422.32824707 392.68692017 C-425.76447904 389.7273909 -428.69366156 386.53768365 -431.62121582 383.08145142 C-433.24085514 381.22461092 -434.92947998 379.52044525 -436.70324707 377.81192017 C-441.32482663 373.26255279 -445.26911068 368.17091405 -449.32824707 363.12442017 C-450.05012207 362.25817017 -450.77199707 361.39192017 -451.51574707 360.49942017 C-475.05108416 332.25701566 -493.98190705 299.34449439 -507.32824707 265.12442017 C-507.62537598 264.37305786 -507.92250488 263.62169556 -508.2286377 262.8475647 C-519.77140597 233.46883042 -530.90204197 199.06662786 -529.32824707 167.12442017 C-527.32824707 168.12442017 -527.32824707 168.12442017 -526.55383301 169.92764282 C-526.18693359 171.09625854 -526.18693359 171.09625854 -525.81262207 172.28848267 C-525.39472412 173.58991211 -525.39472412 173.58991211 -524.96838379 174.91763306 C-524.67463867 175.8521228 -524.38089355 176.78661255 -524.07824707 177.74942017 C-521.176757 186.71883544 -517.95492442 195.42446945 -514.32824707 204.12442017 C-513.7327002 205.62102173 -513.7327002 205.62102173 -513.12512207 207.14785767 C-504.8889539 227.62846252 -493.54922281 246.79295655 -481.32824707 265.12442017 C-480.25316895 266.73703735 -480.25316895 266.73703735 -479.15637207 268.38223267 C-473.57611888 276.5943074 -467.58789076 284.4219352 -461.32824707 292.12442017 C-460.89286621 292.6603479 -460.45748535 293.19627563 -460.00891113 293.7484436 C-447.07477346 309.56332224 -432.92221747 324.90641373 -417.32824707 338.12442017 C-416.39625488 338.93395142 -415.4642627 339.74348267 -414.50402832 340.57754517 C-397.356023 355.39870637 -378.77702139 368.50479281 -359.32824707 380.12442017 C-358.08057596 380.88829364 -356.83319272 381.65263746 -355.58605957 382.41738892 C-337.6788804 393.2912461 -318.80483482 402.42991029 -299.32824707 410.12442017 C-298.6914502 410.37852661 -298.05465332 410.63263306 -297.39855957 410.8944397 C-293.52421015 412.43007977 -289.6252848 413.8797786 -285.6998291 415.27774048 C-284.00805989 415.88171985 -282.31923056 416.49396036 -280.63244629 417.11172485 C-254.08081197 426.77409752 -226.52705283 433.11382226 -198.57824707 437.12442017 C-197.8889209 437.22460449 -197.19959473 437.32478882 -196.48937988 437.42800903 C-178.51316159 439.99094001 -160.50938384 440.29193549 -142.37585449 440.25479126 C-139.26553491 440.2494198 -136.15535927 440.25478085 -133.04504395 440.26113892 C-115.14056737 440.27010171 -97.74056758 439.59169548 -80.07824707 436.56192017 C-79.31287628 436.43292328 -78.54750549 436.30392639 -77.75894165 436.17102051 C-55.3816835 432.36600053 -33.34538068 426.80508663 -12.32824707 418.12442017 C-11.64166016 417.84243774 -10.95507324 417.56045532 -10.24768066 417.26992798 C10.02216973 408.85892311 29.64192312 398.65651778 47.67175293 386.12442017 C46.96039052 379.34555488 46.0552089 372.61506958 45.04675293 365.87442017 C44.87853027 364.74399292 44.71030762 363.61356567 44.5369873 362.44888306 C42.06505842 345.94531255 39.46931086 329.46048648 36.89595032 312.97250366 C34.47639038 297.46842057 32.08294827 281.96129722 29.79675293 266.43692017 C28.19137666 255.55148616 26.55355683 244.67113277 24.8916626 233.79418945 C24.62108359 232.02107607 24.35142314 230.24782226 24.08270264 228.47442627 C23.70481627 225.98235459 23.32349948 223.49083108 22.94128418 220.99942017 C22.77121101 219.87161385 22.77121101 219.87161385 22.59770203 218.72102356 C22.13787681 215.74468738 21.6263349 212.98816608 20.67175293 210.12442017 C20.43166504 210.67565552 20.19157715 211.22689087 19.94421387 211.79483032 C5.48560402 244.78575994 -12.43905935 276.19979336 -37.07824707 302.68692017 C-38.97955786 304.74667352 -40.78460216 306.84704627 -42.57824707 308.99942017 C-59.88473312 328.82469057 -82.78108033 343.79765242 -105.76574707 356.18692017 C-106.35033691 356.50354614 -106.93492676 356.82017212 -107.53723145 357.14639282 C-117.57760271 362.48754114 -127.90772393 366.57059317 -138.70324707 370.12442017 C-139.36153503 370.3419696 -140.019823 370.55951904 -140.69805908 370.78366089 C-161.30065403 377.56330936 -181.77774138 381.58412755 -203.32824707 384.12442017 C-204.70327393 384.28672119 -204.70327393 384.28672119 -206.1060791 384.45230103 C-216.06993279 385.45255722 -226.07709521 385.23389474 -236.07824707 385.18692017 C-237.9506417 385.18189382 -239.82303765 385.17733293 -241.69543457 385.17324829 C-246.2397383 385.16233559 -250.78397788 385.14513388 -255.32824707 385.12442017 C-255.65824707 384.13442017 -255.98824707 383.14442017 -256.32824707 382.12442017 C-255.5470752 381.92848267 -254.76590332 381.73254517 -253.96105957 381.53067017 C-230.32025205 375.42302279 -207.05238207 368.0732895 -184.76574707 358.06192017 C-183.87339355 357.66247192 -182.98104004 357.26302368 -182.06164551 356.85147095 C-176.70251144 354.39027611 -171.65199061 351.63313692 -166.64318848 348.51968384 C-164.23291814 347.06696343 -161.77336932 345.77543724 -159.26574707 344.49942017 C-146.15436652 337.39664966 -134.48510698 327.93875337 -123.32824707 318.12442017 C-122.48906738 317.40770142 -121.6498877 316.69098267 -120.78527832 315.95254517 C-117.04446304 312.95371125 -117.04446304 312.95371125 -114.32824707 309.12442017 C-113.66824707 309.12442017 -113.00824707 309.12442017 -112.32824707 309.12442017 C-112.32824707 308.46442017 -112.32824707 307.80442017 -112.32824707 307.12442017 C-111.66824707 307.12442017 -111.00824707 307.12442017 -110.32824707 307.12442017 C-110.06487549 306.53145142 -109.80150391 305.93848267 -109.53015137 305.32754517 C-108.27744696 303.03130211 -107.00234533 301.65047134 -105.09777832 299.87442017 C-101.34159155 296.22216719 -98.16251481 292.30522985 -95.01574707 288.12442017 C-94.45524658 287.38385376 -93.89474609 286.64328735 -93.31726074 285.88027954 C-67.23077953 251.10325435 -49.88738072 211.56716291 -37.32824707 170.12442017 C-36.87312744 168.63555298 -36.87312744 168.63555298 -36.40881348 167.11660767 C-20.73613495 115.73781215 -12.453813 62.62157208 -7.22814941 9.23526001 C-7.12196289 8.17130005 -7.01577637 7.10734009 -6.90637207 6.01113892 C-6.81774902 5.08518921 -6.72912598 4.1592395 -6.63781738 3.20523071 C-6.02479307 -0.91527892 -3.66658657 0.00729071 0 0 Z " fill="#009FE2" transform="translate(529.3282470703125,270.8755798339844)"/>
<path d="M0 0 C3.54693646 0.01707457 7.09319659 0.00690844 10.64011002 -0.01030636 C34.45827767 -0.10851192 57.90309001 1.44872258 81.19848633 6.70361328 C82.59734466 7.01039886 83.99627193 7.31687023 85.39526367 7.62304688 C96.50928508 10.08543196 107.46314013 12.98013797 118.32348633 16.39111328 C119.55325195 16.76494141 120.78301758 17.13876953 122.05004883 17.52392578 C133.41443985 21.12726928 144.43179701 25.69324137 155.45483398 30.21582031 C157.18129505 30.92315509 158.90958904 31.62607293 160.64135742 32.3203125 C173.51227522 37.48040008 185.38426244 44.37828856 197.32348633 51.39111328 C198.15235352 51.87660645 198.9812207 52.36209961 199.83520508 52.86230469 C219.95486818 64.71378392 238.73411236 78.35911563 255.91723633 94.19580078 C257.9514622 96.05170166 260.01620324 97.85442514 262.10083008 99.65283203 C266.36885752 103.37877722 270.39262102 107.31200822 274.38598633 111.32861328 C275.05436523 111.993125 275.72274414 112.65763672 276.41137695 113.34228516 C280.92006574 117.85973719 285.17818203 122.53934755 289.32348633 127.39111328 C290.13172852 128.32955078 290.9399707 129.26798828 291.77270508 130.23486328 C303.02231925 143.58519075 313.08243498 157.58219832 322.32348633 172.39111328 C323.14913086 173.70789063 323.14913086 173.70789063 323.99145508 175.05126953 C325.47631881 177.47613104 326.90513168 179.92672208 328.32348633 182.39111328 C328.65606445 182.95685059 328.98864258 183.52258789 329.33129883 184.10546875 C335.17803498 194.08427324 340.32280257 204.34820391 345.19848633 214.82861328 C346.01941772 216.5869751 346.01941772 216.5869751 346.85693359 218.38085938 C355.32348633 236.79140244 355.32348633 236.79140244 355.32348633 242.39111328 C354.66348633 242.39111328 354.00348633 242.39111328 353.32348633 242.39111328 C351.98405369 240.62870192 350.73000253 238.8013614 349.51098633 236.95361328 C345.16382917 230.46453828 340.4771975 224.28071251 335.66601562 218.12963867 C335.13145752 217.44119873 334.59689941 216.75275879 334.04614258 216.04345703 C333.56927002 215.43493896 333.09239746 214.8264209 332.60107422 214.19946289 C331.28527325 212.33702494 330.28947811 210.45354411 329.32348633 208.39111328 C328.66348633 208.39111328 328.00348633 208.39111328 327.32348633 208.39111328 C325.91333008 206.99267578 325.91333008 206.99267578 324.26098633 205.01611328 C323.63708008 204.28392578 323.01317383 203.55173828 322.37036133 202.79736328 C321.69489258 202.00330078 321.01942383 201.20923828 320.32348633 200.39111328 C312.59556927 191.57556345 304.60112367 183.01905845 295.67114258 175.40283203 C293.8250132 173.82087425 292.00601545 172.21912902 290.19458008 170.59814453 C269.98087442 152.62137371 247.79182727 137.74637613 224.32348633 124.39111328 C223.18395508 123.73755859 222.04442383 123.08400391 220.87036133 122.41064453 C201.65561902 111.77234542 181.11775623 103.38428646 160.32348633 96.39111328 C159.58565918 96.14280762 158.84783203 95.89450195 158.08764648 95.63867188 C148.29846775 92.3846325 138.39185159 89.63505024 128.32348633 87.39111328 C127.31592285 87.16278809 126.30835938 86.93446289 125.27026367 86.69921875 C82.07087023 77.0986586 37.32004258 74.57201787 -6.67651367 79.39111328 C-7.66329102 79.49294922 -8.65006836 79.59478516 -9.66674805 79.69970703 C-64.09340632 85.39184302 -117.57628246 103.83186632 -163.67651367 133.39111328 C-165.32200195 134.43138672 -165.32200195 134.43138672 -167.00073242 135.49267578 C-180.30833728 144.12751685 -192.71833357 153.99197469 -204.67651367 164.39111328 C-205.38936523 165.00341797 -206.1022168 165.61572266 -206.83666992 166.24658203 C-208.79978834 167.94365154 -210.7402442 169.66347776 -212.67651367 171.39111328 C-213.55436523 172.16455078 -214.4322168 172.93798828 -215.33666992 173.73486328 C-227.16342086 184.33063487 -237.82809008 195.94194093 -247.67651367 208.39111328 C-248.35069336 209.21998047 -249.02487305 210.04884766 -249.71948242 210.90283203 C-258.37410721 221.56626721 -266.02609219 232.77266838 -273.38208008 244.35449219 C-274.19093358 245.62711684 -275.00263877 246.89793873 -275.81860352 248.16601562 C-289.84600299 269.96841711 -300.80146161 294.72762616 -308.67651367 319.39111328 C-308.89355957 320.0561084 -309.11060547 320.72110352 -309.33422852 321.40625 C-328.27937305 379.49081401 -332.29284484 440.14286802 -321.67651367 500.39111328 C-321.34147179 502.39082777 -321.00756759 504.39073471 -320.67651367 506.39111328 C-321.66651367 506.39111328 -322.65651367 506.39111328 -323.67651367 506.39111328 C-332.49753927 490.73689883 -340.60928646 475.33322436 -346.67651367 458.39111328 C-347.03487305 457.45912109 -347.39323242 456.52712891 -347.76245117 455.56689453 C-369.24201362 399.46227742 -368.60031893 336.05833585 -354.67651367 278.39111328 C-354.47300293 277.54258789 -354.26949219 276.6940625 -354.05981445 275.81982422 C-347.17510073 247.74727059 -335.56951751 220.61231432 -321.72387695 195.31396484 C-320.85635017 193.72127464 -320.01145795 192.1162792 -319.17260742 190.50830078 C-311.25244689 175.42453237 -301.83316752 161.05300961 -291.67651367 147.39111328 C-290.95206055 146.39208984 -290.22760742 145.39306641 -289.48120117 144.36376953 C-284.00721138 136.89834618 -278.09203558 129.88132347 -272.00561523 122.91552734 C-270.87559323 121.61944774 -269.75544567 120.31476945 -268.63745117 119.00830078 C-264.53842517 114.23546229 -260.16306902 109.79849412 -255.67651367 105.39111328 C-253.15539723 102.88219579 -250.64874262 100.36256361 -248.16870117 97.81298828 C-242.00643605 91.52195941 -235.61010773 85.83893719 -228.67651367 80.39111328 C-227.52499816 79.47243607 -226.37397856 78.55313701 -225.22338867 77.63330078 C-218.53357474 72.30563736 -211.76390153 67.18386042 -204.67651367 62.39111328 C-203.41774414 61.50939453 -203.41774414 61.50939453 -202.13354492 60.60986328 C-192.36732624 53.88783971 -182.03105154 48.14731005 -171.67651367 42.39111328 C-170.90549316 41.96088867 -170.13447266 41.53066406 -169.34008789 41.08740234 C-159.78514344 35.78688019 -150.1112214 31.22486706 -139.92504883 27.27246094 C-137.62709701 26.37174367 -135.34549163 25.43627973 -133.06323242 24.49658203 C-112.53088423 16.18827787 -90.97764758 10.45716078 -69.30151367 6.01611328 C-68.21298096 5.78972168 -67.12444824 5.56333008 -66.00292969 5.33007812 C-44.11737265 1.08407909 -22.23620248 -0.10785871 0 0 Z " fill="#009FE2" transform="translate(388.676513671875,-0.39111328125)"/>
<path d="M0 0 C11.694375 -0.020625 23.38875 -0.04125 35.4375 -0.0625 C40.98389282 -0.07615601 40.98389282 -0.07615601 46.64233398 -0.09008789 C51.14465332 -0.09460449 51.14465332 -0.09460449 53.24989319 -0.09544373 C54.72568564 -0.09698306 56.2014768 -0.10050776 57.67726135 -0.10557556 C59.90782875 -0.1128548 62.13831905 -0.11390736 64.36889648 -0.11352539 C66.25752663 -0.11685631 66.25752663 -0.11685631 68.18431091 -0.12025452 C71 0 71 0 72 1 C72.09876534 3.03193609 72.12555704 5.06737248 72.12584114 7.10170746 C72.12729458 7.74920883 72.12874802 8.3967102 72.13024551 9.06383282 C72.1339309 11.26047361 72.13040743 13.4570461 72.12698364 15.65368652 C72.12813446 17.23363579 72.12972172 18.81358479 72.13171089 20.39353323 C72.13590962 24.75615323 72.13381108 29.11875153 72.13072467 33.48137164 C72.12847299 38.17807845 72.13194902 42.87478138 72.13470459 47.57148743 C72.13916378 56.78064404 72.13818516 65.98979252 72.13529195 75.19894946 C72.1330385 82.67984943 72.13272514 90.16074712 72.13381577 97.64164734 C72.133969 98.70418648 72.13412223 99.76672562 72.13428011 100.86146292 C72.13459982 103.01962666 72.13492403 105.17779039 72.1352527 107.33595413 C72.13810793 127.59869745 72.1348198 147.86143625 72.12945233 168.12417883 C72.12498426 185.53086757 72.12576018 202.93754965 72.13037109 220.34423828 C72.1357161 240.53181331 72.13783323 260.71938437 72.13475883 280.90696001 C72.13444026 283.05742423 72.13412589 285.20788844 72.13381577 287.35835266 C72.13366149 288.41657119 72.13350721 289.47478973 72.13334826 290.56507549 C72.13248289 298.04165021 72.13394643 305.51822242 72.13629532 312.99479675 C72.13909271 322.09954833 72.13835636 331.20429128 72.13301457 340.30904186 C72.13037673 344.9591894 72.1293739 349.60932253 72.13266373 354.25946999 C72.13562499 358.50929713 72.13403674 362.75909639 72.12868617 367.00892097 C72.12756126 368.55331291 72.1281548 370.09770717 72.13056196 371.64209765 C72.1335652 373.72753033 72.13052228 375.81286514 72.12584114 377.89829254 C72.12567879 379.06083384 72.12551644 380.22337514 72.12534916 381.42114496 C72 384 72 384 71 385 C68.79132169 385.09432985 66.57958479 385.11742431 64.36889648 385.11352539 C63.67624695 385.11367142 62.98359741 385.11381744 62.2699585 385.1139679 C59.97030554 385.11326874 57.67073263 385.10547628 55.37109375 385.09765625 C53.78068588 385.09579208 52.19027743 385.09436817 50.59986877 385.09336853 C46.4060407 385.08954329 42.21224705 385.07971295 38.01843262 385.06866455 C33.74211086 385.05845057 29.46578356 385.05387094 25.18945312 385.04882812 C16.79295116 385.03809068 8.39648382 385.02049384 0 385 C-0.33 377.08 -0.66 369.16 -1 361 C-3.454375 362.794375 -5.90875 364.58875 -8.4375 366.4375 C-31.0838978 382.61129612 -55.87200132 392.16556315 -83.8581543 392.24023438 C-86.03278938 392.24986838 -88.20644809 392.28091885 -90.38085938 392.3125 C-99.6738015 392.38209099 -107.96817866 391.37043341 -117 389 C-118.35750366 388.64989868 -118.35750366 388.64989868 -119.74243164 388.29272461 C-149.39405353 380.34351182 -175.57297222 358.69262481 -191.05859375 332.4765625 C-210.98622865 296.79126057 -215.78541476 257.97440918 -207 218 C-206.83983398 217.26620117 -206.67966797 216.53240234 -206.51464844 215.77636719 C-201.03913195 191.56086646 -189.86522731 169.04785258 -174 150 C-173.55188965 149.45553223 -173.1037793 148.91106445 -172.64208984 148.35009766 C-159.06393034 132.06536172 -141.43809831 120.21773262 -122 112 C-120.88165771 111.5217981 -120.88165771 111.5217981 -119.74072266 111.03393555 C-103.1456252 104.12986828 -85.8545122 101.97616675 -68 102 C-67.22205078 101.99210449 -66.44410156 101.98420898 -65.64257812 101.97607422 C-42.09182519 101.85862684 -20.69411414 110.69117866 -1 123 C-0.67 82.41 -0.34 41.82 0 0 Z M-106 178 C-107.19882813 178.98419922 -107.19882813 178.98419922 -108.421875 179.98828125 C-124.76319871 193.92792556 -135.3541599 215.13888662 -137.22509766 236.57958984 C-138.33318821 262.33903415 -132.23289994 284.67300508 -114.75 304.1875 C-101.36816945 318.5690156 -83.50179585 328.26202497 -63.68359375 329.3828125 C-42.07149761 330.0755679 -22.05014398 323.91585819 -6 309 C-4.98106659 308.19867645 -3.96213318 307.39735291 -2.912323 306.57174683 C0.60581742 303.00967251 0.73632971 299.84507447 0.83538818 294.98083496 C0.82638489 293.93028931 0.81738159 292.87974365 0.80810547 291.79736328 C0.82869522 290.11820328 0.82869522 290.11820328 0.84970093 288.40512085 C0.88626265 284.70966658 0.87855932 281.01590859 0.8671875 277.3203125 C0.87631058 274.74729866 0.88692156 272.17428971 0.8989563 269.60128784 C0.91682388 264.20938989 0.91243666 258.81814116 0.89208984 253.42626953 C0.86914162 247.20791658 0.89725585 240.99129023 0.95088279 234.77316487 C1.00066378 228.77472735 1.00553233 222.77717343 0.99264908 216.7784996 C0.99234268 214.23402918 1.00442917 211.68952549 1.02923203 209.14517593 C1.05906532 205.58262869 1.03769884 202.0238566 1.00341797 198.46142578 C1.02275391 197.41492859 1.04208984 196.3684314 1.06201172 195.29022217 C0.94747068 189.59255336 0.20313019 186.57284035 -3.86032104 182.44454956 C-5.21097161 181.26210619 -6.58937882 180.11021493 -8 179 C-8.83443728 178.32169475 -8.83443728 178.32169475 -9.68573189 177.62968636 C-38.01810286 155.65970144 -78.16561802 154.18236827 -106 178 Z " fill="#009FE2" transform="translate(1249,269)"/>
<path d="M0 0 C0.64549805 0.28713867 1.29099609 0.57427734 1.95605469 0.87011719 C25.93942692 11.67606912 45.25831264 28.26495152 60 50 C60.57935303 50.83845459 60.57935303 50.83845459 61.17041016 51.69384766 C67.23371436 60.55850077 71.23186164 70.01128273 75 80 C75.39058594 80.99386719 75.78117187 81.98773438 76.18359375 83.01171875 C82.16427294 99.32477756 84.03225328 117.06006522 84.125 134.3125 C84.12983398 135.17367432 84.13466797 136.03484863 84.13964844 136.92211914 C84.13739258 137.74832764 84.13513672 138.57453613 84.1328125 139.42578125 C84.13168457 140.16223877 84.13055664 140.89869629 84.12939453 141.6574707 C83.97462356 144.45940933 83.46133807 147.23197159 83 150 C15.02 150 -52.96 150 -123 150 C-117.53042519 164.58553283 -112.79267978 174.555777 -103 186 C-102.5153125 186.60457031 -102.030625 187.20914063 -101.53125 187.83203125 C-87.28852892 204.00661077 -63.48053921 209.37622323 -43 211 C-14.51689704 212.62881991 13.0171859 209.3349147 35.2109375 190.08203125 C38.74713023 186.70250529 41.3641255 183.10024922 44 179 C46.95810476 177.52094762 49.9547155 177.87809097 53.1953125 177.90234375 C53.90275604 177.9037587 54.61019958 177.90517365 55.33908081 177.90663147 C57.60109669 177.912234 59.86301398 177.92478682 62.125 177.9375 C63.65755065 177.94251468 65.19010286 177.94707764 66.72265625 177.95117188 C70.48180888 177.96220423 74.24088772 177.97947048 78 178 C76.93329377 189.83646379 73.29233846 200.38575695 68 211 C67.24589844 212.54300781 67.24589844 212.54300781 66.4765625 214.1171875 C53.71810755 239.09500774 31.67698843 258.04717848 5 267 C1.76682516 267.96495638 -1.4833416 268.84331786 -4.75 269.6875 C-5.90943115 269.99143677 -5.90943115 269.99143677 -7.09228516 270.30151367 C-20.47115012 273.57454279 -33.97036948 274.38530194 -47.6875 274.3125 C-48.42601196 274.31034485 -49.16452393 274.3081897 -49.92541504 274.30596924 C-75.78787586 274.18550707 -100.69845025 269.55756867 -124 258 C-125.11503906 257.45601562 -126.23007813 256.91203125 -127.37890625 256.3515625 C-148.98796121 245.27399642 -165.64088661 229.20001203 -179 209 C-179.51304688 208.23429688 -180.02609375 207.46859375 -180.5546875 206.6796875 C-185.10081645 199.5425006 -188.06642593 191.89231433 -191 184 C-191.37125 183.05769531 -191.7425 182.11539063 -192.125 181.14453125 C-204.30611548 148.169871 -202.58134167 107.86722034 -188 76 C-179.93950382 58.55836137 -170.08912058 44.11939125 -157 30 C-156.43410156 29.35675781 -155.86820313 28.71351563 -155.28515625 28.05078125 C-117.49888453 -12.82008408 -49.49362031 -22.57834299 0 0 Z M-102.34765625 64.62109375 C-106.72481626 70.1544847 -110.23162142 75.92005892 -113.4375 82.1875 C-113.76766113 82.82816406 -114.09782227 83.46882813 -114.43798828 84.12890625 C-116.91198501 89.20377133 -117.71382468 93.21221105 -119 99 C-75.77 99 -32.54 99 12 99 C4.83500332 78.93800931 -3.44521976 61.40673436 -23.0625 51.1875 C-48.92771684 39.14679561 -82.76913618 42.76221361 -102.34765625 64.62109375 Z " fill="#009FE2" transform="translate(1563,384)"/>
<path d="M0 0 C0.97582031 0.34546875 1.95164062 0.6909375 2.95703125 1.046875 C24.26821112 9.20266074 42.14128862 25.42200184 51.5 46.3125 C57.55974622 61.81800654 59.73455975 76.21841598 59.56762695 92.79174805 C59.56621228 94.79452478 59.56701662 96.7973041 59.56983948 98.80007935 C59.57125868 104.17298429 59.54211429 109.54531717 59.50696969 114.91809058 C59.47545366 120.5567575 59.47275573 126.19544133 59.46684265 131.83418274 C59.45137777 142.48325616 59.41044996 153.13206918 59.3600952 163.78102857 C59.30397131 175.91663063 59.27665756 188.05224593 59.25161803 200.18794572 C59.19952673 225.12544083 59.1117292 250.06270574 59 275 C51.06386213 275.02312764 43.12773824 275.04091723 35.19157505 275.05181217 C31.50685502 275.05704008 27.82215797 275.06413605 24.13745117 275.07543945 C20.58429169 275.08627162 17.03115437 275.09227753 13.47797966 275.09487724 C12.11954334 275.0967309 10.76110829 275.10035038 9.40268135 275.10573006 C7.50617777 275.11294475 5.60965207 275.11340809 3.71313477 275.11352539 C2.63169693 275.115746 1.55025909 275.11796661 0.43605042 275.12025452 C-2 275 -2 275 -3 274 C-3.23678716 271.30764224 -3.42198025 268.63501844 -3.5625 265.9375 C-3.60568359 265.17888672 -3.64886719 264.42027344 -3.69335938 263.63867188 C-3.79973633 261.75934562 -3.90039934 259.87969756 -4 258 C-4.48726562 258.42410156 -4.97453125 258.84820313 -5.4765625 259.28515625 C-29.72511598 279.34532322 -62.32285049 281.39969243 -92.43603516 278.69091797 C-114.76507725 276.00402079 -135.11710369 268.16015179 -152 253 C-153.06154297 252.07960938 -153.06154297 252.07960938 -154.14453125 251.140625 C-167.15284191 239.13295363 -175.81040767 220.61364131 -177 203 C-177.88523462 180.59411014 -176.18206365 158.91339567 -163 140 C-162.40445312 139.11054687 -161.80890625 138.22109375 -161.1953125 137.3046875 C-146.80807742 116.56164575 -125.02090177 103.52509716 -100.9375 96.9375 C-99.79152344 96.61652344 -98.64554688 96.29554688 -97.46484375 95.96484375 C-85.04898236 93.06462511 -72.64974134 92.65350036 -59.96777344 92.68432617 C-57.26716429 92.68747996 -54.5676619 92.66394894 -51.8671875 92.63867188 C-35.19789581 92.57712448 -19.31893084 94.04185008 -4 101 C-3.46719704 87.20636774 -3.46719704 87.20636774 -7 74 C-7.32871094 73.18402344 -7.65742187 72.36804688 -7.99609375 71.52734375 C-14.43598999 57.10999819 -26.55965211 48.5491972 -41 43 C-57.11187476 37.90388577 -78.33568276 38.86799288 -94 45 C-95.18078125 45.42410156 -96.3615625 45.84820312 -97.578125 46.28515625 C-106.10965516 49.59989578 -113.03614232 54.09342874 -120 60 C-120.72832031 60.61488281 -121.45664063 61.22976563 -122.20703125 61.86328125 C-129.19776355 68.30247648 -134.50223877 76.86140769 -138.63671875 85.3671875 C-140 88 -140 88 -142 89 C-144.17760555 88.46899468 -146.33116342 87.83834448 -148.46875 87.1640625 C-149.10486206 86.96525482 -149.74097412 86.76644714 -150.3963623 86.56161499 C-152.43314195 85.9229431 -154.46645596 85.27389109 -156.5 84.625 C-157.87089368 84.19467463 -159.24198529 83.76497923 -160.61328125 83.3359375 C-170.63073388 80.18463306 -170.63073388 80.18463306 -173 79 C-172.4333284 73.73609876 -171.1970478 69.09959894 -169.1875 64.1875 C-168.89125732 63.46336914 -168.59501465 62.73923828 -168.28979492 61.99316406 C-163.22744142 50.28513857 -155.20968622 37.03624626 -145.375 28.75 C-143.11863586 26.83726563 -140.91643242 24.91952752 -138.78515625 22.8671875 C-131.87588254 16.26831378 -124.30971771 11.59636412 -116 7 C-115.11183594 6.505 -114.22367188 6.01 -113.30859375 5.5 C-100.21983296 -1.40017043 -86.45059954 -4.50034026 -72 -7 C-70.9378125 -7.19464844 -69.875625 -7.38929688 -68.78125 -7.58984375 C-45.68070672 -10.0955845 -21.86721282 -7.99510646 0 0 Z M-103 158 C-105.6346923 160.8361984 -107.8810983 163.76263294 -110 167 C-110.43441406 167.639375 -110.86882812 168.27875 -111.31640625 168.9375 C-115.44285069 176.29896186 -115.33637601 185.85110747 -114 194 C-112.49451328 199.13679324 -109.91975081 203.52744537 -107 208 C-106.35224609 209.04027344 -106.35224609 209.04027344 -105.69140625 210.1015625 C-97.33124689 221.50888275 -81.27145328 227.50184673 -67.9375 229.8125 C-58.80299404 231.21780861 -50.14999783 231.17044994 -41 230 C-40.3287207 229.91476074 -39.65744141 229.82952148 -38.96582031 229.74169922 C-26.85662879 228.0824649 -12.59312555 224.90058714 -3 217 C-2.13335514 213.83137061 -2.13335514 213.83137061 -2.31884766 210.21191406 C-2.3179715 209.53833359 -2.31709534 208.86475311 -2.31619263 208.17076111 C-2.32036276 205.9511895 -2.36697548 203.73466623 -2.4140625 201.515625 C-2.42525698 199.97436169 -2.43379598 198.43307698 -2.43978882 196.89178467 C-2.46266819 192.84044157 -2.52158109 188.79039482 -2.5880127 184.73956299 C-2.64945606 180.60389748 -2.67680805 176.4680219 -2.70703125 172.33203125 C-2.77132753 164.22076008 -2.87369345 156.11054142 -3 148 C-4.57207395 147.18984248 -6.14702506 146.38526658 -7.72314453 145.58300781 C-8.59987823 145.13435364 -9.47661194 144.68569946 -10.37991333 144.22344971 C-14.12284094 142.47568932 -17.83511528 141.53402782 -21.875 140.75 C-22.68163086 140.58870605 -23.48826172 140.42741211 -24.31933594 140.26123047 C-51.60618931 135.17322676 -81.93586156 138.3519381 -103 158 Z " fill="#009FE2" transform="translate(1864,380)"/>
<path d="M0 0 C1.25908676 0.00222061 2.51817352 0.00444122 3.81541443 0.00672913 C4.50806396 0.0065831 5.2007135 0.00643707 5.91435242 0.00628662 C8.21400537 0.00698577 10.51357828 0.01477823 12.81321716 0.02259827 C14.40362504 0.02446244 15.99403349 0.02588635 17.58444214 0.02688599 C21.77827021 0.03071123 25.97206386 0.04054156 30.1658783 0.05158997 C34.44220006 0.06180395 38.71852736 0.06638358 42.99485779 0.07142639 C51.39135799 0.08216383 59.78783017 0.09924032 68.18431091 0.12025452 C68.20717608 36.02836465 68.22480852 71.9364735 68.23537624 107.84458941 C68.23662702 112.07930006 68.23792134 116.31401069 68.23924255 120.54872131 C68.23950486 121.39181237 68.23976717 122.23490342 68.24003743 123.10354269 C68.24439438 136.77310628 68.25228206 150.44266568 68.26146371 164.11222678 C68.27079957 178.12777514 68.27636638 192.14332131 68.27839941 206.15887266 C68.27977478 214.81433772 68.28412611 223.46979095 68.29222738 232.12525237 C68.29749401 238.052381 68.2991154 243.97950347 68.29781229 249.90663426 C68.29716878 253.33149192 68.29818789 256.75632885 68.30351639 260.18118286 C68.30844601 263.88553531 68.30731191 267.58983596 68.30456543 271.29418945 C68.30747827 272.38852403 68.31039111 273.48285861 68.31339222 274.61035484 C68.31140117 275.59466344 68.30941013 276.57897204 68.30735874 277.59310818 C68.30773846 278.44937752 68.30811818 279.30564687 68.30850941 280.18786377 C68.18431091 282.12025452 68.18431091 282.12025452 67.18431091 283.12025452 C65.01168411 283.21981729 62.83577985 283.2482517 60.66087341 283.24964905 C59.97958374 283.25140137 59.29829407 283.25315369 58.59635925 283.25495911 C56.33398424 283.25937694 54.07168678 283.25643989 51.80931091 283.25306702 C50.24371831 283.25374008 48.67812581 283.25471012 47.11253357 283.25596619 C43.82720446 283.25744307 40.5419025 283.25528893 37.25657654 283.25062561 C33.03610575 283.24492832 28.81569855 283.24820738 24.5952301 283.25419807 C21.36114519 283.25780396 18.12707547 283.25666498 14.89299011 283.25407028 C13.3363901 283.25340109 11.77978873 283.25422917 10.22319031 283.25654984 C8.05133895 283.25907682 5.87959195 283.25523516 3.70774841 283.24964905 C2.46944275 283.24885345 1.23113708 283.24805786 -0.04469299 283.24723816 C-2.81568909 283.12025452 -2.81568909 283.12025452 -3.81568909 282.12025452 C-3.91339327 280.61993536 -3.94124396 279.11501599 -3.94153023 277.61151886 C-3.94413797 276.63131035 -3.94674572 275.65110185 -3.94943249 274.64119005 C-3.94720177 273.55142854 -3.94497105 272.46166703 -3.94267273 271.33888245 C-3.94423272 270.19125537 -3.94579271 269.0436283 -3.94739997 267.86122465 C-3.95071313 264.66155957 -3.94950088 261.46193201 -3.94641376 258.26226783 C-3.94416144 254.81710589 -3.94763842 251.37194923 -3.95039368 247.92678833 C-3.95485218 241.17210451 -3.95387455 234.41743177 -3.95098104 227.6627475 C-3.94872732 222.1755547 -3.94841434 216.68836501 -3.94950485 211.20117188 C-3.94965809 210.42171958 -3.94981132 209.64226728 -3.94996919 208.83919522 C-3.9502889 207.25600548 -3.95061312 205.67281575 -3.95094179 204.08962601 C-3.95379681 189.22626465 -3.9505092 174.36290944 -3.94514142 159.49954909 C-3.94067336 146.7320012 -3.94144929 133.9644624 -3.94606018 121.19691467 C-3.95140554 106.38858595 -3.95352212 91.58026263 -3.95044792 76.77193308 C-3.95012935 75.19440111 -3.94981498 73.61686913 -3.94950485 72.03933716 C-3.94935058 71.26305787 -3.9491963 70.48677859 -3.94903735 69.68697569 C-3.94817208 64.20314036 -3.94963529 58.71930844 -3.95198441 53.23547363 C-3.95478218 46.55715517 -3.95404462 39.87884847 -3.94870366 33.20053136 C-3.94606634 29.78984516 -3.94506209 26.37917859 -3.94835281 22.96849251 C-3.95106104 19.27951722 -3.94768722 15.59059823 -3.94267273 11.90162659 C-3.94490345 10.81186508 -3.94713417 9.72210357 -3.94943249 8.59931898 C-3.94682474 7.61911047 -3.944217 6.63890197 -3.94153023 5.62899017 C-3.94136788 4.77630066 -3.94120552 3.92361115 -3.94103825 3.04508257 C-3.73739739 -0.08197169 -3.17079407 0.1354206 0 0 Z " fill="#009FE2" transform="translate(919.8156890869141,370.87974548339844)"/>
<path d="M0 0 C1.25908676 0.00222061 2.51817352 0.00444122 3.81541443 0.00672913 C4.50806396 0.0065831 5.2007135 0.00643707 5.91435242 0.00628662 C8.21400537 0.00698577 10.51357828 0.01477823 12.81321716 0.02259827 C14.40362504 0.02446244 15.99403349 0.02588635 17.58444214 0.02688599 C21.77827021 0.03071123 25.97206386 0.04054156 30.1658783 0.05158997 C34.44220006 0.06180395 38.71852736 0.06638358 42.99485779 0.07142639 C51.39135799 0.08216383 59.78783017 0.09924032 68.18431091 0.12025452 C68.20743615 9.36023003 68.22522692 18.60019565 68.23612309 27.84019375 C68.24135152 32.13025367 68.24844844 36.42029385 68.25975037 40.71034241 C68.27058066 44.84704852 68.27658805 48.9837356 68.27918816 53.12045479 C68.28104215 54.70217756 68.28466227 56.28389923 68.29004097 57.86561394 C68.29725331 60.0734829 68.29830178 62.28127224 68.2978363 64.489151 C68.30005692 65.74823776 68.30227753 67.00732452 68.30456543 68.30456543 C68.18431091 71.12025452 68.18431091 71.12025452 67.18431091 72.12025452 C65.01168411 72.21981729 62.83577985 72.2482517 60.66087341 72.24964905 C59.97958374 72.25140137 59.29829407 72.25315369 58.59635925 72.25495911 C56.33398424 72.25937694 54.07168678 72.25643989 51.80931091 72.25306702 C50.24371831 72.25374008 48.67812581 72.25471012 47.11253357 72.25596619 C43.82720446 72.25744307 40.5419025 72.25528893 37.25657654 72.25062561 C33.03610575 72.24492832 28.81569855 72.24820738 24.5952301 72.25419807 C21.36114519 72.25780396 18.12707547 72.25666498 14.89299011 72.25407028 C13.3363901 72.25340109 11.77978873 72.25422917 10.22319031 72.25654984 C8.05133895 72.25907682 5.87959195 72.25523516 3.70774841 72.24964905 C2.46944275 72.24885345 1.23113708 72.24805786 -0.04469299 72.24723816 C-2.81568909 72.12025452 -2.81568909 72.12025452 -3.81568909 71.12025452 C-3.91525186 68.94762771 -3.94368627 66.77172346 -3.94508362 64.59681702 C-3.94683594 63.91552734 -3.94858826 63.23423767 -3.95039368 62.53230286 C-3.95481151 60.26992785 -3.95187446 58.00763038 -3.94850159 55.74525452 C-3.94917465 54.17966192 -3.95014469 52.61406942 -3.95140076 51.04847717 C-3.95287764 47.76314807 -3.9507235 44.4778461 -3.94606018 41.19252014 C-3.94036289 36.97204936 -3.94364195 32.75164216 -3.94963264 28.53117371 C-3.95323853 25.2970888 -3.95209955 22.06301907 -3.94950485 18.82893372 C-3.94883566 17.27233371 -3.94966374 15.71573234 -3.95198441 14.15913391 C-3.95451139 11.98728256 -3.95066973 9.81553556 -3.94508362 7.64369202 C-3.94428802 6.40538635 -3.94349243 5.16708069 -3.94267273 3.89125061 C-3.7707739 0.14012975 -3.75772228 0.16048756 0 0 Z " fill="#009FE2" transform="translate(919.8156890869141,268.87974548339844)"/>
<path d="M0 0 C3.3047593 3.27190881 5.7822793 6.85069862 7.96484375 10.9453125 C8.30684814 11.57687256 8.64885254 12.20843262 9.0012207 12.85913086 C12.00283579 18.88040681 12.63363739 24.07931943 12.52734375 30.7578125 C12.51711182 31.72541504 12.50687988 32.69301758 12.49633789 33.68994141 C12.18581961 44.16663476 9.32227548 52.48434779 1.9765625 60.1328125 C-4.36852373 65.84955038 -10.72944837 69.86054647 -19.03515625 71.9453125 C-19.83953125 72.1721875 -20.64390625 72.3990625 -21.47265625 72.6328125 C-34.09140529 74.17168433 -44.93250664 71.74715164 -55.03515625 63.9453125 C-55.90140625 63.3678125 -56.76765625 62.7903125 -57.66015625 62.1953125 C-66.41912683 53.89734037 -70.394553 44.06790273 -71.08984375 32.1875 C-70.87432876 19.41054003 -66.25872617 9.55156561 -57.84765625 0.1328125 C-41.36629417 -15.23993778 -16.76109227 -14.00293785 0 0 Z M-54.0859375 6.98828125 C-60.06647016 14.22382932 -63.73614599 22.52648945 -64.03515625 31.9453125 C-63.6314479 35.03859133 -62.90591433 37.9530711 -62.03515625 40.9453125 C-61.87402344 41.60402344 -61.71289062 42.26273437 -61.546875 42.94140625 C-59.35730954 50.34422279 -53.86719708 56.37262781 -47.5390625 60.62109375 C-38.15112811 65.58600757 -29.28760721 67.03921797 -18.94140625 64.4140625 C-7.80935138 60.70337754 -1.56406447 53.9692785 3.59375 43.703125 C6.76517357 36.07060658 6.24592551 26.12472817 3.86328125 18.3515625 C-0.93106278 8.19883396 -7.58864733 2.00970986 -18.03515625 -2.0546875 C-31.04746373 -5.32318179 -44.4580413 -2.60293725 -54.0859375 6.98828125 Z " fill="#009FE2" transform="translate(1988.03515625,245.0546875)"/>
<path d="M0 0 C27.76470588 0 27.76470588 0 34.4375 4.125 C37.55515518 7.62285703 38.71597134 10.34559485 39 15 C38.10998979 20.0433912 35.91282702 22.75521662 32 26 C31.01 26 30.02 26 29 26 C29.56181154 27.27113784 30.12451199 28.54188278 30.6875 29.8125 C31.04714844 30.62589844 31.40679688 31.43929688 31.77734375 32.27734375 C32.62846852 34.17265994 33.49701645 36.0602079 34.37890625 37.94140625 C34.83136719 38.90949219 35.28382812 39.87757813 35.75 40.875 C36.17796875 41.77992188 36.6059375 42.68484375 37.046875 43.6171875 C38 46 38 46 38 49 C34.37 49 30.74 49 27 49 C25.49239502 46.23306625 23.99373826 43.46190575 22.5 40.6875 C22.07074219 39.90181641 21.64148437 39.11613281 21.19921875 38.30664062 C20.59013672 37.1706543 20.59013672 37.1706543 19.96875 36.01171875 C19.59169922 35.31522217 19.21464844 34.61872559 18.82617188 33.90112305 C18 32 18 32 18 29 C15.36 29 12.72 29 10 29 C10 35.6 10 42.2 10 49 C6.7 49 3.4 49 0 49 C0 32.83 0 16.66 0 0 Z M10 8 C10 12.29 10 16.58 10 21 C13.09375 21.061875 13.09375 21.061875 16.25 21.125 C17.41015625 21.14820313 18.5703125 21.17140625 19.765625 21.1953125 C22.82786046 21.0103949 24.44202751 20.60823023 27 19 C27.103125 17.741875 27.20625 16.48375 27.3125 15.1875 C27.37050781 14.47980469 27.42851563 13.77210938 27.48828125 13.04296875 C27.16358764 10.77631334 27.16358764 10.77631334 24.875 9.25 C21.56426523 7.8105501 19.27970442 7.69407568 15.6875 7.8125 C12.8721875 7.9053125 12.8721875 7.9053125 10 8 Z " fill="#009FE2" transform="translate(1942,251)"/>
</svg>
