<?xml version="1.0" encoding="UTF-8"?>
<svg version="1.1" xmlns="http://www.w3.org/2000/svg" width="2000" height="302">
<path d="M0 0 C3.21923915 0.20544775 4.60133492 0.5564817 6.78588867 2.98681641 C7.3244751 3.84968262 7.86306152 4.71254883 8.41796875 5.6015625 C9.02705078 6.55869141 9.63613281 7.51582031 10.26367188 8.50195312 C10.89853516 9.53255859 11.53339844 10.56316406 12.1875 11.625 C13.53456785 13.75297675 14.88222369 15.88058141 16.23046875 18.0078125 C17.2057251 19.56290527 17.2057251 19.56290527 18.20068359 21.14941406 C20.40569486 24.64272635 22.68629226 28.0781871 25 31.5 C29.8906654 38.78776566 34.66869334 46.14838632 39.45507812 53.50488281 C43.49415663 59.70731313 47.5716637 65.88146883 51.69287109 72.02954102 C55.21689423 77.29751153 58.62997672 82.63251259 62 88 C69.51292753 86.60261118 76.15795139 84.0838042 83.1875 81.125 C85.60115762 80.12532397 88.01523564 79.12666247 90.4296875 78.12890625 C91.05065811 77.87131027 91.67162872 77.61371429 92.31141663 77.34831238 C99.12083067 74.5258224 105.9652704 71.79173969 112.8125 69.0625 C114.08938629 68.55289296 115.36624154 68.04320817 116.64306641 67.53344727 C118.56282777 66.76703374 120.48262059 66.00069994 122.40255737 65.23472595 C126.50440573 63.59810394 130.60436518 61.95684022 134.703125 60.3125 C151.07597554 53.74658166 167.47314154 47.24308243 183.875 40.75 C204.77772445 32.47501681 225.66224039 24.15598045 246.52929688 15.79150391 C253.08973422 13.16206544 259.65235581 10.53808787 266.21487427 7.91384888 C269.26182323 6.6953804 272.30864204 5.47658666 275.35546875 4.2578125 C277.23697917 3.50520833 279.11848958 2.75260417 281 2 C281.87309814 1.62601074 282.74619629 1.25202148 283.64575195 0.86669922 C286.52713023 -0.19405914 288.95451044 -0.14165068 292 0 C283.49163773 10.16276605 274.26943378 19.71895796 265.22387695 29.40112305 C250.07153766 45.4776383 250.07153766 45.4776383 235.5625 62.125 C234.716875 63.07375 233.87125 64.0225 233 65 C232.34 65 231.68 65 231 65 C230.74605469 65.58265625 230.49210937 66.1653125 230.23046875 66.765625 C228.86679667 69.24188033 227.35774797 70.80520626 225.3125 72.75 C221.94356429 75.96365411 218.90128083 79.37686935 215.85375977 82.89013672 C212.91890645 86.23045048 209.86620351 89.45613822 206.8125 92.6875 C205.50226697 94.08041206 204.19237631 95.47364624 202.8828125 96.8671875 C202.23473633 97.55651367 201.58666016 98.24583984 200.91894531 98.95605469 C197.99903595 102.06616679 195.08883185 105.18505538 192.1875 108.3125 C191.69032471 108.84512451 191.19314941 109.37774902 190.6809082 109.92651367 C188.56865114 112.20819716 186.73016316 114.40475526 185 117 C184.34 117 183.68 117 183 117 C182.76667969 117.56203125 182.53335937 118.1240625 182.29296875 118.703125 C180.68062924 121.56734142 178.6806438 123.47252021 176.3125 125.75 C172.61640453 129.31388677 169.20650006 133.01660818 165.84985352 136.89404297 C162.76122411 140.41027858 159.53346987 143.79287166 156.3125 147.1875 C148.00883251 155.97594085 139.744795 164.79671638 131.6875 173.8125 C127.11942188 178.91021037 122.43309272 183.89345423 117.74365234 188.87915039 C113.08249116 193.83669617 108.45362973 198.82240346 103.85620117 203.83911133 C102.57687976 205.23168339 101.28875634 206.61615488 100 208 C99.38922607 208.66990967 98.77845215 209.33981934 98.14916992 210.0300293 C95.85214175 212.13552973 94.01785645 213.07278746 91.125 214.19140625 C89.66960815 214.7635083 89.66960815 214.7635083 88.18481445 215.34716797 C87.13382568 215.74822754 86.08283691 216.14928711 85 216.5625 C83.89422607 216.99449707 82.78845215 217.42649414 81.64916992 217.87158203 C79.29562616 218.79028773 76.94034782 219.7045602 74.58349609 220.61474609 C68.81696294 222.84388556 63.06590948 225.11225844 57.3125 227.375 C56.15153809 227.8302002 54.99057617 228.28540039 53.79443359 228.75439453 C41.432599 233.60326868 29.10689463 238.54158828 16.78222656 243.48388672 C10.52316097 245.99344629 4.26140823 248.49629268 -2 251 C-4.51044475 252.00383604 -7.02086695 253.00772842 -9.53125 254.01171875 C-10.15166168 254.25984314 -10.77207336 254.50796753 -11.4112854 254.76361084 C-15.68133613 256.47168676 -19.95023974 258.18260837 -24.21875 259.89453125 C-38.71062913 265.70378432 -53.22161805 271.46186356 -67.74777222 277.18481445 C-85.64609635 284.23797053 -103.50740234 291.38302975 -121.36352539 298.54223633 C-122.56356201 299.02329834 -123.76359863 299.50436035 -125 300 C-125.90548584 300.39533936 -126.81097168 300.79067871 -127.74389648 301.19799805 C-130 302 -130 302 -134 302 C-135.84912109 299.86157227 -135.84912109 299.86157227 -137.7734375 296.81640625 C-138.12989349 296.26213455 -138.48634949 295.70786285 -138.85360718 295.13679504 C-140.04013596 293.2864983 -141.20704499 291.42456578 -142.375 289.5625 C-143.63276836 287.59238655 -144.89567085 285.62562403 -146.15869141 283.65887451 C-147.04736229 282.27421563 -147.93437122 280.88848887 -148.81982422 279.50177002 C-154.0114937 271.3806413 -159.38246433 263.38047002 -164.75 255.375 C-170.05702643 247.45532449 -175.33649868 239.53044085 -180.42285156 231.46630859 C-181.95124352 229.07624427 -183.52574978 226.72591182 -185.125 224.3828125 C-185.60324219 223.67382812 -186.08148438 222.96484375 -186.57421875 222.234375 C-187.54543985 220.79749995 -188.52770142 219.36804013 -189.51953125 217.9453125 C-192.94155676 212.81698777 -192.94155676 212.81698777 -193.1875 209.37890625 C-191.42770179 205.85352102 -188.86069503 203.47874686 -186 200.8125 C-182.01691982 197.2836585 -182.01691982 197.2836585 -179 193 C-178.34 193 -177.68 193 -177 193 C-176.76667969 192.43796875 -176.53335937 191.8759375 -176.29296875 191.296875 C-174.68062924 188.43265858 -172.6806438 186.52747979 -170.3125 184.25 C-166.68491631 180.69486448 -163.2543037 177.08645536 -159.94921875 173.234375 C-157.49566308 170.42188232 -154.97123917 167.67749759 -152.4375 164.9375 C-151.93645752 164.39528809 -151.43541504 163.85307617 -150.91918945 163.29443359 C-148.0080215 160.1506805 -145.08291607 157.02044141 -142.1484375 153.8984375 C-141.5097876 153.21789307 -140.8711377 152.53734863 -140.21313477 151.83618164 C-138.9631326 150.50525448 -137.711072 149.17625707 -136.45678711 147.84936523 C-135.60612671 146.94359741 -135.60612671 146.94359741 -134.73828125 146.01953125 C-134.23337158 145.48432861 -133.72846191 144.94912598 -133.20825195 144.39770508 C-131.89398669 142.99347975 -131.89398669 142.99347975 -131 141 C-130.34 141 -129.68 141 -129 141 C-128.76667969 140.43796875 -128.53335938 139.8759375 -128.29296875 139.296875 C-126.68062924 136.43265858 -124.6806438 134.52747979 -122.3125 132.25 C-118.61784923 128.68750626 -115.20949765 124.98631403 -111.85424805 121.11035156 C-108.74433902 117.57091067 -105.49316208 114.16695228 -102.25 110.75 C-95.76741832 103.8911404 -89.35698857 96.97529749 -83 90 C-72.86742235 78.92758906 -62.7135561 67.87711275 -52.4375 56.9375 C-47.15427007 51.31277105 -41.90840701 45.65748954 -36.70703125 39.95703125 C-34.73599473 37.79848624 -32.75204983 35.65248524 -30.76171875 33.51171875 C-30.21797607 32.92608154 -29.6742334 32.34044434 -29.11401367 31.73706055 C-28.06753129 30.61079794 -27.01960381 29.48587566 -25.9699707 28.36254883 C-23.94894356 26.18513472 -22.02439566 24.03371036 -20.28125 21.625 C-19.8584375 21.08875 -19.435625 20.5525 -19 20 C-18.34 20 -17.68 20 -17 20 C-16.60361328 19.11054687 -16.60361328 19.11054687 -16.19921875 18.203125 C-14.95629575 15.91970946 -13.69598354 14.52573277 -11.8125 12.75 C-8.47591933 9.51834325 -5.41258922 6.12045116 -2.3828125 2.6015625 C-1.61429517 1.71147181 -0.83152881 0.83152881 0 0 Z " fill="#FD0000" transform="translate(433,0)"/>
<path d="M0 0 C-3.97779456 5.74570326 -8.41580577 10.59422724 -13.42089844 15.43457031 C-16.87335653 18.79144288 -20.05916895 22.30892239 -23.20776367 25.95166016 C-26.1166554 29.27622106 -29.15358862 32.47736143 -32.1875 35.6875 C-33.51342292 37.09597575 -34.83893881 38.50483478 -36.1640625 39.9140625 C-36.81407227 40.60532227 -37.46408203 41.29658203 -38.13378906 42.00878906 C-40.79247596 44.84555651 -43.42986922 47.7015652 -46.0625 50.5625 C-50.4148344 55.29227261 -54.79531803 59.99471688 -59.1875 64.6875 C-62.99625483 68.7588922 -66.78429223 72.84309502 -70.5 77 C-77.80334904 85.16573712 -85.34832656 93.11241706 -92.84765625 101.09765625 C-100.28491085 109.01802102 -107.67674541 116.97406431 -115 125 C-125.54367498 136.52022374 -136.12450924 148.00413364 -146.78833008 159.41333008 C-151.02700314 163.9506409 -155.24445193 168.50689668 -159.44995117 173.07495117 C-162.77177366 176.67962301 -166.11482728 180.26373248 -169.46606445 183.84106445 C-175.72067081 190.50268618 -175.72067081 190.50268618 -181.8125 197.3125 C-182.33328125 197.90417969 -182.8540625 198.49585938 -183.390625 199.10546875 C-184.60526965 200.53532956 -185.77505176 202.00347149 -186.921875 203.48828125 C-190.92281262 208.41644347 -194.38245652 211.51664923 -200.30859375 213.91015625 C-200.91497681 214.15855759 -201.52135986 214.40695892 -202.14611816 214.66288757 C-204.09228883 215.45540821 -206.04518771 216.22906771 -208 217 C-209.29184622 217.516356 -210.58359432 218.03295758 -211.87524414 218.54980469 C-215.21250529 219.87859933 -218.55651511 221.1895047 -221.90310669 222.49459839 C-233.21480777 226.90677258 -244.48900393 231.3952425 -255.7109375 236.03173828 C-261.58098193 238.44715787 -267.49205175 240.71432178 -273.44946289 242.90405273 C-278.86734854 244.91018567 -284.14392667 247.19007709 -289.4375 249.5 C-293.92353821 251.38885819 -298.4718069 253.0700899 -303.0390625 254.75 C-307.41985302 256.37376791 -311.71621763 258.13071315 -316 260 C-321.61733604 262.45120118 -327.29028654 264.63550769 -333.0390625 266.75 C-337.41985302 268.37376791 -341.71621763 270.13071315 -346 272 C-350.72451559 274.05736481 -355.47783924 275.9697835 -360.3125 277.75 C-367.18982375 280.28813072 -374.00715415 282.96240074 -380.8125 285.6875 C-381.85656006 286.10531738 -382.90062012 286.52313477 -383.97631836 286.95361328 C-389.83065774 289.30417578 -395.67228579 291.68363886 -401.50390625 294.08984375 C-402.74696145 294.60138514 -403.99004386 295.11286042 -405.2331543 295.62426758 C-407.62589347 296.61026796 -410.01674916 297.60085383 -412.40551758 298.59643555 C-413.48599365 299.04156494 -414.56646973 299.48669434 -415.6796875 299.9453125 C-416.63601074 300.34250488 -417.59233398 300.73969727 -418.57763672 301.14892578 C-421 302 -421 302 -424 302 C-423.41226656 298.6514781 -422.35567019 296.96322843 -420.0078125 294.53125 C-419.39091553 293.88406006 -418.77401855 293.23687012 -418.13842773 292.57006836 C-417.47399658 291.8869458 -416.80956543 291.20382324 -416.125 290.5 C-414.74293325 289.05391692 -413.36142634 287.60729858 -411.98046875 286.16015625 C-411.29903809 285.45004395 -410.61760742 284.73993164 -409.91552734 284.00830078 C-407.38277929 281.35288586 -404.90762478 278.65131422 -402.4375 275.9375 C-398.28223099 271.3859013 -394.08700075 266.87411889 -389.875 262.375 C-385.27912303 257.463484 -380.73532569 252.51301107 -376.25 247.5 C-368.48100979 238.86778865 -360.52012307 230.41004122 -352.57006836 221.94506836 C-348.18873655 217.27698698 -343.83393786 212.58567376 -339.49926758 207.87426758 C-336.80832211 204.95172619 -334.10630019 202.04021893 -331.390625 199.140625 C-330.46648804 198.15364624 -330.46648804 198.15364624 -329.52368164 197.14672852 C-328.34432009 195.88833516 -327.16390762 194.63092543 -325.98217773 193.37475586 C-323.11885155 190.31916392 -320.31123645 187.22911305 -317.56640625 184.06640625 C-313.90354879 179.8549583 -310.09195337 175.7977556 -306.25 171.75 C-300.7065622 165.88579381 -295.2122257 159.98487201 -289.7734375 154.0234375 C-286.5425632 150.49047999 -283.27057751 146.99616496 -280 143.5 C-273.95732413 137.0382736 -267.96686943 130.53178015 -262 124 C-260.18834254 122.02006086 -258.37559277 120.04112478 -256.5625 118.0625 C-256.11326172 117.57201172 -255.66402344 117.08152344 -255.20117188 116.57617188 C-252.78095091 113.93561785 -250.35508163 111.30047087 -247.921875 108.671875 C-247.14348267 107.83064087 -247.14348267 107.83064087 -246.34936523 106.97241211 C-245.37051348 105.91519002 -244.3909366 104.85863852 -243.41040039 103.80297852 C-242.72192017 103.05939087 -242.72192017 103.05939087 -242.01953125 102.30078125 C-241.56389297 101.81558517 -241.1082547 101.3303891 -240.6388092 100.83049011 C-238.95404606 98.99261446 -238.95404606 98.99261446 -237.36752319 96.89031982 C-232.14323265 90.37357728 -227.02453677 87.66391422 -219.26953125 84.83984375 C-217.47711072 84.14845974 -215.68471163 83.45701822 -213.89302158 82.7637434 C-211.95822909 82.01915655 -210.01937022 81.28602886 -208.07965088 80.55438232 C-203.84812258 78.95130926 -199.64387901 77.28323653 -195.44287109 75.60205078 C-194.71280916 75.30996923 -193.98274723 75.01788769 -193.23056221 74.71695518 C-191.73098188 74.11682523 -190.23144838 73.51657823 -188.7319603 72.9162178 C-184.87181142 71.37348581 -181.00717569 69.84209322 -177.14257812 68.31054688 C-176.36478437 68.00220224 -175.58699062 67.69385761 -174.78562737 67.3761692 C-173.2086658 66.7510179 -171.63168582 66.12591307 -170.0546875 65.50085449 C-163.01887691 62.71185511 -155.9840695 59.92032557 -148.94921875 57.12890625 C-148.18887266 56.827248 -147.42852657 56.52558975 -146.64513969 56.21479034 C-132.43483405 50.57654706 -118.23763369 44.90594959 -104.04623413 39.2203064 C-100.04315409 37.61669224 -96.03923313 36.01518558 -92.03515625 34.4140625 C-90.25141602 33.70056641 -90.25141602 33.70056641 -88.43164062 32.97265625 C-84.9453125 31.578125 -81.45898438 30.18359375 -77.97265625 28.7890625 C-76.83691162 28.33474854 -75.70116699 27.88043457 -74.53100586 27.41235352 C-72.05790559 26.42314761 -69.58476385 25.4340459 -67.11157227 24.44506836 C-59.12640644 21.25203227 -59.12640644 21.25203227 -51.14453125 18.05078125 C-43.62870101 15.03371955 -36.10567694 12.03620714 -28.56640625 9.078125 C-27.61182274 8.7035743 -27.61182274 8.7035743 -26.63795471 8.32145691 C-23.46479489 7.07691655 -20.29099079 5.83404401 -17.11645508 4.59301758 C-15.96169678 4.14079834 -14.80693848 3.6885791 -13.6171875 3.22265625 C-12.58190918 2.81797119 -11.54663086 2.41328613 -10.47998047 1.99633789 C-6.59348144 0.43492791 -4.27499253 -0.09293462 0 0 Z " fill="#FD0000" transform="translate(424,0)"/>
<path d="M0 0 C0 1.32 0 2.64 0 4 C-2.5 6.25 -2.5 6.25 -5 8 C-4.14921875 7.62488281 -3.2984375 7.24976562 -2.421875 6.86328125 C36.0997482 -9.40595748 92.04747666 -14.81133881 132 -1 C137.58465026 1.51309262 141.6739475 4.85973705 145 10 C147.07992442 15.82378838 145.83179874 19.07661521 143.25 24.625 C139.15251292 32.50470147 133.7123236 39.24584134 128 46 C127.25411621 46.89017822 127.25411621 46.89017822 126.49316406 47.79833984 C120.61307555 54.80484583 114.54913275 61.61713291 108.36328125 68.35546875 C105.20780631 71.88647128 102.25416073 75.56526558 99.28125 79.25 C96.93281032 82.08099578 94.49090098 84.79383598 92 87.5 C77.09840263 103.75628804 64.41308207 119.34767171 59 141 C39.53 141 20.06 141 0 141 C2.25 132 2.25 132 4 128 C3.35788574 128.24645264 2.71577148 128.49290527 2.05419922 128.74682617 C-12.78644856 134.39344096 -27.38943338 139.06420255 -43 142 C-44.23363281 142.24339111 -44.23363281 142.24339111 -45.4921875 142.49169922 C-68.11136664 146.86829358 -95.43090114 148.69423409 -115.875 136.25 C-119.88502355 132.00409271 -121.76489082 127.85148481 -122.5 122.0625 C-122.01459756 113.79447846 -117.05623426 107.19548704 -112 101 C-111.58363281 100.43796875 -111.16726563 99.8759375 -110.73828125 99.296875 C-102.64639725 88.89649556 -90.44053047 82.09614885 -79 76 C-78.13761719 75.52820313 -77.27523438 75.05640625 -76.38671875 74.5703125 C-62.7242167 67.37010684 -48.01385587 64.06138058 -33 61 C-31.9071167 60.77078857 -30.8142334 60.54157715 -29.68823242 60.30541992 C-16.57850416 57.68693444 -3.32564788 56.18188482 9.9375 54.5625 C23.92028323 52.85316258 37.89217974 51.10681965 51.81640625 48.96484375 C53.35445168 48.73711021 53.35445168 48.73711021 54.92356873 48.504776 C64.28759843 47.07992887 64.28759843 47.07992887 71.99609375 41.94921875 C75.82577805 35.98941245 75.82577805 35.98941245 76 29 C70.6462353 26.80113236 65.80872742 25.31052945 60 25 C58.89140625 24.93554688 57.7828125 24.87109375 56.640625 24.8046875 C38.15836366 24.24799288 18.19159191 27.95748129 3.45703125 39.81640625 C0.76235602 41.77977761 0.17924181 42.0004183 -3.34765625 41.9921875 C-7.74603824 40.79733293 -12.09579789 39.51064961 -16.4375 38.125 C-42.47936981 30.08785779 -72.2103515 25.23684071 -97.77734375 37.2578125 C-104.49226458 40.8879394 -110.81285893 45.0442372 -116.625 50 C-119 52 -119 52 -121 52 C-121 52.66 -121 53.32 -121 54 C-122.3984375 55.375 -122.3984375 55.375 -124.375 57 C-131.49724122 63.06335934 -138.02099297 69.71028472 -144.09765625 76.81640625 C-146.00707124 79.00811668 -147.97050598 81.1436766 -149.94775391 83.27416992 C-154.75878273 88.45964591 -159.31655348 93.77208159 -163.75390625 99.28515625 C-166.0883059 102.10673495 -168.51990598 104.80590712 -171 107.5 C-175.02743663 111.88061184 -178.82328929 116.39225799 -182.5625 121.01953125 C-185.45318194 124.55413112 -188.40484594 128.03213234 -191.375 131.5 C-192.14336182 132.39972534 -192.14336182 132.39972534 -192.92724609 133.31762695 C-194.27472471 134.88715109 -195.63665856 136.44423499 -197 138 C-197.64489128 138.82380913 -197.64489128 138.82380913 -198.30281067 139.66426086 C-200.77563469 141.61044787 -202.63882398 141.36051925 -205.7565918 141.34057617 C-206.93758957 141.34034958 -208.11858734 141.34012299 -209.33537292 141.33988953 C-210.61044205 141.32440567 -211.88551117 141.30892181 -213.19921875 141.29296875 C-214.50454056 141.28872391 -215.80986237 141.28447906 -217.15473938 141.28010559 C-220.62205279 141.26866089 -224.08898813 141.23919754 -227.55615234 141.20599365 C-231.09532558 141.17528433 -234.63456001 141.16159845 -238.17382812 141.14648438 C-245.11604055 141.11432705 -252.05800211 141.06313554 -259 141 C-257.38182825 137.59170063 -255.52234036 135.20469242 -252.9375 132.4375 C-249.66981527 128.87703072 -246.53520807 125.2606708 -243.5 121.5 C-240.5918662 117.9052235 -237.61458668 114.41739372 -234.5 111 C-231.47717579 107.68010514 -228.57487839 104.30235888 -225.75 100.8125 C-220.54917527 94.39273197 -215.12681923 88.17504767 -209.69824219 81.94824219 C-206.91973744 78.76071087 -204.14627592 75.56881709 -201.375 72.375 C-200.83391602 71.75141602 -200.29283203 71.12783203 -199.73535156 70.48535156 C-195.84383064 65.99260593 -191.99619175 61.46468522 -188.16796875 56.91796875 C-184.61100086 52.70115754 -180.99829392 48.53486452 -177.375 44.375 C-172.84886264 39.17761345 -168.44591903 33.90034157 -164.109375 28.54296875 C-161.26288628 25.11136846 -158.26003474 21.83418447 -155.2578125 18.5390625 C-152.1674314 15.06372044 -149.24753145 11.46148553 -146.3359375 7.8359375 C-145.17964844 6.43214844 -145.17964844 6.43214844 -144 5 C-143.56692032 4.3401712 -143.13384064 3.68034241 -142.68763733 3.0005188 C-140.24434365 -0.3794471 -138.38180982 -2.64645567 -134.24841309 -3.70401001 C-130.90027232 -3.92512425 -127.63854337 -3.89990531 -124.28515625 -3.78125 C-122.46883949 -3.76427063 -122.46883949 -3.76427063 -120.61582947 -3.74694824 C-116.76308393 -3.70230342 -112.91411314 -3.60194669 -109.0625 -3.5 C-106.44471535 -3.45985837 -103.82687214 -3.42335883 -101.20898438 -3.390625 C-94.80471017 -3.30260619 -88.40262475 -3.1688819 -82 -3 C-83.75955522 0.71384382 -85.98890062 3.58668075 -88.625 6.75 C-89.85089844 8.22726563 -89.85089844 8.22726563 -91.1015625 9.734375 C-91.72804688 10.48203125 -92.35453125 11.2296875 -93 12 C-92.25447876 11.63817627 -92.25447876 11.63817627 -91.49389648 11.26904297 C-61.65694464 -3.16387474 -61.65694464 -3.16387474 -45 -6 C-44.26394531 -6.13148437 -43.52789063 -6.26296875 -42.76953125 -6.3984375 C-28.38711418 -8.59286814 -12.95187832 -6.7072227 0 0 Z M35.97607422 74.38964844 C35.19360321 74.50016541 34.4111322 74.61068237 33.60494995 74.72454834 C32.76336334 74.85154114 31.92177673 74.97853394 31.0546875 75.109375 C30.17080353 75.2368512 29.28691956 75.36432739 28.37625122 75.4956665 C25.54140015 75.9065921 22.70827523 76.32836156 19.875 76.75 C18.0222316 77.01889277 16.16936771 77.28712837 14.31640625 77.5546875 C5.55668215 78.82772196 -3.19357574 80.15948936 -11.9296875 81.5859375 C-12.64512726 81.70072449 -13.36056702 81.81551147 -14.09768677 81.93377686 C-27.66690436 84.19144195 -41.48282379 88.57309371 -51 99 C-53.24254627 102.74490569 -53.46771757 105.63463599 -53 110 C-50.76862771 113.30243098 -48.15899541 114.77166633 -44.28125 115.68359375 C-22.46961508 118.70883764 2.86344331 111.45493098 20.81640625 99.0546875 C29.78437881 92.07199131 37.08178545 83.97895931 44 75 C41.11029713 74.13341697 38.95466895 73.95455356 35.97607422 74.38964844 Z " fill="#000000" transform="translate(1398,102)"/>
<path d="M0 0 C3.66637166 1.88241831 5.19016653 4.92344193 7.16015625 8.39453125 C11.53376413 15.86389288 16.27451138 23.05561337 21.10415649 30.23461914 C24.77266883 35.68957092 28.42329508 41.15656107 32.07714844 46.62133789 C33.00665967 48.01056366 33.93699707 49.39923702 34.86816406 50.78735352 C40.84592965 59.70059159 46.67224192 68.68712631 52.31787109 77.81469727 C54.93375948 82.03470714 57.67156176 86.17036858 60.47265625 90.26953125 C58.84964726 94.22325664 56.12014021 97.02812784 53.22265625 100.08203125 C52.43181641 100.92701172 52.43181641 100.92701172 51.625 101.7890625 C50.49473908 102.99608587 49.36251444 104.20127286 48.22851562 105.40478516 C45.88918925 107.88918099 43.56201907 110.38480737 41.23461914 112.88037109 C40.05465345 114.14551929 38.87414713 115.41016346 37.69311523 116.67431641 C27.33070828 127.76659104 17.06992578 138.9529936 6.83203125 150.16015625 C1.1697412 156.35225122 -4.53410054 162.50332716 -10.26489258 168.63208008 C-14.03391988 172.66433777 -17.78801594 176.70972539 -21.52734375 180.76953125 C-25.8618705 185.47554741 -30.22003151 190.15876806 -34.58984375 194.83203125 C-40.61092545 201.27351304 -46.58122349 207.75879423 -52.52734375 214.26953125 C-59.06603129 221.42910307 -65.64253559 228.54984966 -72.26489258 235.63208008 C-76.03391988 239.66433777 -79.78801594 243.70972539 -83.52734375 247.76953125 C-87.86187035 252.47554724 -92.22001106 257.15878734 -96.58984375 261.83203125 C-101.69222154 267.29022727 -106.76075444 272.7771872 -111.80078125 278.29296875 C-114.25907446 280.98144596 -116.73348996 283.65472464 -119.20947266 286.3269043 C-124.06624414 291.5701302 -128.87266542 296.84453644 -133.52734375 302.26953125 C-136.13067358 301.90700692 -137.26399074 301.57227061 -139.01611328 299.55810547 C-139.47614746 298.82092285 -139.93618164 298.08374023 -140.41015625 297.32421875 C-141.19326172 296.09155273 -141.19326172 296.09155273 -141.9921875 294.83398438 C-142.81396484 293.50270508 -142.81396484 293.50270508 -143.65234375 292.14453125 C-144.82083684 290.29768478 -145.99011376 288.45133401 -147.16015625 286.60546875 C-148.02108887 285.23600098 -148.02108887 285.23600098 -148.89941406 283.83886719 C-151.05121497 280.44271351 -153.27912014 277.10228527 -155.52734375 273.76953125 C-159.93499176 267.19860383 -164.24468411 260.56601447 -168.54174805 253.92236328 C-171.33498583 249.61213344 -174.15273306 245.32160777 -177.0234375 241.0625 C-177.8589917 239.82173706 -177.8589917 239.82173706 -178.71142578 238.5559082 C-179.77735186 236.97747464 -180.84719355 235.40167653 -181.92138672 233.82885742 C-182.39592285 233.12607666 -182.87045898 232.4232959 -183.359375 231.69921875 C-183.77936768 231.08288574 -184.19936035 230.46655273 -184.63208008 229.83154297 C-185.52734375 228.26953125 -185.52734375 228.26953125 -185.52734375 226.26953125 C-186.18734375 226.26953125 -186.84734375 226.26953125 -187.52734375 226.26953125 C-187.841875 225.70105469 -188.15640625 225.13257813 -188.48046875 224.546875 C-191.12924134 219.76791482 -193.80563128 215.00732703 -196.52734375 210.26953125 C-191.85566459 204.85899151 -187.0646723 199.58687335 -182.15234375 194.39453125 C-178.04657322 190.03612877 -173.95292758 185.67398443 -169.96484375 181.20703125 C-162.6867362 173.05827159 -155.15881498 165.13560299 -147.6796875 157.171875 C-140.2424329 149.25151023 -132.85059834 141.29546694 -125.52734375 133.26953125 C-123.71544168 131.28981191 -121.90311395 129.31049617 -120.08984375 127.33203125 C-119.63834961 126.83928711 -119.18685547 126.34654297 -118.72167969 125.83886719 C-114.82469509 121.5883645 -110.91359599 117.35098418 -106.99926758 113.11645508 C-103.7460582 109.59550045 -100.50875044 106.0605338 -97.27734375 102.51953125 C-92.76217499 97.57885791 -88.18218448 92.70096044 -83.58984375 87.83203125 C-75.35483489 79.10057537 -67.15664775 70.33879022 -59.15234375 61.39453125 C-51.05998247 52.37234749 -42.71083464 43.58257967 -34.39746094 34.76464844 C-29.14070478 29.18854496 -23.89055081 23.60856793 -18.71484375 17.95703125 C-17.43287109 16.56484375 -17.43287109 16.56484375 -16.125 15.14453125 C-14.24382807 13.06251239 -12.40530997 10.966444 -10.5859375 8.83203125 C-9.84984253 7.98572144 -9.84984253 7.98572144 -9.09887695 7.12231445 C-8.15781803 6.03894518 -7.2297126 4.94413987 -6.31713867 3.83666992 C-4.2910755 1.52662608 -3.11081468 0.33175612 0 0 Z " fill="#FD0000" transform="translate(736.52734375,-0.26953125)"/>
<path d="M0 0 C3.63245349 3.68995935 4.90030045 7.67045026 6.48046875 12.50390625 C7.34285156 12.07980469 8.20523437 11.65570313 9.09375 11.21875 C26.01164381 3.03084765 43.09355375 -2.62325134 61.48046875 -6.49609375 C62.58519531 -6.73199219 63.68992187 -6.96789062 64.828125 -7.2109375 C82.33742706 -10.66241143 107.78820883 -12.8335762 123.7578125 -3.109375 C128.25567131 0.11964841 131.69036146 3.13358437 133.48046875 8.50390625 C134.95881791 20.35493475 129.05966127 28.60961779 122.18530273 37.60839844 C118.51548901 42.3086963 114.66798153 46.79716172 110.609375 51.16796875 C108.38623132 53.60730806 106.30446398 56.12431959 104.23046875 58.69140625 C99.0152836 65.13102618 93.56715123 71.35846028 88.12695312 77.60742188 C85.54409466 80.58245814 82.97989961 83.57334685 80.41796875 86.56640625 C79.92707764 87.13979736 79.43618652 87.71318848 78.93041992 88.30395508 C77.94161672 89.45921143 76.95292826 90.61456601 75.96435547 91.77001953 C73.47151351 94.68284671 70.97584109 97.59324686 68.48046875 100.50390625 C67.48045535 101.67056143 66.48045534 102.83722809 65.48046875 104.00390625 C59.48046875 111.00390625 59.48046875 111.00390625 57.97802734 112.7565918 C56.98595054 113.91412256 55.99408578 115.07183509 55.00244141 116.22973633 C52.38299707 119.28776724 49.75909328 122.34182646 47.12890625 125.390625 C46.58105469 126.02677734 46.03320312 126.66292969 45.46875 127.31835938 C44.4180192 128.53827564 43.36599984 129.75708361 42.3125 130.97460938 C40.20992299 133.41806739 38.27128855 135.81767655 36.48046875 138.50390625 C33.96212769 138.8646698 33.96212769 138.8646698 30.74560547 138.84448242 C29.54451141 138.84425583 28.34341736 138.84402924 27.10592651 138.84379578 C25.80382233 138.82831192 24.50171814 138.81282806 23.16015625 138.796875 C21.8178047 138.79128041 20.47544702 138.78700966 19.13308716 138.78401184 C15.59835934 138.7725521 12.06400077 138.74307584 8.52941895 138.7098999 C4.92330928 138.67922296 1.31714001 138.66551163 -2.2890625 138.65039062 C-9.36603657 138.61820677 -16.44275982 138.56699719 -23.51953125 138.50390625 C-22.5795372 137.24025983 -21.63808846 135.97769545 -20.69604492 134.71557617 C-19.90988045 133.66076302 -19.90988045 133.66076302 -19.10783386 132.5846405 C-16.79814745 129.55886721 -14.33166369 126.68554592 -11.83203125 123.81640625 C-10.7743481 122.5927862 -9.71706508 121.36882019 -8.66015625 120.14453125 C-8.13357422 119.53544922 -7.60699219 118.92636719 -7.06445312 118.29882812 C-4.716986 115.57149274 -2.39985529 112.81892843 -0.08203125 110.06640625 C3.88170411 105.3679017 7.88754519 100.70780742 11.91796875 96.06640625 C20.51734599 86.16189158 29.09169438 76.25668947 37.34765625 66.0625 C39.42488668 63.57058437 41.58596324 61.19348566 43.79296875 58.81640625 C47.73970515 54.47986873 51.32554225 49.93008589 54.85546875 45.25390625 C55.62370972 44.24324097 55.62370972 44.24324097 56.4074707 43.2121582 C61.55706257 36.64829579 61.55706257 36.64829579 63.48046875 28.81640625 C62.0998612 25.6237513 60.63188392 24.90453521 57.48046875 23.50390625 C49.68172531 21.59754674 42.14458603 22.46779119 34.41796875 24.12890625 C33.59159912 24.30639404 32.76522949 24.48388184 31.91381836 24.66674805 C10.2814204 29.57742531 -6.65202614 41.20786432 -22.08203125 56.81640625 C-23.32799072 58.06925415 -23.32799072 58.06925415 -24.59912109 59.34741211 C-29.576777 64.39909067 -34.25940523 69.50722288 -38.62109375 75.1015625 C-40.65363866 77.67361007 -42.80784507 80.0846386 -45.01953125 82.50390625 C-48.13411793 85.92129997 -51.11139745 89.40912975 -54.01953125 93.00390625 C-57.62985567 97.46666838 -61.40381054 101.73110158 -65.26953125 105.97265625 C-68.38644947 109.47918925 -71.31267651 113.12957374 -74.26171875 116.77734375 C-77.12341438 120.23316304 -80.13055196 123.5372274 -83.18359375 126.82421875 C-85.50096175 129.31054203 -85.50096175 129.31054203 -86.79344177 131.70344543 C-89.19088088 135.53701595 -90.98196252 138.0894553 -95.46520996 139.2979126 C-99.11711223 139.54565338 -102.67015477 139.51594637 -106.328125 139.3828125 C-107.6632913 139.36600179 -108.99851356 139.35320222 -110.33375549 139.34422302 C-113.82872955 139.31004579 -117.32027438 139.22182524 -120.81390381 139.12188721 C-124.38653164 139.02939956 -127.95972027 138.98862715 -131.53320312 138.94335938 C-138.53004446 138.84717202 -145.52462276 138.69381132 -152.51953125 138.50390625 C-149.99528418 134.66042821 -147.46823539 131.18111343 -144.33203125 127.81640625 C-141.12706759 124.31817794 -138.05868595 120.76083585 -135.08203125 117.06640625 C-132.00616537 113.26303122 -128.83199959 109.60307973 -125.51953125 106.00390625 C-121.47951042 101.60960667 -117.67320676 97.08277278 -113.921875 92.44140625 C-109.73021076 87.31598916 -105.3896808 82.31793054 -101.06787109 77.30224609 C-98.0468421 73.79343191 -95.03452935 70.27710324 -92.02685547 66.75683594 C-89.50767178 63.81079742 -86.97519313 60.87843212 -84.4140625 57.96875 C-79.48039445 52.34170998 -74.69098258 46.65474823 -70.33203125 40.56640625 C-69.25888672 39.06787109 -69.25888672 39.06787109 -68.1640625 37.5390625 C-66.30266037 34.10364812 -65.76336976 31.38656563 -65.51953125 27.50390625 C-66.96297823 24.71324208 -68.78525231 24.39970191 -71.70703125 23.25390625 C-90.57847717 19.23943503 -111.41230456 27.33630104 -127.51953125 36.50390625 C-128.36773438 36.98601562 -129.2159375 37.468125 -130.08984375 37.96484375 C-136.95715397 42.22306837 -142.71627324 47.93246946 -148.51953125 53.50390625 C-149.84210938 54.76460937 -149.84210938 54.76460937 -151.19140625 56.05078125 C-156.26520055 60.99851855 -160.81694008 66.18428948 -165.23828125 71.71875 C-167.57659807 74.57357858 -170.01867843 77.29078968 -172.51953125 80.00390625 C-176.54526099 84.38266152 -180.3413537 88.89024341 -184.07421875 93.51953125 C-187.51295681 97.71632978 -191.06197498 101.815783 -194.62255859 105.90942383 C-197.35905545 109.0058811 -197.35905545 109.0058811 -199.51953125 112.50390625 C-200.17953125 112.50390625 -200.83953125 112.50390625 -201.51953125 112.50390625 C-201.76574219 113.06980469 -202.01195312 113.63570313 -202.265625 114.21875 C-203.73489349 116.89638883 -205.4970556 118.83434237 -207.58203125 121.06640625 C-211.82754154 125.69036559 -215.82539642 130.46932616 -219.76953125 135.3515625 C-221.51953125 137.50390625 -221.51953125 137.50390625 -222.51953125 138.50390625 C-224.39134065 138.59777006 -226.26671185 138.62134429 -228.14086914 138.61743164 C-229.34203873 138.61735611 -230.54320831 138.61728058 -231.78077698 138.61720276 C-233.08804245 138.61204147 -234.39530792 138.60688019 -235.7421875 138.6015625 C-237.08597257 138.59969823 -238.42975832 138.59827437 -239.77354431 138.59727478 C-243.31635402 138.59345027 -246.85912295 138.58362057 -250.4019165 138.5725708 C-254.01468352 138.56235524 -257.62745709 138.55777685 -261.24023438 138.55273438 C-268.33335005 138.54199823 -275.42643799 138.52492261 -282.51953125 138.50390625 C-281.56738158 137.22345753 -280.61371964 135.94413325 -279.65942383 134.6652832 C-279.12851639 133.9527388 -278.59760895 133.2401944 -278.0506134 132.50605774 C-276.22128421 130.11389729 -274.25737572 127.89620228 -272.20703125 125.69140625 C-269.02669884 122.2127512 -265.98221005 118.66976884 -263.01953125 115.00390625 C-259.40920683 110.54114412 -255.63525196 106.27671092 -251.76953125 102.03515625 C-249.44091072 99.41545815 -247.22390178 96.72875315 -245.01953125 94.00390625 C-242.11139745 90.40912975 -239.13411793 86.92129997 -236.01953125 83.50390625 C-230.41565398 77.34547863 -225.20117185 70.88115872 -220.0234375 64.36328125 C-219.21777344 63.3578125 -218.41210938 62.35234375 -217.58203125 61.31640625 C-216.85113281 60.39472656 -216.12023437 59.47304687 -215.3671875 58.5234375 C-214.75746094 57.85699219 -214.14773438 57.19054687 -213.51953125 56.50390625 C-212.85953125 56.50390625 -212.19953125 56.50390625 -211.51953125 56.50390625 C-211.24568604 55.9116626 -210.97184082 55.31941895 -210.68969727 54.70922852 C-209.56135411 52.5827266 -208.38873431 51.01285262 -206.796875 49.21875 C-206.26296143 48.6112793 -205.72904785 48.00380859 -205.17895508 47.37792969 C-204.61072021 46.73887695 -204.04248535 46.09982422 -203.45703125 45.44140625 C-199.49968011 40.94018473 -195.59177399 36.42326417 -191.83203125 31.75390625 C-188.05626559 27.08769494 -184.05600946 22.67337175 -179.9921875 18.2578125 C-176.86550757 14.77549125 -173.92793104 11.16235669 -171.015625 7.5 C-170.19191406 6.51128906 -169.36820313 5.52257812 -168.51953125 4.50390625 C-167.93664337 3.6968071 -167.35375549 2.88970795 -166.75320435 2.05815125 C-161.26027499 -4.9649096 -161.26027499 -4.9649096 -156.62861633 -6.37825012 C-153.31918261 -6.64951036 -150.14514153 -6.62352942 -146.828125 -6.47265625 C-145.04934715 -6.45143204 -145.04934715 -6.45143204 -143.2346344 -6.42977905 C-139.47278883 -6.3741059 -135.71705429 -6.24871541 -131.95703125 -6.12109375 C-129.39657082 -6.07089817 -126.83601637 -6.02527695 -124.27539062 -5.984375 C-118.02137704 -5.8745344 -111.77089066 -5.70753615 -105.51953125 -5.49609375 C-107.1071254 -1.2133546 -109.01379896 1.46205022 -112.14453125 4.81640625 C-113.37042969 6.14091797 -113.37042969 6.14091797 -114.62109375 7.4921875 C-115.24757813 8.15605469 -115.8740625 8.81992188 -116.51953125 9.50390625 C-112.48323487 8.19046062 -108.52922348 6.75097898 -104.58203125 5.19140625 C-76.67323341 -5.55490322 -26.17611269 -22.2692302 0 0 Z " fill="#000000" transform="translate(1005.51953125,104.49609375)"/>
<path d="M0 0 C2.94202597 2.82690321 4.90278385 6.13871676 6.796875 9.7265625 C8.54889788 7.83256535 10.29852478 5.93644512 12.046875 4.0390625 C12.53800781 3.50861328 13.02914063 2.97816406 13.53515625 2.43164062 C14.26025391 1.64370117 14.26025391 1.64370117 15 0.83984375 C15.43989258 0.36329346 15.87978516 -0.11325684 16.33300781 -0.60424805 C17.95553612 -2.32282621 17.95553612 -2.32282621 19.1953125 -4.9375 C23.54336631 -8.84160838 28.59448022 -7.88446972 34.21875 -7.76171875 C35.43387268 -7.75464401 36.64899536 -7.74756927 37.90093994 -7.74028015 C41.78354342 -7.71228256 45.66470708 -7.64952846 49.546875 -7.5859375 C52.1783646 -7.56086183 54.80987679 -7.5380474 57.44140625 -7.51757812 C63.89372076 -7.4624379 70.34519503 -7.37875565 76.796875 -7.2734375 C75.16782014 -2.83889153 72.92824332 0.05644853 69.671875 3.4140625 C65.45517168 7.87856426 61.54260026 12.46267301 57.75390625 17.30078125 C55.00004778 20.71424654 52.03717274 23.92115897 49.08203125 27.16015625 C46.73984642 29.79060999 44.51150774 32.48812097 42.296875 35.2265625 C38.68655058 39.68932463 34.91259571 43.95375783 31.046875 48.1953125 C28.71825447 50.8150106 26.50124553 53.5017156 24.296875 56.2265625 C20.68655058 60.68932463 16.91259571 64.95375783 13.046875 69.1953125 C10.71825447 71.8150106 8.50124553 74.5017156 6.296875 77.2265625 C3.3887412 80.821339 0.41146168 84.30916878 -2.703125 87.7265625 C-5.72594921 91.04645736 -8.62824661 94.42420362 -11.453125 97.9140625 C-19.32620491 107.63153525 -27.5923726 117.03498649 -36.0078125 126.28515625 C-37.85201022 128.33608788 -39.66043798 130.4103792 -41.46484375 132.49609375 C-74.96052902 170.79663425 -118.50053257 191.1082007 -169.18408203 194.53857422 C-185.97107105 195.58385819 -202.54581638 195.97297645 -219.328125 194.9140625 C-220.63692627 194.83188477 -221.94572754 194.74970703 -223.29418945 194.66503906 C-255.16609446 192.39125948 -255.16609446 192.39125948 -266.203125 181.7265625 C-269.71140221 177.49863868 -271.11129195 174.23654525 -271.203125 168.7265625 C-270.07653269 159.3493383 -263.74467619 151.26811369 -257.203125 144.7265625 C-254.16644418 144.71063028 -251.17275631 144.7822307 -248.140625 144.9140625 C-246.68160767 144.97581665 -246.68160767 144.97581665 -245.19311523 145.03881836 C-228.14971854 145.90104537 -211.16728953 147.92431571 -194.203125 149.7265625 C-194.54085938 150.65726563 -194.87859375 151.58796875 -195.2265625 152.546875 C-196.24580282 155.86552147 -196.16548661 157.45453304 -195.203125 160.7265625 C-187.84939512 163.04588657 -180.80955776 163.03455994 -173.140625 162.9765625 C-171.84165283 162.96834473 -170.54268066 162.96012695 -169.2043457 162.95166016 C-145.49200056 162.6749839 -125.57540962 157.78981359 -108.55737305 140.42480469 C-103.80496206 135.43504552 -99.47876697 130.12650955 -95.203125 124.7265625 C-93.54637577 122.71805806 -91.87566948 120.72198078 -90.203125 118.7265625 C-91.23699341 119.14953613 -91.23699341 119.14953613 -92.29174805 119.58105469 C-118.59018568 130.30865591 -118.59018568 130.30865591 -128.203125 132.7265625 C-128.82106934 132.90413086 -129.43901367 133.08169922 -130.07568359 133.26464844 C-142.24829927 136.71098938 -154.38668549 137.17443492 -166.953125 137.2890625 C-167.73550537 137.3036853 -168.51788574 137.31830811 -169.32397461 137.33337402 C-182.62504863 137.54309761 -197.20579265 136.28195066 -207.73046875 127.19140625 C-213.88679334 121.06774121 -216.35915204 115.71044132 -216.703125 107.1015625 C-216.1576804 84.71461888 -198.69474409 67.08520154 -184.203125 51.7265625 C-183.40132812 50.870625 -182.59953125 50.0146875 -181.7734375 49.1328125 C-171.50377975 38.49277365 -159.49434039 29.8755178 -147.203125 21.7265625 C-146.213125 21.06011719 -145.223125 20.39367187 -144.203125 19.70703125 C-119.0865116 3.46452743 -88.6683234 -6.15968981 -59.203125 -10.2734375 C-58.3059375 -10.40621094 -57.40875 -10.53898437 -56.484375 -10.67578125 C-37.36086251 -13.06622031 -15.73655389 -12.27451203 0 0 Z M-126.390625 55.6015625 C-127.15165527 56.34462646 -127.91268555 57.08769043 -128.69677734 57.85327148 C-137.64686893 66.81801614 -147.50617561 78.56210959 -148.34375 91.75390625 C-148.03365985 96.10378203 -145.32414739 98.9515025 -142.203125 101.7265625 C-126.98617294 109.1220012 -107.10564186 103.94378342 -91.93847656 98.70654297 C-64.85619877 88.74884368 -38.42678408 68.82552279 -26.03515625 42.21875 C-24.31763362 37.0742456 -24.22877491 31.76383996 -26.578125 26.8515625 C-56.40950291 2.70235181 -104.85704719 34.4302764 -126.390625 55.6015625 Z " fill="#000000" transform="translate(1707.203125,106.2734375)"/>
<path d="M0 0 C5.34412496 5.20883066 8.42979531 10.92641447 8.5625 18.4375 C8.18139033 34.87718535 -2.42030084 50.9825365 -12.58953953 63.25812721 C-13.68903087 64.61596324 -14.72161621 66.0280598 -15.72539425 67.45810509 C-18.76710336 71.41364259 -21.20916004 74.47508021 -26.10457039 75.90999222 C-29.82047702 76.22911226 -33.42031058 76.23798645 -37.14868164 76.13525391 C-38.55885618 76.13242834 -39.96904539 76.13402594 -41.37921143 76.13967896 C-45.18358642 76.14253294 -48.98476895 76.0840086 -52.78840566 76.01393938 C-56.7720539 75.95116029 -60.75578631 75.94553156 -64.73985291 75.9336853 C-72.27323076 75.90268041 -79.80514663 75.82072774 -87.33788246 75.72019041 C-95.91813174 75.60817352 -104.49845317 75.55337385 -113.07925236 75.50323606 C-130.72032854 75.39888433 -148.36004648 75.22314618 -166 75 C-166.28746094 75.76054687 -166.57492187 76.52109375 -166.87109375 77.3046875 C-168.20948552 80.50015575 -170.06748079 83.13239085 -172 86 C-173.4511825 90.3535475 -173.63272475 94.45456356 -173 99 C-169.96216076 103.32661952 -166.00905656 105.51708962 -161 107 C-157.36761595 107.47482855 -153.78511975 107.52396995 -150.125 107.5 C-149.10994385 107.49427979 -148.0948877 107.48855957 -147.04907227 107.48266602 C-130.36838576 107.0924822 -112.49897508 101.06616985 -100.35546875 89.28515625 C-94.30691487 85.98503316 -85.95156835 88.2845607 -79.4375 89.3125 C-71.20020892 90.55361222 -62.95517665 91.66769032 -54.6875 92.6875 C-53.0940979 92.88436401 -53.0940979 92.88436401 -51.46850586 93.08520508 C-48.97918752 93.3916681 -46.48970664 93.69671024 -44 94 C-45.31180336 97.03984816 -46.47068964 98.64740194 -49.24609375 100.4453125 C-49.90843018 100.87739014 -50.5707666 101.30946777 -51.25317383 101.75463867 C-51.97400146 102.20685791 -52.6948291 102.65907715 -53.4375 103.125 C-54.19248779 103.60364502 -54.94747559 104.08229004 -55.7253418 104.57543945 C-80.14119671 119.81496669 -107.27866559 131.24027055 -135.83740234 135.66015625 C-137.34758765 135.89747595 -138.85564101 136.14859178 -140.36181641 136.41015625 C-166.30553807 140.90713553 -204.04945558 144.34353993 -227.21875 128.48828125 C-232.99709221 123.66032427 -237.85637322 118.14901423 -238.8125 110.5 C-240.07239945 94.24016557 -229.9920414 78.94056742 -220 67 C-216.13301953 62.53905797 -212.09176162 58.25417308 -208 54 C-207.47889648 53.45166504 -206.95779297 52.90333008 -206.42089844 52.33837891 C-166.54862184 10.51302407 -53.83437386 -46.91110626 0 0 Z M-139 46 C-140.01259126 47.32379633 -141.01470621 48.6557627 -142 50 C-131.54284207 50.18550122 -121.08607652 50.32757733 -110.62760735 50.41449738 C-105.77100316 50.45621932 -100.91552588 50.5127902 -96.05957031 50.60351562 C-91.37160328 50.69055258 -86.68471874 50.73829667 -81.99600601 50.75901794 C-80.208914 50.7737805 -78.42188015 50.80261065 -76.63525009 50.84584045 C-67.14431402 51.45057751 -67.14431402 51.45057751 -58.6026001 48.2668457 C-57.04250136 46.22177639 -56.00318193 44.35854285 -55 42 C-54.38125 41.05125 -53.7625 40.1025 -53.125 39.125 C-51.52387217 34.67742269 -51.06475899 30.66061772 -52 26 C-56.64268982 20.40496354 -62.87390634 18.49665942 -69.953125 17.64453125 C-95.09581151 16.54230447 -121.53428323 28.37135677 -139 46 Z " fill="#000000" transform="translate(1942,108)"/>
<path d="M0 0 C1.30249191 0.00848969 2.60498383 0.01697937 3.94694519 0.02572632 C7.39832489 0.04856078 10.84817289 0.10743159 14.2989502 0.1739502 C17.8247404 0.23549259 21.35077983 0.26276646 24.87695312 0.29296875 C31.78708484 0.35718451 38.69620313 0.45949517 45.60546875 0.5859375 C44.35717801 3.83518222 43.3186741 6.24541245 40.8828125 8.75 C40.08218384 9.58821289 40.08218384 9.58821289 39.26538086 10.44335938 C38.69698486 11.02666016 38.12858887 11.60996094 37.54296875 12.2109375 C32.76503567 17.23081614 28.24185691 22.34535244 23.90234375 27.75390625 C21.2547415 31.01838182 18.53379666 34.21221409 15.79296875 37.3984375 C15.28846191 37.98536377 14.78395508 38.57229004 14.26416016 39.17700195 C12.19232424 41.58517487 10.11807465 43.99126337 8.04394531 46.39746094 C6.50086415 48.18851998 4.9589796 49.98059692 3.41796875 51.7734375 C2.91620117 52.35697998 2.41443359 52.94052246 1.89746094 53.54174805 C-1.1118997 57.0534921 -4.05383829 60.61035833 -6.95703125 64.2109375 C-10.57269412 68.6700371 -14.39663729 72.90075556 -18.30444336 77.1015625 C-22.12818782 81.23519558 -25.68321242 85.55123902 -29.21484375 89.9375 C-31.37210524 92.55868869 -33.60764125 95.07748031 -35.89453125 97.5859375 C-38.91735546 100.90583236 -41.81965286 104.28357862 -44.64453125 107.7734375 C-48.24923463 112.22446254 -51.94828573 116.57787477 -55.70703125 120.8984375 C-56.52494141 121.83888916 -56.52494141 121.83888916 -57.359375 122.79833984 C-58.47267927 124.07792107 -59.58612428 125.35737987 -60.69970703 126.63671875 C-63.52283357 129.88359894 -66.33671639 133.13831151 -69.14453125 136.3984375 C-69.65798096 136.99116455 -70.17143066 137.5838916 -70.70043945 138.19458008 C-73.32344592 141.19901794 -73.32344592 141.19901794 -75.39453125 144.5859375 C-95.19453125 144.5859375 -114.99453125 144.5859375 -135.39453125 144.5859375 C-133.4892995 140.775474 -131.71794081 138.58999868 -128.83203125 135.5234375 C-122.94600518 129.1546726 -117.45442524 122.51482031 -112.125 115.671875 C-111.05185547 114.29902344 -111.05185547 114.29902344 -109.95703125 112.8984375 C-109.31894531 112.06957031 -108.68085937 111.24070312 -108.0234375 110.38671875 C-107.48589844 109.79246094 -106.94835938 109.19820313 -106.39453125 108.5859375 C-105.73453125 108.5859375 -105.07453125 108.5859375 -104.39453125 108.5859375 C-104.14832031 108.02003906 -103.90210938 107.45414062 -103.6484375 106.87109375 C-102.17916901 104.19345492 -100.4170069 102.25550138 -98.33203125 100.0234375 C-95.13754901 96.53901022 -92.05621233 93.01024515 -89.08203125 89.3359375 C-82.58590876 81.319925 -75.82847262 73.52777716 -69.0546875 65.74609375 C-67.93870232 64.46362847 -66.82281648 63.18107674 -65.70703125 61.8984375 C-65.15909912 61.26873047 -64.61116699 60.63902344 -64.04663086 59.99023438 C-60.86678984 56.32328712 -57.75780154 52.61180284 -54.70703125 48.8359375 C-50.92605571 44.16328766 -46.91893105 39.74381009 -42.8515625 35.3203125 C-39.73584828 31.85290399 -36.81792632 28.24760786 -33.890625 24.62109375 C-30.34145375 20.30543481 -26.67263497 16.09728754 -22.9987793 11.88769531 C-22.47453369 11.28666992 -21.95028809 10.68564453 -21.41015625 10.06640625 C-20.94899414 9.53942139 -20.48783203 9.01243652 -20.01269531 8.46948242 C-18.20298702 6.47835014 -18.20298702 6.47835014 -16.54321289 3.4050293 C-12.46360768 -1.44863666 -5.78575016 -0.14166589 0 0 Z " fill="#000000" transform="translate(1196.39453125,98.4140625)"/>
<path d="M0 0 C1.02148132 0.01110306 2.04296265 0.02220612 3.09539795 0.03364563 C4.83675018 0.03421211 4.83675018 0.03421211 6.61328125 0.03479004 C8.48533234 0.07349968 8.48533234 0.07349968 10.39520264 0.11299133 C11.67691345 0.12006607 12.95862427 0.12714081 14.2791748 0.13442993 C17.67939379 0.15348024 21.07853721 0.20256069 24.47833252 0.25794983 C27.95047455 0.3091868 31.42279117 0.33195325 34.89520264 0.35713196 C41.7029349 0.41068384 48.50995457 0.49597087 55.31707764 0.60127258 C55.81207764 1.59127258 55.81207764 1.59127258 56.31707764 2.60127258 C51.01569962 9.22159248 45.55866808 15.58154255 39.81317139 21.82002258 C36.47966698 25.53434988 33.3464549 29.39399208 30.22723389 33.28877258 C29.59688232 34.05189758 28.96653076 34.81502258 28.31707764 35.60127258 C27.69073677 36.40477898 27.69073677 36.40477898 27.05174255 37.22451782 C24.57236225 39.19233224 22.79142082 38.96227699 19.65228271 38.94184875 C18.49130569 38.94162216 17.33032867 38.94139557 16.13417053 38.94116211 C14.88097519 38.92567825 13.62777985 38.9101944 12.33660889 38.89424133 C11.05348312 38.88999649 9.77035736 38.88575165 8.448349 38.88137817 C5.04021626 38.86993421 1.63246824 38.84047154 -1.7755127 38.80726624 C-5.25436194 38.7765553 -8.73327346 38.76287069 -12.21221924 38.74775696 C-19.03594479 38.71560094 -25.8594151 38.66441034 -32.68292236 38.60127258 C-31.98683987 35.52804185 -31.27391557 33.78440297 -29.16339111 31.42158508 C-28.64124023 30.82909973 -28.11908936 30.23661438 -27.58111572 29.62617493 C-27.01658691 28.99920715 -26.45205811 28.37223938 -25.87042236 27.72627258 C-24.68770236 26.38810938 -23.50542124 25.04955815 -22.32354736 23.71064758 C-21.41765869 22.69067688 -21.41765869 22.69067688 -20.49346924 21.65010071 C-17.66909171 18.45401438 -14.89351283 15.21684554 -12.12042236 11.97627258 C-11.63275391 11.40924622 -11.14508545 10.84221985 -10.64263916 10.25801086 C-8.6010334 7.87809407 -6.64540179 5.54592333 -4.88415527 2.94778442 C-2.68292236 0.60127258 -2.68292236 0.60127258 0 0 Z " fill="#000000" transform="translate(1232.6829223632813,43.39872741699219)"/>
<path d="M0 0 C5.15603047 2.81238025 10.38177772 6.13651459 12.4375 11.875 C12.68172617 14.55012852 12.80759454 17.07652389 12.8125 19.75 C12.83699219 20.44480469 12.86148437 21.13960937 12.88671875 21.85546875 C12.92052867 27.83982519 10.96886912 31.2676898 6.875 35.484375 C0.89139455 40.23223585 -2.88931539 41.39331336 -10.51953125 41.25390625 C-16.52852738 40.50567438 -20.49234598 37.28899841 -24.4375 32.875 C-28.55440549 27.06289814 -29.58927465 21.93669507 -28.5625 14.875 C-25.87426194 7.74339325 -21.95347921 3.66646071 -15.25 0.125 C-9.64172804 -1.77610914 -5.64023754 -1.78112764 0 0 Z M-16.5625 7.875 C-16.5625 8.205 -16.5625 8.535 -16.5625 8.875 C-14.86480469 8.93107422 -14.86480469 8.93107422 -13.1328125 8.98828125 C-11.65100795 9.05393082 -10.16923861 9.12037851 -8.6875 9.1875 C-7.94113281 9.21005859 -7.19476562 9.23261719 -6.42578125 9.25585938 C-4.462896 9.35311945 -2.50921678 9.60542294 -0.5625 9.875 C2.03250704 13.76751056 1.30340203 15.3880531 0.4375 19.875 C0.004375 20.926875 0.004375 20.926875 -0.4375 22 C-0.47875 22.61875 -0.52 23.2375 -0.5625 23.875 C1.79176499 26.64622275 1.79176499 26.64622275 4.4375 28.875 C6.83632404 24.26925785 8.00735154 20.97425691 7.07421875 15.796875 C5.54060105 11.1677958 2.45663813 8.51196133 -1.5625 6 C-7.55832597 3.75156526 -11.00966127 5.26189942 -16.5625 7.875 Z M-19.625 10.625 C-22.47852303 15.41155477 -22.72628635 20.43917803 -21.5625 25.875 C-19.9125 27.525 -18.2625 29.175 -16.5625 30.875 C-16.5625 23.615 -16.5625 16.355 -16.5625 8.875 C-17.88622942 8.76717043 -17.88622942 8.76717043 -19.625 10.625 Z M-10.5625 13.875 C-10.5625 15.195 -10.5625 16.515 -10.5625 17.875 C-8.9125 17.875 -7.2625 17.875 -5.5625 17.875 C-5.2325 16.555 -4.9025 15.235 -4.5625 13.875 C-6.5425 13.875 -8.5225 13.875 -10.5625 13.875 Z M-10.5625 22.875 C-10.5625 25.845 -10.5625 28.815 -10.5625 31.875 C-12.2125 31.875 -13.8625 31.875 -15.5625 31.875 C-12.68657323 34.75092677 -9.47321092 34.83878971 -5.5625 34.875 C-2.1809661 34.05656968 -2.1809661 34.05656968 0.4375 32.875 C-0.305 32.153125 -1.0475 31.43125 -1.8125 30.6875 C-4.5625 27.875 -4.5625 27.875 -6.75 25.0625 C-7.348125 24.340625 -7.94625 23.61875 -8.5625 22.875 C-9.2225 22.875 -9.8825 22.875 -10.5625 22.875 Z " fill="#000000" transform="translate(1987.5625,61.125)"/>
</svg>
